<svg xmlns="http://www.w3.org/2000/svg" width="106.524" height="88.467" viewBox="0 0 106.524 88.467">
  <g id="组_32" data-name="组 32" transform="translate(-294.5 -130.687)">
    <path id="减去_2" data-name="减去 2" d="M-4068.842,4401.655H-4144v-14.009a21.912,21.912,0,0,1,8.24-17.215,45.612,45.612,0,0,1,15.557-7.923,22.478,22.478,0,0,1-6.107-7.56,21.851,21.851,0,0,1-2.28-9.776A22.2,22.2,0,0,1-4106.419,4323a22.2,22.2,0,0,1,22.172,22.171,21.847,21.847,0,0,1-2.281,9.776,22.485,22.485,0,0,1-6.109,7.56,45.593,45.593,0,0,1,15.557,7.923,21.909,21.909,0,0,1,8.24,17.215v14.008Zm-47.166-34.314a40.687,40.687,0,0,0-16.117,7.638,16.124,16.124,0,0,0-6.052,12.667v8.186h63.511v-8.186a16.12,16.12,0,0,0-6.052-12.667,40.682,40.682,0,0,0-16.117-7.638h-9.53l-.055,0-.059,0Zm9.589-38.518a16.367,16.367,0,0,0-16.348,16.349,16.236,16.236,0,0,0,4.774,11.535,16.242,16.242,0,0,0,11.516,4.811h.114a16.244,16.244,0,0,0,11.518-4.811,16.234,16.234,0,0,0,4.775-11.535A16.367,16.367,0,0,0-4106.419,4328.823Z" transform="translate(4439 -4183)" fill="#fff" stroke="rgba(0,0,0,0)" stroke-width="1"/>
    <path id="ic_autorenew_24px" d="M23.024,12.89v7.134l9.512-9.512L23.024,1V8.134A18.99,18.99,0,0,0,6.949,37.288l3.472-3.472a13.96,13.96,0,0,1-1.665-6.658A14.279,14.279,0,0,1,23.024,12.89ZM39.1,17.028,35.627,20.5a14.244,14.244,0,0,1-12.6,20.926V34.292L13.512,43.8l9.512,9.512V46.182A18.99,18.99,0,0,0,39.1,17.028Z" transform="translate(358.975 129.687)" fill="#fff"/>
  </g>
</svg>
