<svg xmlns="http://www.w3.org/2000/svg" width="88.431" height="88.489" viewBox="0 0 88.431 88.489">
  <g id="file" transform="translate(-0.168)">
    <g id="组_183" data-name="组 183" transform="translate(0.168)">
      <g id="组_182" data-name="组 182">
        <path id="路径_277" data-name="路径 277" d="M74.665,65.492a18.147,18.147,0,0,0-6.748-27.274V22.258L45.659,0H.168V88.489H67.917V71.01A18,18,0,0,0,71,69.156l13.916,14.07L88.6,79.58ZM47.178,8.851,59.066,20.74H47.178V8.851ZM62.732,83.3H5.353V5.185h36.64v20.74h20.74V36.66a18.141,18.141,0,1,0,0,35.908ZM69.306,63.78a12.962,12.962,0,1,1,0-18.331A12.977,12.977,0,0,1,69.306,63.78Z" transform="translate(-0.168)" fill="#fff"/>
      </g>
    </g>
    <g id="组_185" data-name="组 185" transform="translate(10.538 31.282)">
      <g id="组_184" data-name="组 184">
        <rect id="矩形_148" data-name="矩形 148" width="36.64" height="5.185" fill="#fff"/>
      </g>
    </g>
    <g id="组_187" data-name="组 187" transform="translate(10.538 41.652)">
      <g id="组_186" data-name="组 186">
        <rect id="矩形_149" data-name="矩形 149" width="26.27" height="5.185" fill="#fff"/>
      </g>
    </g>
    <g id="组_189" data-name="组 189" transform="translate(10.538 62.391)">
      <g id="组_188" data-name="组 188">
        <rect id="矩形_150" data-name="矩形 150" width="26.27" height="5.185" fill="#fff"/>
      </g>
    </g>
    <g id="组_191" data-name="组 191" transform="translate(10.538 52.022)">
      <g id="组_190" data-name="组 190">
        <rect id="矩形_151" data-name="矩形 151" width="26.27" height="5.185" fill="#fff"/>
      </g>
    </g>
  </g>
</svg>
