<svg xmlns="http://www.w3.org/2000/svg" xmlns:xlink="http://www.w3.org/1999/xlink" width="526.451" height="411.927" viewBox="0 0 526.451 411.927">
  <defs>
    <linearGradient id="linear-gradient" y1="0.5" x2="1" y2="0.5" gradientUnits="objectBoundingBox">
      <stop offset="0" stop-color="gray" stop-opacity="0.251"/>
      <stop offset="0.54" stop-color="gray" stop-opacity="0.122"/>
      <stop offset="1" stop-color="gray" stop-opacity="0.102"/>
    </linearGradient>
  </defs>
  <g id="组_161" data-name="组 161" transform="translate(0.005 -0.003)">
    <ellipse id="椭圆_72" data-name="椭圆 72" cx="91.832" cy="17.396" rx="91.832" ry="17.396" transform="translate(92.836 369.159)" fill="#45a5bf" opacity="0.1"/>
    <path id="路径_186" data-name="路径 186" d="M401.1,113.124c-33.75-1.168-65.893-12.067-96.587-23.988s-61.1-25.125-94.037-31.44c-21.187-4.062-45.42-4.641-62.488,6.706-16.432,10.951-21.74,29.8-24.593,47.308-2.148,13.172-3.41,27.038,2.472,39.371,4.088,8.563,11.337,15.759,16.353,23.962,17.454,28.535,5.116,63.724-13.793,91.587-8.865,13.068-19.164,25.552-26.011,39.45S92.4,335.955,98.393,350.17c5.934,14.08,20.082,24.634,35.408,32.065,31.127,15.1,67.792,19.414,103.57,21.865,79.175,5.413,158.768,3.072,238.152.72,29.38-.866,58.885-1.747,87.785-6.289,16.051-2.524,32.618-6.529,44.273-16.2,14.789-12.27,18.455-33.046,8.542-48.429-16.625-25.813-62.577-32.222-74.211-59.917-6.393-15.248.172-32.227,9.47-46.364,19.941-30.334,53.362-56.945,55.12-91.613,1.21-23.811-14.857-47.658-39.7-58.927-26.037-11.811-62.149-10.325-81.35,9.225C465.663,106.418,430.9,114.162,401.1,113.124Z" transform="translate(-95.23 -55.03)" fill="#45a5bf" opacity="0.1"/>
    <path id="路径_187" data-name="路径 187" d="M480.925,289.661l-15.973-10.768h0l8.057-11.994-42.187-3.363-15.159,11.723L396.686,264.62l-15.827,1.9-.188-4.172a117.745,117.745,0,0,0-1.309-12.985c.068-1.3.115-2.8.11-4.427,0-6.857-.928-15.947-5.006-22.006l.939-8.437-7.614-9a57.56,57.56,0,0,1,4.172-7.019c.261-.375.521-.74.8-1.1a18.934,18.934,0,0,0,17.678-18.773,12.012,12.012,0,0,0-.052-1.371,4.962,4.962,0,0,0-.057-.553c.965.521,1.94,1.043,2.915,1.564.182.261.391.521.621.829h0l.047.057.292.36.094.11c.1.125.214.245.323.37l.073.083c.276.308.568.621.881.928a.944.944,0,0,1,.1.1l.391.365.11.1c.334.3.688.584,1.043.855l.115.083.448.308.146.094c.172.1.349.214.522.313l.063.037c.2.11.412.214.621.313l.1.042q.266.115.521.219l.162.057c.183.063.36.12.548.172l.115.031c.229.057.459.1.694.141h.026a5.671,5.671,0,0,0,.667.068h.151a5.731,5.731,0,0,0,.6,0h.13a6.18,6.18,0,0,0,.746-.089,8.229,8.229,0,0,0,3.285-1.179,2.868,2.868,0,0,0,.667-.621,2.458,2.458,0,0,0-.1-2.863h0c-.407-.97-3.045-1.653-3.045-1.653s-8.344-3.483-8.344-6.258-2.086-17.167-23.618-20.457c0,0-14.007-.787-17.944,6.711l-.083.876c-1.158.725-2.117,2.18-3.259,2.607a5.325,5.325,0,0,0-1.413.521v-.1h0a1.345,1.345,0,0,0-.318.412,4.171,4.171,0,0,0-.433,1.564,5.892,5.892,0,0,1-.683,1.893,4.213,4.213,0,0,1-.313.48h0l-.089.141a3.806,3.806,0,0,0,1.773-.287,8.826,8.826,0,0,1-.521,2.086,1.731,1.731,0,0,0,1.606-.96v-.042l.068-.094a4.4,4.4,0,0,0,.323-.756l-.057.063c.1-.339.2-.683.313-1.017a1.6,1.6,0,0,1,.255-.521,1.262,1.262,0,0,1,1.079-.36l-.214,4.521h.094a6.171,6.171,0,0,1-.459.949c-.741,1.2-2.086,2.018-2.581,3.332a4.9,4.9,0,0,0-.24,1.971c0,.391.047.787.078,1.179v-.031a4.4,4.4,0,0,1-.469,2.873c-.386.574-1.006,1.006-1.22,1.658a1.618,1.618,0,0,0-.078.563,6.326,6.326,0,0,0,.355,1.674.072.072,0,0,0,0-.031,2.544,2.544,0,0,1,.089,1.231c-.235,1.043-1.5,1.914-1.439,2.91a1.122,1.122,0,0,0,.057.386,2.112,2.112,0,0,0,1.179,1.043,4.589,4.589,0,0,0,2.649.584,3.483,3.483,0,0,0,.991-.339c-.365.84-.741,1.669-1.121,2.456-.057.125-.12.25-.183.375,0,0-3.223-2.154-5.053,2.237a9.742,9.742,0,0,0-1.132,2.941,7,7,0,0,1-.386,1.21,7.786,7.786,0,0,1-3.483,3.129c-3.734,1.71-18.815,20.52-19.081,25.391a28.416,28.416,0,0,1-.96,5.622,33.453,33.453,0,0,0-.9,13.292,25.435,25.435,0,0,0,.923,4.24c1.6,4.865,2.67,13.944,2.67,13.944l1.731,15.759a44.844,44.844,0,0,0,.282,6.513c-1.768,2.018-8.865,10.429-6.153,12.719,2.086,1.8,5.736,1.507,7.786,1.137-1.726,4.271-4.443,11.7-4.8,16.8-.521,7.546.892,17.542,3.129,21.38s9.694,13.684,9.694,13.684-.349,13.506,2.315,18.413,3.739,15.086,3.739,15.086,2.487,8.594,1.241,11.754,2.31,5.788-1.424,7.89-8.51,49.467-8.51,49.467-1.924,31.043,0,32.623a1.956,1.956,0,0,0,.329.193v10.429s-1.335,2.19,4.094,2.633c3.718.3,14.257.97,20.51,1.361l4.845.3s11.472,2.284,16.541,0,14.054-2.232,12.719-8.265a17.157,17.157,0,0,0-.709-2.414c-1.465-3.744-3.953-4.172-8.537-5.215-.266-.057-.521-.109-.756-.151-4.829-.84-6.414,1.408-9.121-1.517-2.352-2.529-9.84-5.361-12.39-6.258.063-.188.141-.37.2-.563a3.818,3.818,0,0,1-1.935-.944l6.91.438,4.114.256s9.752,1.945,14.08,0,11.942-1.893,10.8-7.019a14.716,14.716,0,0,0-.6-2.055c-1.246-3.181-3.363-3.53-7.259-4.412-.224-.047-.433-.094-.641-.13-4.1-.714-5.449,1.194-7.749-1.288-1.971-2.117-8.192-4.49-10.43-5.3,0-1.158-1.564-2.806-2.55-4.459-1.158-1.929.98-8.683.98-8.683l1.22-28.019a5.413,5.413,0,0,1,1.46-.417s5.517-5.267,4.271-10.878a36.055,36.055,0,0,1-.4-5.126c1.815-1.684,4.313-4.172,5.022-5.7,1.158-2.5,0-14.6,0-14.6V332.834l9.23.933,8.375.86,2.55.261,8.375.845,19.248,1.945,17.344-3.285,7.5-1.418,15.43-2.92V292.3ZM353.889,164.554l-1.074-.115C353.169,164.455,353.545,164.523,353.889,164.554Z" transform="translate(-201.876 -101.022)" fill="url(#linear-gradient)"/>
    <path id="路径_188" data-name="路径 188" d="M521.446,446.443c-5.215,7.462-23.962,3.509-23.962,3.509l-14.528-13.595L481,434.517l3.28-6.967s1.043.287,2.832.8C496.5,431.075,525.847,440.17,521.446,446.443Z" transform="translate(-279.833 -233.289)" fill="#efb7b9"/>
    <path id="路径_189" data-name="路径 189" d="M487.1,428.348a30.591,30.591,0,0,1-4.146,8.01L481,434.517l3.28-6.967S485.333,427.837,487.1,428.348Z" transform="translate(-279.833 -233.289)" opacity="0.1"/>
    <path id="路径_190" data-name="路径 190" d="M385.443,278.219s-13.391,5.94-12.734,20.525a240.473,240.473,0,0,0,3.066,28.035s-2.738,21.949,8.662,27.607,21.949,10.31,21.949,10.31,17.834,1.919,20.051,2.712,9.141-11.326,7.864-13.214-17.647-5.846-19.733-9-6.91-5.095-6.91-5.095-4.98-3.014-5.319-5.736.975-4.751,1.309-5.945,1.179-12.724,1.179-12.724S410.448,274.657,385.443,278.219Z" transform="translate(-228.001 -161.725)" fill="#dce6f2"/>
    <path id="路径_191" data-name="路径 191" d="M398.762,370.39s-18.372,3.077-16.593,9.506A38.948,38.948,0,0,1,398.762,370.39Z" transform="translate(-232.481 -205.936)" opacity="0.1"/>
    <path id="路径_192" data-name="路径 192" d="M406.679,375.38s-10.1,8.245-8.125,8.667S406.679,375.38,406.679,375.38Z" transform="translate(-240.258 -208.324)" opacity="0.1"/>
    <path id="路径_193" data-name="路径 193" d="M422.227,380.89s-2.706,5.543-1.043,5.168S422.227,380.89,422.227,380.89Z" transform="translate(-250.951 -210.961)" opacity="0.1"/>
    <path id="路径_194" data-name="路径 194" d="M436.565,357.909l-1.116-.318a3.189,3.189,0,0,0,.146-2.279c-1.278-1.888-17.636-5.841-19.717-9s-6.91-5.095-6.91-5.095-4.98-3.014-5.319-5.736.975-4.751,1.309-5.945,1.179-12.729,1.179-12.729,5.606-41.035-19.4-37.473c0,0-13.391,5.945-12.74,20.53A239.807,239.807,0,0,0,377.07,327.9s-2.738,21.949,8.662,27.607,21.949,10.31,21.949,10.31,17.829,1.914,20.051,2.712c.84.3,2.357-1.257,3.843-3.4l.845.787,14.528,13.59s18.747,3.958,23.962-3.5C475.316,369.726,445.978,360.632,436.565,357.909Z" transform="translate(-228.619 -162.261)" opacity="0.1"/>
    <path id="路径_195" data-name="路径 195" d="M379.489,170.688a4.432,4.432,0,0,0-1.444.558c-.522.433-.522,1.173-.652,1.82a5.988,5.988,0,0,1-1.043,2.493,3.749,3.749,0,0,0,1.736-.287,8.937,8.937,0,0,1-.521,2.086,1.69,1.69,0,0,0,1.564-.954,10.043,10.043,0,0,0,.652-1.83,1.507,1.507,0,0,1,.25-.521c.48-.568,1.371-.313,2.112-.24a3.468,3.468,0,0,0,3.171-1.523c.787-1.194.834-4.25-1.043-4.573C382.31,167.392,381.09,170.093,379.489,170.688Z" transform="translate(-229.755 -108.938)" fill="#965d7b"/>
    <g id="组_159" data-name="组 159" transform="translate(146.673 62.172)" opacity="0.1">
      <path id="路径_196" data-name="路径 196" d="M378.744,175.027c.047-.256.078-.521.136-.777h0a3.059,3.059,0,0,0-.652,1.82,5.733,5.733,0,0,1-.308,1.1,5.976,5.976,0,0,0,.824-2.143Z" transform="translate(-377.18 -174.25)"/>
      <path id="路径_197" data-name="路径 197" d="M378.231,182.086a8.673,8.673,0,0,0,.521-2.086,3.734,3.734,0,0,1-1.653.287,6.032,6.032,0,0,1-.6,1.043,3.713,3.713,0,0,0,1.731-.282,8.671,8.671,0,0,1-.521,2.086,1.7,1.7,0,0,0,1.564-.954,3.891,3.891,0,0,0,.313-.746A1.564,1.564,0,0,1,378.231,182.086Z" transform="translate(-376.5 -177.002)"/>
      <path id="路径_198" data-name="路径 198" d="M386.313,176.028c-.741-.073-1.637-.329-2.117.24a1.61,1.61,0,0,0-.25.521c-.047.136-.089.276-.125.417.5-.391,1.3-.182,1.971-.115a3.483,3.483,0,0,0,3.171-1.523,2.889,2.889,0,0,0,.349-.819,3.473,3.473,0,0,1-3,1.278Z" transform="translate(-380.003 -174.489)"/>
    </g>
    <path id="路径_199" data-name="路径 199" d="M314.766,201l7.953,9.564-1.038,9.652-9.611-15.045Z" transform="translate(-149.335 -96.182)" fill="#dce6f2"/>
    <path id="路径_200" data-name="路径 200" d="M322.713,210.564l-.975,9.079-.063.574L313,206.637l-.933-1.465.271-.422,2.42-3.749.537.647Z" transform="translate(-149.335 -96.182)" opacity="0.1"/>
    <path id="路径_201" data-name="路径 201" d="M405.4,218.3c-2.691.772-5.262,3.421-7.5,6.638a56.646,56.646,0,0,0-4.047,6.956c-.735,1.471-1.382,2.884-1.919,4.114l-.375.876c-.907,2.143-1.413,3.577-1.413,3.577s-20.6-15.488-17.339-16.531c1.1-.349,2.534-2.7,3.958-5.653l.177-.375c.9-1.9,1.789-4.015,2.576-6.007,1.611-4.094,2.806-7.65,2.806-7.65S413.615,215.957,405.4,218.3Z" transform="translate(-227.893 -126.434)" fill="#efb7b9"/>
    <path id="路径_202" data-name="路径 202" d="M459.26,202.58s4.756,8.6,11.144,7.431,3.76-4.62,3.76-4.62Z" transform="translate(-269.43 -125.635)" fill="#444053"/>
    <path id="路径_203" data-name="路径 203" d="M406.438,755.1c-4.214,1.924-13.741,0-13.741,0l-4.015-.25c-5.215-.334-13.944-.9-17.031-1.147-4.506-.37-3.4-2.216-3.4-2.216V740.328l21.86-5.538s8.641,2.957,11.008,5.538c2.248,2.461,3.562.568,7.572,1.278.2.036.407.078.626.13,3.807.871,5.872,1.215,7.092,4.37A14.657,14.657,0,0,1,417,748.14C418.124,753.219,410.646,753.182,406.438,755.1Z" transform="translate(-225.822 -380.311)" fill="#a36468"/>
    <path id="路径_204" data-name="路径 204" d="M416.408,752.36a16.338,16.338,0,0,1-2.461,1.262c-2.868,1.309-5.6,2.9-8.495,4.141a19.869,19.869,0,0,1-9.162,1.882c-1.643-.12-3.322-.521-4.891-.052a11.3,11.3,0,0,0-2.717,1.507c-5.215-.334-13.944-.9-17.031-1.147-4.506-.37-3.4-2.216-3.4-2.216v-1.3c.162,0,.344-.047.553-.063a9.844,9.844,0,0,1,3.181.475c2.263.615,4.516,1.22,6.779,1.825a5.356,5.356,0,0,1,2.607-3.327,8.312,8.312,0,0,1,4.2-.965c3.51.047,6.831,1.71,10.336,1.877a5.7,5.7,0,0,0,2.863-.48c.48-.24.9-.589,1.371-.855a10.016,10.016,0,0,1,2.362-.8,52.025,52.025,0,0,0,6.753-2.18c.626-.245,1.356-.688,1.272-1.356-.11-.886-1.5-.991-1.867-1.8a1.043,1.043,0,0,1,.042-.923c.2.036.407.078.626.13C413.123,748.861,415.188,749.205,416.408,752.36Z" transform="translate(-225.822 -386.565)" opacity="0.1"/>
    <path id="路径_205" data-name="路径 205" d="M391.7,798.6c-4.954,2.263-16.166,0-16.166,0l-4.719-.276c-6.112-.391-16.406-1.043-20.04-1.351-5.3-.438-4-2.607-4-2.607V781.218l25.724-6.518s10.169,3.478,12.953,6.518c2.644,2.894,4.172.668,8.912,1.5.235.042.48.094.735.151,4.479,1.043,6.91,1.434,8.344,5.147a16.734,16.734,0,0,1,.694,2.394C405.425,796.388,396.649,796.341,391.7,798.6Z" transform="translate(-215.533 -399.409)" fill="#a36468"/>
    <path id="路径_206" data-name="路径 206" d="M403.428,795.4a19.415,19.415,0,0,1-2.894,1.486c-3.374,1.538-6.586,3.416-10,4.871a23.433,23.433,0,0,1-10.784,2.216c-1.929-.141-3.906-.626-5.736-.062a13.3,13.3,0,0,0-3.207,1.794c-6.112-.391-16.406-1.043-20.04-1.351-5.3-.438-4-2.607-4-2.607v-1.533a6.545,6.545,0,0,1,.652-.073,11.441,11.441,0,0,1,3.744.558l7.973,2.148a6.31,6.31,0,0,1,3.092-3.916,9.731,9.731,0,0,1,4.949-1.137c4.13.057,8.036,2.013,12.161,2.211a6.731,6.731,0,0,0,3.358-.558c.568-.287,1.043-.7,1.617-1.006a11.342,11.342,0,0,1,2.779-.939A62.432,62.432,0,0,0,395,794.938c.735-.292,1.6-.813,1.5-1.6-.13-1.043-1.768-1.168-2.2-2.128a1.257,1.257,0,0,1,.052-1.085c.235.042.48.094.735.151C399.564,791.282,401.994,791.689,403.428,795.4Z" transform="translate(-215.533 -406.793)" opacity="0.1"/>
    <path id="路径_207" data-name="路径 207" d="M395.869,647.54,394.476,680.3s-2.086,6.691-.954,8.6,3.04,3.822,2.347,4.954-9.037,13.365-11.733,8.672S378.78,677.5,378.78,677.5l2.487-25.119Z" transform="translate(-230.918 -338.56)" fill="#444053"/>
    <path id="路径_208" data-name="路径 208" d="M415.952,491l3.869,5.173v44.993s1.132,11.994,0,14.471-6.868,7.431-6.868,7.431L408.13,538.3l1.043-26.2Z" transform="translate(-244.963 -263.651)" fill="#444053"/>
    <path id="路径_209" data-name="路径 209" d="M395.869,647.54,394.476,680.3s-2.086,6.691-.954,8.6,3.04,3.822,2.347,4.954-9.037,13.365-11.733,8.672S378.78,677.5,378.78,677.5l2.487-25.119Z" transform="translate(-230.918 -338.56)" opacity="0.1"/>
    <path id="路径_210" data-name="路径 210" d="M415.952,491l3.869,5.173v44.993s1.132,11.994,0,14.471-6.868,7.431-6.868,7.431L408.13,538.3l1.043-26.2Z" transform="translate(-244.963 -263.651)" opacity="0.1"/>
    <path id="路径_211" data-name="路径 211" d="M381,442.715v24.337L376.655,486s-1.392,45.718-.177,51.277-4.172,10.779-4.172,10.779-3.129.349-3.129,2.779-5.215,9.387-5.215,9.387l.172,13.558s2.263,25.38-1.215,30.246,1.215,5.564,1.215,5.564c-4.344,14.252-25.2,10.951-27.085,9.387s0-32.331,0-32.331,4.662-46.933,8.312-49.019.177-4.693,1.392-7.822-1.215-11.645-1.215-11.645-1.043-10.085-3.65-14.951-2.263-18.252-2.263-18.252-7.3-9.736-9.47-13.558-3.567-13.73-3.045-21.208c.355-5.053,3.009-12.411,4.693-16.645.808-2.029,1.392-3.343,1.392-3.343l.5.13,28.483,7.457Z" transform="translate(-206.14 -234.557)" fill="#444053"/>
    <path id="路径_212" data-name="路径 212" d="M411.876,218.27c-2.691.772-5.262,3.421-7.5,6.638h-.584a18.627,18.627,0,0,1-16.166-9.35,18.344,18.344,0,0,1-1.637-3.729c1.611-4.094,2.806-7.65,2.806-7.65S420.089,215.924,411.876,218.27Z" transform="translate(-234.368 -126.4)" opacity="0.1"/>
    <path id="路径_213" data-name="路径 213" d="M421.665,189.08a18.643,18.643,0,1,1-34.876-9.136,18.213,18.213,0,0,1,1.971-2.847,18.867,18.867,0,0,1,4.286-3.765,18.643,18.643,0,0,1,28.592,14.382C421.65,188.172,421.665,188.626,421.665,189.08Z" transform="translate(-233.597 -110.247)" fill="#efb7b9"/>
    <path id="路径_214" data-name="路径 214" d="M400.3,262.427l-.063.574-8.672-13.558c-.907,2.143-1.413,3.577-1.413,3.577s-20.6-15.509-17.339-16.552c1.1-.349,2.534-2.7,3.958-5.653l.177-.375c1.512,4.506,10.3,13.511,13.955,17.12.422.417.772.761,1.043,1.012l.558.521.292.292C394.122,250.757,399.733,256.806,400.3,262.427Z" transform="translate(-227.893 -138.967)" opacity="0.1"/>
    <path id="路径_215" data-name="路径 215" d="M381.908,308.293l-.949,30.543-.167,5.439s-11.243-1.043-21.735-2.19c-8.448-.923-16.411-1.919-17.636-2.5a33.2,33.2,0,0,0-7.561-1.664c-2.044-.276-3.65-.422-3.65-.422s-.6.177-1.523.344c-2.013.365-5.549.662-7.608-1.126-2.633-2.289,4.286-10.607,6.013-12.6l.381-.433-.652-6.023-1.695-15.618s-1.043-9-2.607-13.819a25.488,25.488,0,0,1-.9-4.2,33.626,33.626,0,0,1,.876-13.172,28.723,28.723,0,0,0,.939-5.575c.261-4.824,14.992-23.466,18.643-25.161a7.739,7.739,0,0,0,3.734-3.723,7.112,7.112,0,0,0,.568-1.622c1.564-6.779,5.522-4.088,5.522-4.088.954,5.3,15.728,19.341,15.728,19.341l.292.292c1.465,1.5,7.994,8.552,7.53,14.57a17.662,17.662,0,0,0,.986,6.591,111.464,111.464,0,0,1,5.137,29.2Z" transform="translate(-203.023 -138.828)" fill="#dce6f2"/>
    <path id="路径_216" data-name="路径 216" d="M391.846,310.45s-3.65,8.865-6.388,10.3S393.15,323.774,391.846,310.45Z" transform="translate(-233.893 -177.253)" opacity="0.1"/>
    <path id="路径_217" data-name="路径 217" d="M395.724,342.2s-8.344,1.043-8.344,2.607S395.724,342.2,395.724,342.2Z" transform="translate(-235.033 -192.447)" opacity="0.1"/>
    <path id="路径_218" data-name="路径 218" d="M405.521,361.7s-12.124,25.813-15.514,26.6S405.521,361.7,405.521,361.7Z" transform="translate(-236.095 -201.778)" opacity="0.1"/>
    <path id="路径_219" data-name="路径 219" d="M390.131,252.26l-10.028,4.36L368,238.337a7.115,7.115,0,0,0,.568-1.622c1.564-6.779,5.522-4.088,5.522-4.088.954,5.3,15.728,19.341,15.728,19.341Z" transform="translate(-225.759 -139.761)" opacity="0.1"/>
    <path id="路径_220" data-name="路径 220" d="M391.131,250.26,381.1,254.619,369,236.337a7.111,7.111,0,0,0,.568-1.622c1.564-6.779,5.522-4.088,5.522-4.088.954,5.3,15.728,19.341,15.728,19.341Z" transform="translate(-226.238 -138.804)" fill="#dce6f2"/>
    <path id="路径_221" data-name="路径 221" d="M385.764,373.791s-11.243-1.043-21.735-2.19l18.825,4.928v5.736c-.824.746-1.538,1.132-2,.933-2.169-.913-19.873-3.781-19.873-3.781s-10.283-5.215-21.38-11.472a8.577,8.577,0,0,1-.782-.49,12.328,12.328,0,0,1-3.285-3.29,23.354,23.354,0,0,1-3.483-10.518,45.48,45.48,0,0,1-.271-6.456,52.941,52.941,0,0,1,.667-7.3,239.9,239.9,0,0,1-1.564-28.16c.13-14.6,13.819-19.816,13.819-19.816,25.161-2.216,17.36,38.459,17.36,38.459s-1.455,11.472-1.851,12.646-1.82,3.129-1.627,5.867,5,6.013,5,6.013,4.693,2.2,6.628,5.46c1.408,2.4,10.555,5.663,15.722,7.989Z" transform="translate(-207.995 -168.344)" opacity="0.1"/>
    <path id="路径_222" data-name="路径 222" d="M419.759,175.276a5.9,5.9,0,0,1-.521,2.493,15.416,15.416,0,0,1-.928,1.856,8.553,8.553,0,0,1-2.284,2.837,11.685,11.685,0,0,1-4.172,1.45,6.037,6.037,0,0,0-3.77,2.138,7.479,7.479,0,0,0-.881,2.555,5.5,5.5,0,0,1-1.043,2.472,2.049,2.049,0,0,1-2.441.584,2.467,2.467,0,0,1-.944-1.215,17.427,17.427,0,0,1-.986-4.271,9.087,9.087,0,0,0-1.465-4.094,3.666,3.666,0,0,0-3.849-1.476,3.708,3.708,0,0,0-2.086,2.023,11.6,11.6,0,0,0-.787,2.879q-.97,5.309-2.289,10.555a.97.97,0,0,1-.172.4.751.751,0,0,1-.521.219c-1.168.156-2.289-.662-3.468-.574a1.991,1.991,0,0,0-.36.057,18.632,18.632,0,0,1,1.883-21.276l.094-.026a5.622,5.622,0,0,0,2.086-1.314,22.012,22.012,0,0,0,2.086-2.414l.417-.521a23.783,23.783,0,0,1,4.067-3.864,4.172,4.172,0,0,1,1.387-.751,4.109,4.109,0,0,1,1.314-.042,33.152,33.152,0,0,0,5.429.2,34.824,34.824,0,0,1,3.812-.386c3.3.094,6.117,2.425,8.2,4.98A7.714,7.714,0,0,1,419.759,175.276Z" transform="translate(-233.564 -108.02)" opacity="0.1"/>
    <path id="路径_223" data-name="路径 223" d="M379.393,177.748c-.725,1.189-2.034,2-2.524,3.3-.72,1.893.5,4.25-.621,5.94-.37.568-.98.991-1.189,1.643-.355,1.1.615,2.274.365,3.405s-1.742,2.086-1.345,3.191a2.086,2.086,0,0,0,1.147,1.043,4.485,4.485,0,0,0,2.607.579c1.424-.235,2.482-1.632,3.927-1.737,1.173-.083,2.294.73,3.463.579a.782.782,0,0,0,.522-.224.9.9,0,0,0,.172-.4q1.314-5.241,2.294-10.555a11.369,11.369,0,0,1,.782-2.879,3.739,3.739,0,0,1,2.086-2.023,3.678,3.678,0,0,1,3.849,1.476,9.032,9.032,0,0,1,1.471,4.094,17.658,17.658,0,0,0,.98,4.271,2.492,2.492,0,0,0,.949,1.22,2.042,2.042,0,0,0,2.435-.584,5.44,5.44,0,0,0,1.043-2.477,7.447,7.447,0,0,1,.881-2.55,6.05,6.05,0,0,1,3.77-2.138,11.8,11.8,0,0,0,4.172-1.455,8.584,8.584,0,0,0,2.284-2.832,8.336,8.336,0,0,0,1.429-4.354,7.993,7.993,0,0,0-2.138-4.511c-2.086-2.555-4.907-4.886-8.208-4.975a32.44,32.44,0,0,0-3.812.386,32.628,32.628,0,0,1-5.429-.209,4.266,4.266,0,0,0-1.314.047,3.932,3.932,0,0,0-1.382.751,23.8,23.8,0,0,0-4.073,3.859,29.885,29.885,0,0,1-2.513,2.92,5.658,5.658,0,0,1-2.086,1.319c-.521.146-1.043.042-1.538.2C380.31,174.562,380.107,176.57,379.393,177.748Z" transform="translate(-228.636 -107.556)" fill="#965d7b"/>
    <path id="路径_224" data-name="路径 224" d="M470.4,210.006c-4.172.767-7.629-2.607-9.543-5.069a20.452,20.452,0,0,1-1.6-2.357l14.32,2.7.579.11S476.792,208.838,470.4,210.006Z" transform="translate(-269.43 -125.635)" opacity="0.1"/>
    <g id="组_160" data-name="组 160" transform="translate(145.35 66.213)" opacity="0.1">
      <path id="路径_225" data-name="路径 225" d="M376.312,212.332a4.344,4.344,0,0,0-.3-2c0,.052-.047.1-.063.156a3.881,3.881,0,0,0,.271,2.148A1.561,1.561,0,0,0,376.312,212.332Z" transform="translate(-374.875 -195.557)"/>
      <path id="路径_226" data-name="路径 226" d="M379.071,197.8a11.585,11.585,0,0,0,.042,2.164A11.622,11.622,0,0,0,379.071,197.8Z" transform="translate(-376.392 -189.561)"/>
      <path id="路径_227" data-name="路径 227" d="M412.858,185.363a8.552,8.552,0,0,1-2.284,2.837,11.649,11.649,0,0,1-4.172,1.45,6.023,6.023,0,0,0-3.77,2.138,7.513,7.513,0,0,0-.881,2.555,5.46,5.46,0,0,1-1.043,2.477,2.035,2.035,0,0,1-2.435.584,2.493,2.493,0,0,1-.949-1.22,17.36,17.36,0,0,1-.98-4.271,9.01,9.01,0,0,0-1.471-4.094,3.666,3.666,0,0,0-3.848-1.476,3.723,3.723,0,0,0-2.086,2.023,11.365,11.365,0,0,0-.782,2.879q-.975,5.314-2.294,10.555a.9.9,0,0,1-.172.4.782.782,0,0,1-.521.224c-1.168.151-2.289-.662-3.463-.579-1.444.1-2.5,1.5-3.927,1.731a4.407,4.407,0,0,1-2.607-.579,2.79,2.79,0,0,1-.954-.678,1.408,1.408,0,0,0-.193,1.215,2.033,2.033,0,0,0,1.147,1.043,4.406,4.406,0,0,0,2.607.579c1.424-.229,2.482-1.627,3.927-1.731,1.173-.083,2.294.73,3.463.579a.782.782,0,0,0,.521-.224.9.9,0,0,0,.172-.4q1.314-5.215,2.294-10.555a11.369,11.369,0,0,1,.782-2.879,3.723,3.723,0,0,1,2.086-2.023,3.669,3.669,0,0,1,3.848,1.476,9.032,9.032,0,0,1,1.471,4.094,17.658,17.658,0,0,0,.98,4.271,2.493,2.493,0,0,0,.949,1.22,2.042,2.042,0,0,0,2.435-.584,5.46,5.46,0,0,0,1.043-2.477,7.515,7.515,0,0,1,.881-2.555,6.075,6.075,0,0,1,3.77-2.138,11.893,11.893,0,0,0,4.172-1.45,8.551,8.551,0,0,0,2.284-2.837,8.3,8.3,0,0,0,1.429-4.349,5.6,5.6,0,0,0-.063-.595A10.248,10.248,0,0,1,412.858,185.363Z" transform="translate(-373.964 -182)"/>
    </g>
    <path id="路径_228" data-name="路径 228" d="M421.489,179.984a18.423,18.423,0,0,1,2.321,7.744c-4.646-2.607-9.016-5.47-11.222-6.466-3.843-1.737-18.215-1.476-23.618-1.314a18.219,18.219,0,0,1,1.971-2.847,18.867,18.867,0,0,1,4.3-3.765,18.653,18.653,0,0,1,26.272,6.638Z" transform="translate(-235.794 -110.251)" opacity="0.1"/>
    <path id="路径_229" data-name="路径 229" d="M471.708,207.795c-2.508.772-6.6-.72-10.847-2.858a20.452,20.452,0,0,1-1.6-2.357l14.32,2.7C474.529,205.928,474.769,206.851,471.708,207.795Z" transform="translate(-269.43 -125.635)" opacity="0.1"/>
    <path id="路径_230" data-name="路径 230" d="M404.449,154.058s-13.689-.782-17.537,6.649l-.621,6.586-1.043-.115-.209,4.479s20.922-.913,25.683,1.236,19.555,12.974,25.484,11.149-.521-3.52-.521-3.52-8.161-3.457-8.161-6.169S425.5,157.318,404.449,154.058Z" transform="translate(-233.913 -102.405)" fill="#444053"/>
    <path id="路径_231" data-name="路径 231" d="M371.63,622.28s8.735,8.474,12.515,7.822C384.145,630.1,373.455,629.19,371.63,622.28Z" transform="translate(-227.496 -326.472)" opacity="0.1"/>
    <path id="路径_232" data-name="路径 232" d="M368.13,629.81s.782,4.359,2.868,3.932S368.13,629.81,368.13,629.81Z" transform="translate(-225.822 -330.075)" opacity="0.1"/>
    <path id="路径_233" data-name="路径 233" d="M384.7,769.53s-12.4,9.647-10.31,9.908S384.7,769.53,384.7,769.53Z" transform="translate(-228.704 -396.935)" opacity="0.1"/>
    <path id="路径_234" data-name="路径 234" d="M330.96,341.334l40.154-6.534v38.016l-38.151-2Z" transform="translate(-158.375 -160.209)" fill="#45a5bf"/>
    <path id="路径_235" data-name="路径 235" d="M330.96,341.334l40.154-6.534v38.016l-38.151-2Z" transform="translate(-158.375 -160.209)" opacity="0.05"/>
    <path id="路径_236" data-name="路径 236" d="M407.96,334.8l48.153,3.6-2.665,33.082-45.488,1.33Z" transform="translate(-195.221 -160.209)" fill="#45a5bf"/>
    <path id="路径_237" data-name="路径 237" d="M407.96,334.8l48.153,3.6-2.665,33.082-45.488,1.33Z" transform="translate(-195.221 -160.209)" opacity="0.1"/>
    <path id="路径_238" data-name="路径 238" d="M422.765,312.55l-14.8,11.6,48.153,3.6,7.869-11.874Z" transform="translate(-195.221 -149.562)" fill="#45a5bf"/>
    <path id="路径_239" data-name="路径 239" d="M303.08,318.991l36.149-4.4,18.544,10.539-40.154,6.534Z" transform="translate(-145.033 -150.538)" fill="#45a5bf"/>
    <path id="路径_240" data-name="路径 240" d="M379.916,350.667v51.975l-18.81-1.929-8.182-.834-2.493-.261-8.177-.84-11.3-1.158V347.33l40.148,2.733Z" transform="translate(-158.375 -166.205)" fill="#45a5bf"/>
    <path id="路径_241" data-name="路径 241" d="M464.19,341.71V392.4l-15.076,2.894-7.332,1.408-16.943,3.254V347.978Z" transform="translate(-203.299 -163.515)" fill="#45a5bf"/>
    <path id="路径_242" data-name="路径 242" d="M464.19,341.71V392.4l-15.076,2.894-7.332,1.408-16.943,3.254V347.978Z" transform="translate(-203.299 -163.515)" opacity="0.05"/>
    <path id="路径_243" data-name="路径 243" d="M303.08,358.271l14.539-10.941,48.956,3.337-7.207,12.14Z" transform="translate(-145.033 -166.205)" fill="#45a5bf"/>
    <path id="路径_244" data-name="路径 244" d="M303.08,358.271l14.539-10.941,48.956,3.337-7.207,12.14Z" transform="translate(-145.033 -166.205)" fill="#fff" opacity="0.1"/>
    <path id="路径_245" data-name="路径 245" d="M464.19,341.71l-39.35,6.268,12.807,11.472,42.151-7.071Z" transform="translate(-203.299 -163.515)" fill="#45a5bf"/>
    <path id="路径_246" data-name="路径 246" d="M464.19,341.71l-39.35,6.268,12.807,11.472,42.151-7.071Z" transform="translate(-203.299 -163.515)" fill="#fff" opacity="0.1"/>
    <path id="路径_247" data-name="路径 247" d="M464.662,434.224l-7.332,1.408V424.8l6.868-1.731Z" transform="translate(-218.846 -202.448)" fill="#fff" opacity="0.1"/>
    <path id="路径_248" data-name="路径 248" d="M381.262,435.96v7.165l-8.182-.834V435.96Z" transform="translate(-178.53 -208.616)" fill="#fff" opacity="0.1"/>
    <path id="路径_249" data-name="路径 249" d="M360.8,440.29V444.1l-8.177-.84V440.29Z" transform="translate(-168.74 -210.688)" fill="#fff" opacity="0.1"/>
    <path id="路径_250" data-name="路径 250" d="M474.162,464.559c-5.606,7.17-24.118,2.216-24.118,2.216l-13.757-14.351-1.867-1.945,3.65-6.779s1.043.344,2.785.949C450.075,447.872,478.881,458.525,474.162,464.559Z" transform="translate(-257.543 -241.017)" opacity="0.1"/>
    <path id="路径_251" data-name="路径 251" d="M473.162,462.559c-5.606,7.17-24.118,2.216-24.118,2.216l-13.757-14.351-1.867-1.945,3.65-6.779s1.043.344,2.785.949C449.075,445.872,477.881,456.526,473.162,462.559Z" transform="translate(-257.065 -240.06)" fill="#efb7b9"/>
    <path id="路径_252" data-name="路径 252" d="M439.815,442.649a30.831,30.831,0,0,1-4.568,7.775l-1.867-1.945,3.65-6.779S438.078,442.044,439.815,442.649Z" transform="translate(-257.045 -240.06)" opacity="0.1"/>
    <path id="路径_253" data-name="路径 253" d="M345.7,287.918s-13.689,5.215-13.819,19.816a239.925,239.925,0,0,0,1.564,28.16s-3.911,21.772,7.17,28.029,21.38,11.472,21.38,11.472,17.7,2.868,19.879,3.781,9.731-10.821,8.557-12.776-17.292-6.779-19.206-10.038-6.628-5.455-6.628-5.455-4.808-3.28-5-6.018,1.225-4.693,1.627-5.867,1.856-12.646,1.856-12.646S370.859,285.676,345.7,287.918Z" transform="translate(-208.474 -166.428)" fill="#dce6f2"/>
    <path id="路径_254" data-name="路径 254" d="M354.636,380.7s-18.512,2.086-17.078,8.6A38.946,38.946,0,0,1,354.636,380.7Z" transform="translate(-211.154 -210.87)" opacity="0.1"/>
    <path id="路径_255" data-name="路径 255" d="M362.291,385.7s-10.508,7.692-8.578,8.213S362.291,385.7,362.291,385.7Z" transform="translate(-218.809 -213.262)" opacity="0.1"/>
    <path id="路径_256" data-name="路径 256" d="M377.707,391.7s-3,5.392-1.3,5.11S377.707,391.7,377.707,391.7Z" transform="translate(-229.532 -216.134)" opacity="0.1"/>
    <path id="路径_257" data-name="路径 257" d="M732.768,167.4s-19.816-1.194-17.5,12.708a3.391,3.391,0,0,0,1.763,3.572s.037-1.043,2.034-.683a9.13,9.13,0,0,0,2.154.1,4.469,4.469,0,0,0,2.639-1.09h0s5.575-2.3,7.744-11.415c0,0,1.606-1.992,1.564-2.5l-3.348,1.434a6,6,0,0,1,.24,4.422s-.1-4.333-.751-4.234c-.13,0-1.737.84-1.737.84s1.966,4.2.48,7.264c0,0,.563-5.183-1.1-6.962L724.6,172.23s2.3,4.344.74,7.89c0,0,.4-5.439-1.236-7.556l-2.138,1.663s2.164,4.287.845,7.228c0,0-.172-6.331-1.309-6.81a12.9,12.9,0,0,0-2.148,2.326s1.476,3.129.558,4.751c0,0-.563-4.219-1.043-4.24,0,0-1.862,2.8-2.055,4.693a10.148,10.148,0,0,1,1.6-4.975,5.585,5.585,0,0,0-2.847,1.476s.287-1.976,3.306-2.148a14.264,14.264,0,0,1,1.95-2.253,12.228,12.228,0,0,0-4.824.558s1.6-1.862,5.376-1.043l2.086-1.721s-3.953-.521-5.632.057c0,0,1.929-1.648,6.2-.448l2.295-1.371a20.6,20.6,0,0,0-5.376-.464s2.117-1.142,6.049.094l1.643-.735s-2.472-.485-3.191-.563-.761-.276-.761-.276a8.531,8.531,0,0,1,4.636.521S732.841,167.615,732.768,167.4Z" transform="translate(-391.846 -108.786)" fill="#45a5bf"/>
    <path id="路径_258" data-name="路径 258" d="M848.228,300.736s-19.816-1.194-17.5,12.708a3.391,3.391,0,0,0,1.763,3.572s.036-1.043,2.039-.683a9.128,9.128,0,0,0,2.154.1,4.463,4.463,0,0,0,2.607-1.085h0s5.58-2.3,7.749-11.42c0,0,1.6-1.987,1.538-2.5l-3.348,1.429a6.017,6.017,0,0,1,.245,4.422s-.109-4.333-.751-4.234c-.13,0-1.742.84-1.742.84s1.971,4.208.485,7.264c0,0,.563-5.183-1.1-6.962l-2.331,1.361s2.3,4.344.74,7.89c0,0,.4-5.439-1.236-7.556l-2.133,1.669s2.159,4.281.845,7.222c0,0-.172-6.331-1.309-6.81a13.079,13.079,0,0,0-2.154,2.326s1.481,3.129.563,4.751c0,0-.563-4.219-1.043-4.24,0,0-1.862,2.8-2.055,4.693a10.179,10.179,0,0,1,1.606-4.975A5.61,5.61,0,0,0,831.009,312s.292-1.976,3.311-2.148a13.021,13.021,0,0,1,1.95-2.253,12.227,12.227,0,0,0-4.824.558s1.6-1.862,5.371-1.017l2.086-1.721s-3.958-.521-5.632.057c0,0,1.93-1.648,6.2-.448l2.294-1.371a20.9,20.9,0,0,0-5.382-.464s2.122-1.142,6.054.094l1.643-.735s-2.472-.485-3.2-.563-.761-.276-.761-.276a8.547,8.547,0,0,1,4.641.522S848.291,300.955,848.228,300.736Z" transform="translate(-447.096 -172.593)" fill="#45a5bf" opacity="0.1"/>
    <path id="路径_259" data-name="路径 259" d="M621.2,259.1s4.563-19.341-9.538-19.409a3.387,3.387,0,0,0-3.817,1.126s1.006.214.323,2.122a9.281,9.281,0,0,0-.469,2.086,4.479,4.479,0,0,0,.621,2.779h0s1.319,5.893,9.908,9.585c0,0,1.69,1.919,2.2,1.94l-.834-3.541a5.991,5.991,0,0,1-4.4-.521s4.292.631,4.3,0c0-.13-.521-1.856-.521-1.856s-4.479,1.22-7.243-.767c0,0,5.011,1.439,7.05.109l-.939-2.566s-4.693,1.528-7.906-.615c0,0,5.293,1.325,7.66.073l-1.278-2.388s-4.589,1.4-7.264-.4c0,0,6.258.907,6.936-.125a12.955,12.955,0,0,0-1.924-2.519s-3.317.928-4.777-.256c0,0,4.25.162,4.349-.287,0,0-2.435-2.31-4.292-2.832a10.221,10.221,0,0,1,4.636,2.43,5.627,5.627,0,0,0-.97-3.061s1.9.626,1.564,3.65a12.988,12.988,0,0,1,1.883,2.3,12.263,12.263,0,0,0,.271-4.85s1.564,1.9.089,5.47l1.335,2.373s1.21-3.807.9-5.559c0,0,1.3,2.18-.615,6.185l.965,2.5a20.881,20.881,0,0,0,1.371-5.215s.767,2.284-1.126,5.95l.448,1.742s.9-2.352,1.1-3.051.4-.7.4-.7a8.541,8.541,0,0,1-1.3,4.485S620.975,259.13,621.2,259.1Z" transform="translate(-340.449 -143.304)" fill="#45a5bf" opacity="0.1"/>
    <path id="路径_260" data-name="路径 260" d="M529.7,285.133s-15.915-11.905-21.6.991a3.394,3.394,0,0,0-.49,3.953s.595-.84,2.086.553a9.131,9.131,0,0,0,1.742,1.272,4.474,4.474,0,0,0,2.8.521h0s5.924,1.142,12.745-5.277c0,0,2.435-.782,2.665-1.241l-3.593-.631a6.025,6.025,0,0,1-2.227,3.828s2.289-3.682,1.695-3.948c-.12-.057-1.914-.261-1.914-.261s-.667,4.6-3.588,6.336c0,0,3.322-4.021,2.91-6.419l-2.727-.146s-.464,4.9-3.718,7c0,0,3.322-4.323,3.129-6.993l-2.7.219s-.548,4.761-3.264,6.492c0,0,3.332-5.382,2.649-6.4a13.11,13.11,0,0,0-3.077.756s-.474,3.41-2.143,4.276c0,0,1.851-3.833,1.476-4.1,0,0-3.092,1.309-4.307,2.8a10.184,10.184,0,0,1,4.078-3.275,5.616,5.616,0,0,0-3.191-.334s1.324-1.491,3.942.026a13.166,13.166,0,0,1,2.868-.808,12.2,12.2,0,0,0-4.339-2.185s2.367-.678,5.053,2.086l2.706-.276s-3.009-2.607-4.735-3.045c0,0,2.519-.318,5.423,3.03l2.67.12a20.816,20.816,0,0,0-4.234-3.348s2.394.209,5,3.405l1.778.287s-1.8-1.763-2.362-2.221-.485-.652-.485-.652a8.568,8.568,0,0,1,3.593,2.983S529.634,285.347,529.7,285.133Z" transform="translate(-292.349 -162.742)" fill="#45a5bf" opacity="0.1"/>
    <path id="路径_261" data-name="路径 261" d="M631.312,73.021s-15.915-11.91-21.6.991a3.394,3.394,0,0,0-.49,3.953s.594-.84,2.086.553a9.276,9.276,0,0,0,1.747,1.267,4.469,4.469,0,0,0,2.8.521h0s5.924,1.142,12.745-5.283c0,0,2.435-.777,2.66-1.241l-3.593-.621a6,6,0,0,1-2.227,3.828s2.294-3.682,1.7-3.948c-.12-.057-1.914-.261-1.914-.261s-.688,4.61-3.609,6.336c0,0,3.317-4.021,2.91-6.419l-2.727-.146s-.469,4.9-3.718,7c0,0,3.322-4.323,3.129-6.993l-2.7.219s-.553,4.766-3.27,6.5c0,0,3.338-5.382,2.654-6.4a13.109,13.109,0,0,0-3.077.756s-.474,3.41-2.143,4.276c0,0,1.851-3.833,1.476-4.1,0,0-3.092,1.314-4.307,2.806a10.138,10.138,0,0,1,4.078-3.275,5.58,5.58,0,0,0-3.2-.334s1.33-1.491,3.948.026a12.879,12.879,0,0,1,2.868-.808,12.271,12.271,0,0,0-4.339-2.19s2.362-.673,5.048,2.086l2.706-.276s-3-2.607-4.735-3.051c0,0,2.519-.313,5.429,3.035l2.67.115a20.6,20.6,0,0,0-4.24-3.343s2.4.209,5.006,3.405l1.773.287s-1.8-1.742-2.368-2.19-.485-.647-.485-.647a8.552,8.552,0,0,1,3.593,2.983A22.512,22.512,0,0,0,631.312,73.021Z" transform="translate(-340.972 -61.239)" fill="#45a5bf" opacity="0.1"/>
    <path id="路径_262" data-name="路径 262" d="M749.345,94.48s-6.362-18.83-18.361-11.431a3.428,3.428,0,0,0-2.644,2.978s.965-.355,1.392,1.627a9.389,9.389,0,0,0,.714,2.039,4.516,4.516,0,0,0,2,2.029h0s4.234,4.3,13.5,2.879c0,0,2.446.74,2.894.485l-2.607-2.56a6,6,0,0,1-4.005,1.888s3.979-1.731,3.65-2.289c-.068-.11-1.429-1.293-1.429-1.293s-3.16,3.405-6.55,3.181c0,0,5.011-1.429,6.033-3.65L741.773,88.7s-3.16,3.765-7.035,3.65c0,0,5.215-1.674,6.534-3.989l-2.347-1.351s-3.129,3.614-6.372,3.5c0,0,5.8-2.54,5.814-3.77a13.037,13.037,0,0,0-2.962-1.121s-2.326,2.54-4.172,2.31c0,0,3.692-2.112,3.536-2.545,0,0-3.285-.673-5.136-.13a10.163,10.163,0,0,1,5.215-.391,5.626,5.626,0,0,0-2.446-2.086s1.94-.475,3.238,2.258a13.131,13.131,0,0,1,2.816.96,12.256,12.256,0,0,0-2.331-4.26s2.331.787,2.967,4.6l2.388,1.3s-.986-3.864-2.174-5.215c0,0,2.258,1.168,2.748,5.575l2.138,1.611a20.73,20.73,0,0,0-1.6-5.163s1.856,1.533,2.19,5.648l1.3,1.241s-.48-2.472-.678-3.171-.037-.746-.037-.746a8.6,8.6,0,0,1,1.267,4.5S749.162,94.615,749.345,94.48Z" transform="translate(-398.191 -67.612)" fill="#45a5bf" opacity="0.1"/>
    <path id="路径_263" data-name="路径 263" d="M672.274,108.215s-19.764-2.2-18.132,11.822a3.385,3.385,0,0,0,1.564,3.65s.089-1.043,2.086-.574a9.594,9.594,0,0,0,2.148.214,4.485,4.485,0,0,0,2.686-.954h0s5.689-2.018,8.344-11.014c0,0,1.7-1.9,1.663-2.42l-3.416,1.262a5.816,5.816,0,0,1,0,4.427s.109-4.333-.521-4.266c-.13,0-1.778.751-1.778.751s1.752,4.3.115,7.3c0,0,.824-5.152-.746-7.009l-2.425,1.252s2.086,4.459.339,7.921c0,0,.678-5.413-.85-7.608l-2.216,1.564s1.94,4.386.474,7.259c0,0,.151-6.331-.959-6.868a13.567,13.567,0,0,0-2.268,2.211s1.319,3.181.323,4.771c0,0-.349-4.24-.808-4.281,0,0-2,2.7-2.294,4.6a10.154,10.154,0,0,1,1.856-4.891,5.611,5.611,0,0,0-2.92,1.33s.386-1.956,3.41-1.976c0,0,1.643-2.039,2.086-2.148a12.26,12.26,0,0,0-4.85.313s1.695-1.783,5.418-.746l2.2-1.611s-3.968-.8-5.648-.282c0,0,2.013-1.564,6.216-.13l2.362-1.257a20.764,20.764,0,0,0-5.35-.735s2.174-1.043,6.039.4l1.679-.652s-2.446-.61-3.165-.725-.746-.313-.746-.313a8.578,8.578,0,0,1,4.61.751S672.31,108.434,672.274,108.215Z" transform="translate(-362.64 -80.419)" fill="#45a5bf" opacity="0.1"/>
    <path id="路径_264" data-name="路径 264" d="M1003.883,402.385s-19.753-2.2-18.121,11.806a3.385,3.385,0,0,0,1.565,3.65s.089-1.043,2.086-.579a9.02,9.02,0,0,0,2.148.214,4.448,4.448,0,0,0,2.686-.954h0s5.689-2.018,8.318-11.008c0,0,1.7-1.909,1.664-2.42l-3.416,1.257a5.83,5.83,0,0,1,0,4.432s.109-4.339-.521-4.266c-.13,0-1.778.746-1.778.746s1.752,4.3.115,7.3c0,0,.824-5.147-.746-7.009l-2.425,1.257s2.086,4.459.344,7.921c0,0,.673-5.413-.855-7.614l-2.216,1.564s1.94,4.386.474,7.254c0,0,.151-6.331-.96-6.863a13.77,13.77,0,0,0-2.268,2.211s1.325,3.181.323,4.772c0,0-.349-4.24-.808-4.281,0,0-2,2.7-2.294,4.6a10.152,10.152,0,0,1,1.856-4.891,5.564,5.564,0,0,0-2.92,1.33s.386-1.961,3.41-1.982c0,0,1.648-2.039,2.086-2.143a12.217,12.217,0,0,0-4.85.308s1.695-1.778,5.423-.741l2.19-1.611s-3.922-.74-5.627-.229c0,0,2.013-1.564,6.216-.136l2.362-1.252a20.763,20.763,0,0,0-5.35-.735s2.175-1.043,6.039.4l1.679-.657s-2.446-.61-3.165-.72-.746-.313-.746-.313a8.546,8.546,0,0,1,4.61.746S1003.935,402.609,1003.883,402.385Z" transform="translate(-521.328 -221.186)" fill="#45a5bf" opacity="0.1"/>
    <path id="路径_265" data-name="路径 265" d="M1061.793,437.765s-19.753-2.2-18.121,11.806a3.394,3.394,0,0,0,1.564,3.65s.089-1.043,2.086-.574a9.2,9.2,0,0,0,2.143.209,4.506,4.506,0,0,0,2.675-.949h0s5.684-2.018,8.312-11.014c0,0,1.705-1.9,1.663-2.42l-3.416,1.257a5.83,5.83,0,0,1,0,4.433s.109-4.333-.521-4.266c-.13,0-1.778.746-1.778.746s1.752,4.3.115,7.3c0,0,.824-5.147-.746-7l-2.425,1.252s2.086,4.459.344,7.921c0,0,.673-5.413-.855-7.608l-2.216,1.564s1.94,4.386.48,7.259c0,0,.146-6.336-.965-6.868a13.767,13.767,0,0,0-2.268,2.211s1.324,3.181.323,4.771c0,0-.349-4.24-.808-4.281,0,0-2,2.7-2.289,4.6a10.179,10.179,0,0,1,1.851-4.891,5.611,5.611,0,0,0-2.92,1.33s.391-1.961,3.416-1.976c0,0,1.643-2.039,2.086-2.148a12.26,12.26,0,0,0-4.85.313s1.695-1.783,5.423-.746l2.19-1.611s-3.922-.74-5.627-.229c0,0,2.013-1.564,6.216-.13l2.362-1.257a20.766,20.766,0,0,0-5.35-.735s2.174-1.043,6.039.4l1.679-.652s-2.446-.61-3.16-.725-.751-.313-.751-.313a8.578,8.578,0,0,1,4.61.751S1061.845,437.989,1061.793,437.765Z" transform="translate(-549.04 -238.117)" fill="#45a5bf" opacity="0.1"/>
    <path id="路径_266" data-name="路径 266" d="M929.252,135.273s-15.915-11.905-21.6.991a3.394,3.394,0,0,0-.49,3.953s.594-.84,2.086.553a9.13,9.13,0,0,0,1.742,1.272,4.48,4.48,0,0,0,2.8.521h0s5.924,1.142,12.75-5.277c0,0,2.43-.782,2.659-1.241l-3.583-.647a6.025,6.025,0,0,1-2.227,3.828s2.289-3.682,1.695-3.948c-.12-.057-1.909-.261-1.909-.261s-.673,4.6-3.593,6.336c0,0,3.322-4.021,2.91-6.419l-2.727-.146s-.464,4.9-3.718,7c0,0,3.327-4.323,3.129-6.993l-2.7.219s-.521,4.761-3.264,6.492c0,0,3.337-5.382,2.649-6.4a13.108,13.108,0,0,0-3.077.756s-.469,3.41-2.138,4.276c0,0,1.846-3.833,1.471-4.1,0,0-3.092,1.309-4.307,2.8a10.184,10.184,0,0,1,4.078-3.275,5.616,5.616,0,0,0-3.191-.334s1.33-1.491,3.948.026a13.11,13.11,0,0,1,2.863-.808,12.2,12.2,0,0,0-4.339-2.185s2.367-.678,5.053,2.086l2.706-.276s-3-2.607-4.735-3.045c0,0,2.519-.318,5.423,3.03l2.675.12a20.908,20.908,0,0,0-4.24-3.348s2.4.209,5,3.405l1.778.287s-1.8-1.763-2.362-2.221-.48-.61-.48-.61a8.573,8.573,0,0,1,3.588,2.983S929.184,135.487,929.252,135.273Z" transform="translate(-483.544 -91.03)" fill="#45a5bf" opacity="0.1"/>
    <path id="路径_267" data-name="路径 267" d="M954.613,292.091s-5.486-19.1-17.824-12.244a3.388,3.388,0,0,0-2.779,2.852s.98-.308,1.319,1.69a9.242,9.242,0,0,0,.626,2.086,4.479,4.479,0,0,0,1.909,2.128h0s4.036,4.485,13.35,3.483c0,0,2.409.845,2.868.615l-2.467-2.68a6,6,0,0,1-4.083,1.71s4.047-1.564,3.734-2.122c-.063-.115-1.366-1.361-1.366-1.361s-3.306,3.264-6.685,2.884c0,0,5.074-1.2,6.19-3.358l-2.086-1.763s-3.327,3.619-7.191,3.337c0,0,5.257-1.444,6.706-3.692l-2.284-1.455s-3.311,3.468-6.524,3.207c0,0,5.908-2.279,5.981-3.5a13.016,13.016,0,0,0-2.915-1.252s-2.435,2.43-4.286,2.117c0,0,3.786-1.945,3.65-2.383,0,0-3.254-.819-5.126-.365a10.174,10.174,0,0,1,5.215-.151,5.6,5.6,0,0,0-2.347-2.19s1.961-.391,3.129,2.4a13.011,13.011,0,0,1,2.769,1.085,12.2,12.2,0,0,0-2.138-4.36s2.295.887,2.759,4.725l2.326,1.413s-.813-3.911-1.94-5.288c0,0,2.2,1.267,2.5,5.689l2.086,1.705a20.687,20.687,0,0,0-1.361-5.215s1.789,1.617,1.935,5.736l1.241,1.3s-.365-2.493-.521-3.2,0-.808,0-.808a8.547,8.547,0,0,1,1.069,4.547S954.426,292.216,954.613,292.091Z" transform="translate(-496.61 -161.898)" fill="#45a5bf" opacity="0.1"/>
    <path id="路径_268" data-name="路径 268" d="M718.49,378.108s-10.654-16.781-20.546-6.737a3.373,3.373,0,0,0-1.867,3.52s.86-.574,1.747,1.252a8.927,8.927,0,0,0,1.179,1.8,4.454,4.454,0,0,0,2.425,1.5h0s5.136,3.171,13.793-.417c0,0,2.55.136,2.925-.214l-3.129-1.877a5.994,5.994,0,0,1-3.442,2.79s3.452-2.607,2.988-3.087c-.089-.094-1.695-.918-1.695-.918s-2.258,4.057-5.606,4.646c0,0,4.532-2.581,5-4.97l-2.5-1.1s-2.175,4.406-5.96,5.215c0,0,4.641-2.863,5.4-5.429l-2.607-.751s-2.2,4.26-5.356,4.912c0,0,5.027-3.848,4.751-5.048a12.952,12.952,0,0,0-3.129-.381s-1.653,3.019-3.52,3.238c0,0,3.087-2.931,2.832-3.317,0,0-3.353.13-5.022,1.1a10.148,10.148,0,0,1,4.975-1.617,5.6,5.6,0,0,0-2.863-1.444s1.768-.923,3.65,1.424a12.883,12.883,0,0,1,2.967.261,12.005,12.005,0,0,0-3.28-3.583s2.451.209,3.974,3.76l2.633.7s-1.883-3.52-3.348-4.526c0,0,2.467.594,3.995,4.761l2.461,1.043a20.784,20.784,0,0,0-2.779-4.631s2.169,1.043,3.468,4.959l1.564.9s-1.043-2.289-1.413-2.92-.224-.777-.224-.777a8.552,8.552,0,0,1,2.3,4.062S718.349,378.285,718.49,378.108Z" transform="translate(-382.73 -204.872)" fill="#45a5bf" opacity="0.1"/>
    <path id="路径_269" data-name="路径 269" d="M852.87,213.3s-10.132-17.1-20.337-7.368a3.391,3.391,0,0,0-1.971,3.463s.871-.553,1.705,1.3a9.014,9.014,0,0,0,1.121,1.846,4.428,4.428,0,0,0,2.378,1.564h0s5.032,3.327,13.8,0c0,0,2.545.214,2.931-.125l-3.061-1.971a6,6,0,0,1-3.525,2.68s3.53-2.519,3.087-2.993c-.094-.1-1.669-.975-1.669-.975s-2.383,3.989-5.736,4.474c0,0,4.61-2.441,5.147-4.808l-2.461-1.158s-2.31,4.344-6.122,5.037c0,0,4.73-2.717,5.564-5.256l-2.576-.834s-2.336,4.172-5.507,4.745c0,0,5.142-3.692,4.9-4.9a12.879,12.879,0,0,0-3.129-.48s-1.747,2.967-3.619,3.129c0,0,3.176-2.826,2.936-3.223,0,0-3.358.026-5.053.939a10.179,10.179,0,0,1,5.022-1.46,5.606,5.606,0,0,0-2.821-1.533s1.8-.871,3.65,1.533a13.209,13.209,0,0,1,2.957.355,12.473,12.473,0,0,0-3.165-3.682s2.44.282,3.854,3.88l2.607.782s-1.768-3.577-3.207-4.631c0,0,2.451.673,3.849,4.881l2.425,1.132a20.952,20.952,0,0,0-2.607-4.693s2.133,1.111,3.317,5.063l1.528.949s-.98-2.321-1.325-2.962-.2-.782-.2-.782a8.568,8.568,0,0,1,2.175,4.13S852.719,213.473,852.87,213.3Z" transform="translate(-447.092 -125.806)" fill="#45a5bf"/>
    <path id="路径_270" data-name="路径 270" d="M735.027,275.85s.522-19.868-13.282-17.068a3.4,3.4,0,0,0-3.515,1.883s1.043,0,.751,2.008a9.156,9.156,0,0,0-.031,2.159,4.459,4.459,0,0,0,1.173,2.607h0s2.487,5.5,11.671,7.363c0,0,2.039,1.538,2.55,1.455l-1.564-3.3a6.019,6.019,0,0,1-4.412.391s4.328-.256,4.208-.892c0-.13-.9-1.716-.9-1.716s-4.141,2.112-7.243.725c0,0,5.215.391,6.92-1.325l-1.455-2.31s-4.266,2.44-7.864,1c0,0,5.449.219,7.515-1.486l-1.737-2.086s-4.208,2.3-7.191,1.085c0,0,6.32-.381,6.779-1.533a13.528,13.528,0,0,0-2.4-2.086s-3.056,1.564-4.725.72c0,0,4.172-.7,4.2-1.163,0,0-2.853-1.768-4.777-1.9a10.152,10.152,0,0,1,5.032,1.439,5.6,5.6,0,0,0-1.564-2.8s1.987.224,2.258,3.233a12.963,12.963,0,0,1,2.315,1.877,12.2,12.2,0,0,0-.72-4.8s1.919,1.538,1.2,5.335l1.789,2.055s.407-3.974-.245-5.627c0,0,1.71,1.872.657,6.179l1.444,2.248a20.793,20.793,0,0,0,.287-5.392s1.21,2.086.1,6.054l.793,1.617s.4-2.487.454-3.212.25-.772.25-.772a8.562,8.562,0,0,1-.36,4.657S734.8,275.917,735.027,275.85Z" transform="translate(-393.353 -152.399)" fill="#45a5bf"/>
    <ellipse id="椭圆_73" data-name="椭圆 73" cx="14.043" cy="2.373" rx="14.043" ry="2.373" transform="translate(350.45 371.161)" fill="#45a5bf" opacity="0.1"/>
    <ellipse id="椭圆_74" data-name="椭圆 74" cx="14.043" cy="2.373" rx="14.043" ry="2.373" transform="translate(299.257 407.184)" fill="#45a5bf" opacity="0.1"/>
    <ellipse id="椭圆_75" data-name="椭圆 75" cx="14.043" cy="2.373" rx="14.043" ry="2.373" transform="translate(34.525 388.729)" fill="#45a5bf" opacity="0.1"/>
    <ellipse id="椭圆_76" data-name="椭圆 76" cx="14.043" cy="2.373" rx="14.043" ry="2.373" transform="translate(405.773 404.812)" fill="#45a5bf" opacity="0.1"/>
    <ellipse id="椭圆_77" data-name="椭圆 77" cx="20.968" cy="3.546" rx="20.968" ry="3.546" transform="translate(413.47 373.534)" fill="#45a5bf"/>
    <path id="路径_271" data-name="路径 271" d="M927.2,758.138a6.055,6.055,0,0,0,2-3.014,2.679,2.679,0,0,0-1.392-3.072c-1.283-.49-2.654.4-3.7,1.293s-2.227,1.924-3.588,1.737a5.476,5.476,0,0,0,1.69-5.116,2.144,2.144,0,0,0-.469-1.043c-.714-.761-2-.433-2.858.167-2.712,1.909-3.468,5.59-3.483,8.907a16.739,16.739,0,0,1-.047-3.65,3.745,3.745,0,0,0-1.382-3.244,4.124,4.124,0,0,0-2.086-.521,4.356,4.356,0,0,0-3.41.97c-1.043,1.106-.767,2.967.13,4.172a13.485,13.485,0,0,0,3.53,2.826,7.89,7.89,0,0,1,2.524,2.4,2.454,2.454,0,0,1,.182.428h7.645A21.091,21.091,0,0,0,927.2,758.138Z" transform="translate(-484.07 -386.862)" fill="#45a5bf"/>
    <path id="路径_272" data-name="路径 272" d="M170.29,779.9s8-.245,10.43-1.966,12.322-3.77,12.922-1.012,12.036,13.71,2.993,13.783-21.01-1.408-23.419-2.879S170.29,779.9,170.29,779.9Z" transform="translate(-131.15 -399.826)" fill="#a8a8a8"/>
    <path id="路径_273" data-name="路径 273" d="M196.786,793.706c-9.042.073-21.01-1.408-23.419-2.879-1.836-1.116-2.566-5.126-2.811-6.977h-.266s.521,6.461,2.915,7.926,14.377,2.951,23.419,2.879c2.607,0,3.51-.949,3.463-2.326C199.722,793.169,198.726,793.69,196.786,793.706Z" transform="translate(-131.15 -403.787)" opacity="0.2"/>
  </g>
</svg>
