<svg xmlns="http://www.w3.org/2000/svg" width="499.833" height="364.69" viewBox="0 0 499.833 364.69">
  <g id="组_69" data-name="组 69" transform="translate(-73.963 -19.793)">
    <path id="路径_115" data-name="路径 115" d="M631.891,775.968c0,3.6-12.417,6.981-34.084,9.884H187.978a103.259,103.259,0,0,1-51.936-13.884l-.243-.137c6.227-2.269,17.467-4.385,32.765-6.3h0l.686-.084c6.86-.839,14.527-1.636,22.907-2.391A5.223,5.223,0,0,0,192.8,763h0q9.973-.887,21.219-1.662c.237,0,.47-.042.707-.053q4.338-.311,8.855-.591h0l1.161-.074c21.926-1.361,46.849-2.449,73.877-3.166h.032q5.678-.158,11.477-.28,6.448-.153,13.055-.269c3.361-.074,6.765-.127,10.179-.179h.079c15.4-.232,31.319-.348,47.593-.348,40.242,0,78.278.734,111.982,2.053h.095c5.182.2,10.269.422,15.229.649l4.222.2q8.4.4,16.359.86h0C591.343,763.694,631.891,769.462,631.891,775.968Z" transform="translate(-61.836 -401.369)" fill="#45a5bf" opacity="0.1"/>
    <g id="组_66" data-name="组 66" transform="translate(336.038 210.617)" opacity="0.2">
      <path id="路径_116" data-name="路径 116" d="M681.277,745.025a10.014,10.014,0,0,1-.2,1.694q-5.509-.876-11.082-1.583v-.454a8.908,8.908,0,0,1,1.319-4.475,4.909,4.909,0,0,1,8.934.274A8.9,8.9,0,0,1,681.277,745.025Z" transform="translate(-650.18 -603.052)" fill="#45a5bf"/>
      <ellipse id="椭圆_49" data-name="椭圆 49" cx="7.393" cy="5.646" rx="7.393" ry="5.646" transform="translate(19.881 139.99) rotate(-88.19)" fill="#45a5bf"/>
      <ellipse id="椭圆_50" data-name="椭圆 50" cx="7.393" cy="5.646" rx="7.393" ry="5.646" transform="translate(20.169 130.956) rotate(-88.19)" fill="#45a5bf"/>
      <ellipse id="椭圆_51" data-name="椭圆 51" cx="7.393" cy="5.646" rx="7.393" ry="5.646" transform="translate(20.451 121.921) rotate(-88.19)" fill="#45a5bf"/>
      <ellipse id="椭圆_52" data-name="椭圆 52" cx="7.393" cy="5.646" rx="7.393" ry="5.646" transform="translate(20.734 112.887) rotate(-88.19)" fill="#45a5bf"/>
      <path id="路径_117" data-name="路径 117" d="M639.844,525.914a26.2,26.2,0,0,1-2.005-3.166l14.913-1.968-16.052-.385a27.113,27.113,0,0,1,.164-21.446L658.033,510.8l-19.393-15.219a27.06,27.06,0,1,1,43.714,31.662,26.806,26.806,0,0,1,2.929,5.029l-19.572,9.393,20.754-6.243a27.092,27.092,0,0,1-5.182,25.282,27.06,27.06,0,1,1-42.511-1.34,27.06,27.06,0,0,1,1.055-33.445Z" transform="translate(-632.44 -482.747)" fill="#45a5bf"/>
      <path id="路径_118" data-name="路径 118" d="M687.616,598.737a26.912,26.912,0,0,1-6.332,16.538,27.06,27.06,0,1,1-42.511-1.34C635.306,609.222,687.711,595.7,687.616,598.737Z" transform="translate(-632.44 -537.322)" fill="#45a5bf" opacity="0.1"/>
    </g>
    <g id="组_67" data-name="组 67" transform="translate(255.829 210.617)" opacity="0.2">
      <path id="路径_119" data-name="路径 119" d="M529.277,745.025a10.027,10.027,0,0,1-.2,1.694q-5.509-.876-11.082-1.583v-.454a8.907,8.907,0,0,1,1.319-4.475,4.909,4.909,0,0,1,8.934.274A8.9,8.9,0,0,1,529.277,745.025Z" transform="translate(-498.18 -603.052)" fill="#45a5bf"/>
      <ellipse id="椭圆_53" data-name="椭圆 53" cx="7.393" cy="5.646" rx="7.393" ry="5.646" transform="translate(19.875 139.992) rotate(-88.19)" fill="#45a5bf"/>
      <ellipse id="椭圆_54" data-name="椭圆 54" cx="7.393" cy="5.646" rx="7.393" ry="5.646" transform="translate(20.162 130.958) rotate(-88.19)" fill="#45a5bf"/>
      <ellipse id="椭圆_55" data-name="椭圆 55" cx="7.393" cy="5.646" rx="7.393" ry="5.646" transform="translate(20.445 121.923) rotate(-88.19)" fill="#45a5bf"/>
      <ellipse id="椭圆_56" data-name="椭圆 56" cx="7.393" cy="5.646" rx="7.393" ry="5.646" transform="translate(20.728 112.889) rotate(-88.19)" fill="#45a5bf"/>
      <path id="路径_120" data-name="路径 120" d="M487.844,525.914a26.21,26.21,0,0,1-2.005-3.166l14.913-1.968-16.052-.385a27.113,27.113,0,0,1,.164-21.446L506.033,510.8l-19.393-15.219a27.06,27.06,0,1,1,43.714,31.662,26.808,26.808,0,0,1,2.929,5.029l-19.572,9.393,20.754-6.243a27.092,27.092,0,0,1-5.182,25.282,27.06,27.06,0,1,1-42.511-1.34,27.06,27.06,0,0,1,1.055-33.445Z" transform="translate(-480.44 -482.747)" fill="#45a5bf"/>
      <path id="路径_121" data-name="路径 121" d="M535.616,598.737a26.913,26.913,0,0,1-6.332,16.538,27.06,27.06,0,1,1-42.511-1.34C483.306,609.222,535.711,595.7,535.616,598.737Z" transform="translate(-480.44 -537.322)" fill="#45a5bf" opacity="0.1"/>
    </g>
    <g id="组_68" data-name="组 68" transform="translate(446.192 85.14)" opacity="0.2">
      <path id="路径_122" data-name="路径 122" d="M935.1,749.672a19.7,19.7,0,0,1-.385,3.208q-10.607-1.694-21.366-3.029v-.871a17.149,17.149,0,0,1,2.543-8.617c2.111-3.309,5.277-5.383,8.776-5.277s6.543,2.38,8.443,5.8a17.167,17.167,0,0,1,1.989,8.781Z" transform="translate(-875.269 -476.45)" fill="#45a5bf"/>
      <ellipse id="椭圆_57" data-name="椭圆 57" cx="14.237" cy="10.876" rx="14.237" ry="10.876" transform="translate(38.218 269.394) rotate(-88.19)" fill="#45a5bf"/>
      <ellipse id="椭圆_58" data-name="椭圆 58" cx="14.237" cy="10.876" rx="14.237" ry="10.876" transform="translate(38.766 252) rotate(-88.19)" fill="#45a5bf"/>
      <ellipse id="椭圆_59" data-name="椭圆 59" cx="14.237" cy="10.876" rx="14.237" ry="10.876" transform="translate(39.32 234.607) rotate(-88.19)" fill="#45a5bf"/>
      <ellipse id="椭圆_60" data-name="椭圆 60" cx="14.237" cy="10.876" rx="14.237" ry="10.876" transform="translate(39.26 216.462) rotate(-88.282)" fill="#45a5bf"/>
      <path id="路径_123" data-name="路径 123" d="M855.4,327.974a52.384,52.384,0,0,1-3.857-6.084l28.707-3.789-30.9-.744a52.189,52.189,0,0,1,.306-41.287l40.764,22.8-37.329-29.3a52.094,52.094,0,1,1,84.151,60.98,52.09,52.09,0,0,1,5.641,9.683L905.2,358.332,945.154,346.3a52.11,52.11,0,0,1-9.937,48.627,52.094,52.094,0,1,1-81.845-2.58,52.11,52.11,0,0,1,2.026-64.379Z" transform="translate(-841.186 -244.965)" fill="#45a5bf"/>
      <path id="路径_124" data-name="路径 124" d="M947.395,468.073a51.892,51.892,0,0,1-12.137,31.841,52.094,52.094,0,1,1-81.845-2.58C846.69,488.252,947.58,462.232,947.395,468.073Z" transform="translate(-841.205 -349.941)" fill="#45a5bf" opacity="0.1"/>
    </g>
    <path id="路径_125" data-name="路径 125" d="M157.82,372.868l5.536-.016h7.8l9.868-160.3L278.752,49.475,274.5,44.916V33.37L168.817,208.77Z" transform="translate(-66.384 -13.577)" fill="#f1c0c0"/>
    <path id="路径_126" data-name="路径 126" d="M169.43,383.186h7.214l9.868-160.3L284.235,59.809l-4.248-4.559-100.8,165.19Z" transform="translate(-71.868 -23.911)" opacity="0.1"/>
    <path id="路径_127" data-name="路径 127" d="M126.91,669.228l253.214,19.377.216.016L625.4,673.55l.185-.01V663.191L355.56,658.236l-225.278-.216h-1.646l-.179,1.161Z" transform="translate(-51.785 -308.602)" fill="#f1c0c0"/>
    <path id="路径_128" data-name="路径 128" d="M126.91,669.228l253.214,19.377.216.016L625.4,673.55l.185-.2v-9.942h-.216L380.124,671.6,130.282,658.02h-.037l-.443.29-1.346.871Z" transform="translate(-51.785 -308.602)" opacity="0.1"/>
    <path id="路径_129" data-name="路径 129" d="M126.91,669.488l253.214,19.377V671.857L129.8,658.57l-1.346.871Z" transform="translate(-51.785 -308.862)" opacity="0.1"/>
    <path id="路径_130" data-name="路径 130" d="M378.88,44.808,490.514,164.627l-3.451,210.761,9.483,1.145.158.021h9.483l1.135-202.877L716.357,243.5l3.525,124.325,7.631.855,2.586.29-5.984-134.092L505.6,158.162,385.777,33.6h-6.9Z" transform="translate(-170.792 -13.685)" fill="#f1c0c0"/>
    <path id="路径_131" data-name="路径 131" d="M620.65,291.7l.86,3.879L830.546,365.4l3.525,124.325,7.631.855-5.984-127.765Z" transform="translate(-284.981 -135.587)" opacity="0.1"/>
    <path id="路径_132" data-name="路径 132" d="M378.88,44.808,490.514,164.627l-3.451,210.761,9.483,1.145,2.586-218.8L378.88,33.6Z" transform="translate(-170.792 -13.685)" opacity="0.1"/>
    <path id="路径_133" data-name="路径 133" d="M621.42,439.738l76.669,15.1.026.005L832.4,481.294l6.148-2.464-.021-.433-.4-8.575L621.5,426.05Z" transform="translate(-285.345 -199.042)" fill="#f1c0c0"/>
    <path id="路径_134" data-name="路径 134" d="M766.76,480.61l134.282,26.453,6.148-2.464-.021-.433Z" transform="translate(-353.99 -224.811)" opacity="0.1"/>
    <path id="路径_135" data-name="路径 135" d="M776.49,350.56l2.074,114.161,1.071,58.569,9.44-.317,5.942-.2L793.17,352.212l-4.095-1.361-.9-.29Z" transform="translate(-358.585 -163.387)" fill="#f1c0c0"/>
    <path id="路径_136" data-name="路径 136" d="M776.65,350.51v.026L778.639,464.7l1.071,58.569,9.44-.317V350.51Z" transform="translate(-358.661 -163.364)" opacity="0.1"/>
    <path id="路径_137" data-name="路径 137" d="M493.422,487.065A12.027,12.027,0,0,1,495,488.094a10.473,10.473,0,0,1,1.583,1.736c2.264,2.929,4.353,6.332,4.132,10.026a4.079,4.079,0,0,1-1.177,2.9,5.274,5.274,0,0,1-3.5.834,7.449,7.449,0,0,1-3.879-.686c-1.15-.686-2.111-2.021-3.472-1.989a1.776,1.776,0,0,1-.58,0c-.47-.153-.565-.77-.871-1.161-.528-.7-1.641-.528-2.47-.222s-1.747.765-2.565.412a2.664,2.664,0,0,1-1.113-1.113c-1.958-3.166-2.375-6.971-2.744-10.649-.227-2.237-1.958-9.868,2.818-8.132,2.111.76,4.084,2.28,6.005,3.393Z" transform="translate(-223.393 -270.737)" fill="#3f3d56"/>
    <path id="路径_138" data-name="路径 138" d="M497.541,492.428a2.354,2.354,0,0,0,2.9-.116,4.364,4.364,0,0,0,1.409-2.733c.528-.164.8.528,1.135.95.591.718,1.794.707,2.332,1.472.375.528.29,1.261.554,1.857.343.77,1.193,1.171,1.773,1.794a6.111,6.111,0,0,1,1.161,2.317l.865,2.6a12.833,12.833,0,0,1,.792,3.361,4.353,4.353,0,0,1-1,3.214c-1.161,1.251-3.066,1.383-4.749,1.346a6.109,6.109,0,0,1-1.668-.2,4.733,4.733,0,0,1-2.844-3.483,43.97,43.97,0,0,1-.586-4.654,18.24,18.24,0,0,0-1.319-4.422c-.464-1.1-1.741-2.733-1.72-3.9C496.95,491.831,497.224,492.18,497.541,492.428Z" transform="translate(-232.23 -275.345)" fill="#3f3d56"/>
    <path id="路径_139" data-name="路径 139" d="M495.557,478.782a8.714,8.714,0,0,1-.427-2.317,10.085,10.085,0,0,1,1.451-4.485l-6.032.818a2.671,2.671,0,0,0-1.952.855,2.111,2.111,0,0,0,0,1.947,9.95,9.95,0,0,1,.718,1.884,9.409,9.409,0,0,0,.2,1.694,3.587,3.587,0,0,0,.776,1.092,36.584,36.584,0,0,1,4.306,6.4c-.037-.063,3.636-2.908,3.488-3.836-.084-.528-1.145-1.161-1.483-1.668A8.492,8.492,0,0,1,495.557,478.782Z" transform="translate(-228.352 -267.045)" fill="#be6f72"/>
    <path id="路径_140" data-name="路径 140" d="M490.855,358.04v5.2L401.848,380.6l-4.617,2.8H381.3v-2.929l87.45-21.129Z" transform="translate(-171.935 -166.92)" fill="#f1c0c0"/>
    <path id="路径_141" data-name="路径 141" d="M490.855,367.89l-89.006,17.361-4.617,2.8H381.3l88.1-18.854Z" transform="translate(-171.935 -171.572)" opacity="0.1"/>
    <path id="路径_142" data-name="路径 142" d="M451.312,723.177a6.9,6.9,0,0,0-8.39-1.784,2.211,2.211,0,0,0-.77.6c-.528.739-.19,1.757-.142,2.67.121,2.227-1.652,4.037-3.245,5.594a7.673,7.673,0,0,0-2.111,2.86,2.68,2.68,0,0,0,.934,3.166,3.891,3.891,0,0,0,1.446.4,15.606,15.606,0,0,0,5.119.142A5.545,5.545,0,0,0,448.215,734a2.982,2.982,0,0,1,.681-1.124c.929-.733,2.353.127,3.409-.4.871-.433.908-1.113.918-2.01C453.254,727.99,452.885,725.182,451.312,723.177Z" transform="translate(-203.853 -384.503)" fill="#45a5bf"/>
    <path id="路径_143" data-name="路径 143" d="M478.355,719.6a17.374,17.374,0,0,1,.823,5.4,5.209,5.209,0,0,1-.491,3.076,4.2,4.2,0,0,1-2.749,1.583c-2.2.454-4.749.026-6.169-1.72a6.509,6.509,0,0,1-1.113-4.9c.169-1.419.528-3.082-.491-4.09-.264-.269-.607-.459-.85-.749a2.514,2.514,0,0,1-.158-2.406,10.452,10.452,0,0,0,.828-2.38c.042-.39,7.145.275,7.8.6.892.438.755,1.171,1.024,2.058C477.184,717.3,477.9,718.416,478.355,719.6Z" transform="translate(-218.231 -381.019)" fill="#45a5bf"/>
    <path id="路径_144" data-name="路径 144" d="M460.395,580.12c1.393.9,1.931,2.675,2.148,4.322.6,4.512-.449,9.071-.528,13.625-.074,6.38,1.773,12.876.2,19.055-.945,3.694-.142,7.915-1.029,11.646-.264,1.108-.749,2.153-1,3.261a14.229,14.229,0,0,0,.77,7.261,7.5,7.5,0,0,1,.448,1.968,7.081,7.081,0,0,1-.77,2.976l-3.166,7.488c-.354.839-1.747.976-2.638,1.087-1.678.2-3.551.343-4.886-.7s-1.657-2.781-1.863-4.406a67.541,67.541,0,0,1-.528-9.409,7.752,7.752,0,0,0-.216-2.443,21.407,21.407,0,0,1-1.1-2.638c-.222-1.235.406-2.449.639-3.694a11.129,11.129,0,0,0-.053-3.425c-.206-1.689-.443-3.377-.712-5.055-.38-2.348.164-4.665.528-7.018a19.352,19.352,0,0,0-.528-6.659,18.356,18.356,0,0,1-.66,5.277c-.28.839-.681,1.641-.923,2.5-1.082,3.836,1.224,7.863.9,11.836-.153,1.857-.881,3.694-.675,5.525a18.645,18.645,0,0,0,1.193,3.847,4.986,4.986,0,0,1,0,3.931c-1.715,3.24-.433,7.646,1.1,10.971a14.807,14.807,0,0,1,.813,1.826c.454,1.5.074,3.108.2,4.67a2.945,2.945,0,0,1-2.475-.744c-.232-.243-.422-.528-.649-.781a6.443,6.443,0,0,0-2.206-1.377,2.9,2.9,0,0,0-1.583-.364,3.167,3.167,0,0,0-1.5.934,14.738,14.738,0,0,1-1.657,1.261,1.963,1.963,0,0,1-.844.375.744.744,0,0,1-.776-.4.94.94,0,0,1-.058-.274,41.772,41.772,0,0,1-.311-4.8c0-2.76-3.3-4.66-3.72-7.388-.332-2.2.285-4.443.079-6.659a32.381,32.381,0,0,1-.4-3.4c0-.739.169-1.462.227-2.2a16.416,16.416,0,0,0-.037-2.443l-.164-2.549a22.025,22.025,0,0,0-1.325-7.388,25.1,25.1,0,0,1-2.058-8.485c-.106-1.847-.037-3.694-.248-5.546a27.311,27.311,0,0,1-.491-5.013c.1-1.3.528-2.554.628-3.852.206-2.5-.744-4.923-1.488-7.314s-1.293-5.039-.317-7.345a2.411,2.411,0,0,1,.675-.982,2.946,2.946,0,0,1,1.245-.464,96.628,96.628,0,0,1,27.556-1.757A9.15,9.15,0,0,1,460.395,580.12Z" transform="translate(-198.967 -317.35)" fill="#3f3d56"/>
    <circle id="椭圆_61" data-name="椭圆 61" cx="8.454" cy="8.454" r="8.454" transform="translate(223.016 189.816)" fill="#be6f72"/>
    <path id="路径_145" data-name="路径 145" d="M428.261,471.945a3.018,3.018,0,0,1,0,1.472,3.334,3.334,0,0,1-.554.929A23.85,23.85,0,0,1,425,477.29a4.9,4.9,0,0,0,2.528,2.5,14.675,14.675,0,0,0,3.488,1,3.657,3.657,0,0,0,3.419-.591l4.7-2.813a9.382,9.382,0,0,0,1.952-1.409,4.807,4.807,0,0,0,1.361-3.3.908.908,0,0,0-.169-.623,1.109,1.109,0,0,0-.644-.269,5.723,5.723,0,0,1-3.694-3.224,17.076,17.076,0,0,1-1.282-4.892l-5.008,2.638c-.744.4-1.483.792-2.253,1.135-.491.222-1.483.406-1.831.855C426.9,469.116,428.087,470.947,428.261,471.945Z" transform="translate(-198.427 -263.115)" fill="#be6f72"/>
    <path id="路径_146" data-name="路径 146" d="M423.488,481.759a5.567,5.567,0,0,0-1.62,2.19,5.706,5.706,0,0,0,.3,3.214,95.884,95.884,0,0,1,3.166,13.609c.443,3.166.607,6.38.823,9.583.443,6.533,1.087,16.95,1.947,23.44,3.166.143,6.253-.781,9.393-1.119,5.868-.623,11.91.8,17.657-.528-1.393-5.5-2.786-14.9-4.179-20.4a38.927,38.927,0,0,1-1.277-6.623c-.121-1.609-.047-3.224-.026-4.844.047-3.166-.127-6.332-.3-9.5a60.267,60.267,0,0,0-1.277-11,2.048,2.048,0,0,0-.612-1.208,2.479,2.479,0,0,0-1.842-.164,8.011,8.011,0,0,1-5.477-1.3c-.7-.475-1.631-1.055-2.28-.528a2.269,2.269,0,0,0-.528,1.124,5.62,5.62,0,0,1-3.3,3.256,16.533,16.533,0,0,1-4.675.96,2.3,2.3,0,0,1-1.451-.164c-.749-.459-.8-2.111-1.747-2.222C425.345,479.443,424.047,481.226,423.488,481.759Z" transform="translate(-196.883 -269.12)" fill="#3f3d56"/>
    <path id="路径_147" data-name="路径 147" d="M427.591,494.959c-1.947-1.863-2.8-4.565-4.222-6.86a15.271,15.271,0,0,0-3.646-4.01,10.877,10.877,0,0,1-1.984-1.683c-.5-.617-.881-1.441-1.641-1.678a1.984,1.984,0,0,0-1.778.491,17.491,17.491,0,0,0-1.319,1.4c-2.237,2.317-6.169,2.638-7.942,5.319a4.358,4.358,0,0,0-.945,1.979,15.335,15.335,0,0,0,2.818,11.029,3.747,3.747,0,0,0,1.953,1.583,6.11,6.11,0,0,0,.38,2.9,77.612,77.612,0,0,0,3.594,9.789,23.675,23.675,0,0,0-.707,3.794c-.369,3.224-.026,6.5-.375,9.725-.285,2.638-1.055,5.208-1.082,7.852,0,.422.037.923.4,1.14a1.214,1.214,0,0,0,.628.132l6.491.2a52.684,52.684,0,0,0,11.282-.475,4.7,4.7,0,0,0,1.419-.448c1.256-.7,1.673-2.285,1.873-3.694a32.2,32.2,0,0,0,.311-5.52c.786,2.485,1.72,5.055,4.095,6.132a9.188,9.188,0,0,0,4.069.491,76.615,76.615,0,0,0,8.86-.913,1.166,1.166,0,0,0,1.293-1.356l.032-2.881c.063-5.852-1.388-11.446-1.953-17.271a37.544,37.544,0,0,0-.612-5.493c-.185-.755-.454-1.493-.617-2.253a16.106,16.106,0,0,1-.264-2.253l-.412-5.8c-.2-2.686-.475-5.277-.681-7.958a38.52,38.52,0,0,0-1.129-7.736c-.459-1.583-1.414-3.377-3.066-3.573a6.32,6.32,0,0,0-2.575.554,10.406,10.406,0,0,1-6.332-.026,8.915,8.915,0,0,0-1.974-.528,1.937,1.937,0,0,0-1.8.749,2.707,2.707,0,0,0-.28,1.33A70.385,70.385,0,0,1,427.591,494.959Z" transform="translate(-188.501 -269.433)" fill="#45a5bf"/>
    <path id="路径_148" data-name="路径 148" d="M419.521,504.357c-2.433-2.565-4.929-5.177-8.063-6.807a6.441,6.441,0,0,0-4.005-.887,3,3,0,0,0-2.575,2.818,18.231,18.231,0,0,0,.728,2.464c.19.95-.084,1.963.211,2.881a4.877,4.877,0,0,0,1.055,1.62l3.736,4.427a24.049,24.049,0,0,0,5.2,5,7.821,7.821,0,0,0,6.913.966,8.5,8.5,0,0,0,3.789-3.478c.929-1.477,1.583-3.092,2.454-4.617a22.927,22.927,0,0,1,5.277-6.4,5.862,5.862,0,0,1-3.166-1.583,5.23,5.23,0,0,1-.5-.908L429.722,498a2.111,2.111,0,0,0-1.583.6,13.28,13.28,0,0,1-1.177,1.2c-.744.559-1.752.712-2.427,1.351a6.435,6.435,0,0,0-.707.887,5.921,5.921,0,0,1-4.306,2.322Z" transform="translate(-188.922 -278.673)" fill="#3f3d56"/>
    <path id="路径_149" data-name="路径 149" d="M455.873,476.963c1.831-3.34,1.747-7.345,2.269-11.119a5.076,5.076,0,0,1,1.008-2.76c1.055-1.193,2.918-1.208,4.512-1.055.47.053,1.055.274,1.029.744a.95.95,0,0,1-.237.449,12.554,12.554,0,0,0-2.607,6.923c.828.575,2.111-.607,2.908,0,.528.443.285,1.319-.032,1.952q-1.1,2.2-2.274,4.369a14.029,14.029,0,0,1-2.412,3.478c-.67.644-1.456,1.15-2.137,1.784-1.583,1.483-2.538,3.578-4.174,5.024a.855.855,0,0,1-.528.269.887.887,0,0,1-.554-.248,8,8,0,0,1-1.995-2.412c-.623-1.15-.528-1.488.454-2.3A17.442,17.442,0,0,0,455.873,476.963Z" transform="translate(-210.356 -262.314)" fill="#be6f72"/>
    <path id="路径_150" data-name="路径 150" d="M417.973,500.684c.317.2.707.417,1.055.253a1.1,1.1,0,0,0,.354-.343,12.418,12.418,0,0,0,1.5-2.607,1,1,0,0,0,.111-.422c0-.338-.3-.586-.58-.781a21.508,21.508,0,0,0-4.8-2.28,9.9,9.9,0,0,0-4.327-.855,4.127,4.127,0,0,0-2.886,1.467c-1.055,1.356.712,1.768,1.821,2.259C412.785,498.541,415.561,499.217,417.973,500.684Z" transform="translate(-190.434 -277.269)" fill="#6c63ff"/>
    <path id="路径_151" data-name="路径 151" d="M423.672,519.715a.776.776,0,0,0,.222.665c.153-.749-.047-1.541.111-2.3.232-1.135,1.335-1.989,1.43-3.129C423.414,514.559,423.688,518.491,423.672,519.715Z" transform="translate(-197.796 -287.329)" opacity="0.1"/>
    <path id="路径_152" data-name="路径 152" d="M569.125,358.04v5.2l-21.456,1.3-.649-5.2Z" transform="translate(-250.206 -166.92)" opacity="0.2"/>
    <path id="路径_153" data-name="路径 153" d="M417.552,450.555c1.34-1.092.565-3.383,1.472-4.85a4.712,4.712,0,0,1,2.3-1.583,10.443,10.443,0,0,1,3.351-.929,3.889,3.889,0,0,1,3.166,1.166c.343.391.575.865.9,1.272a3.43,3.43,0,0,0,3.324,1.15c.7-.158,1.43-.691,1.383-1.409a1.99,1.99,0,0,0-.633-1.129l-1.509-1.673c-1.715-1.9-3.62-3.915-6.137-4.39a10.528,10.528,0,0,0-5.235.7c-.681.227-1.446.565-1.636,1.256-.127.475.063.992-.047,1.472-.216.955-1.441,1.277-2.011,2.079s-.4,1.752-.559,2.638a23.081,23.081,0,0,0-.7,2.67c-.037.554.243,1.583.865,1.784S417.167,449.9,417.552,450.555Z" transform="translate(-193.692 -251.029)" fill="#3f3d56"/>
    <path id="路径_154" data-name="路径 154" d="M432.527,440.736a15.832,15.832,0,0,0-2.807-6.417,11.245,11.245,0,0,0-5-3.968,7.155,7.155,0,0,0-6.222.491,9.034,9.034,0,0,0-3.108,3.921c-1.367,2.945-1.873,6.543-.285,9.372.633-.77,1.72-.422,2.681-.7a27.963,27.963,0,0,0,3.367-1.646C424.612,440.261,428.834,441.5,432.527,440.736Z" transform="translate(-193.29 -247.151)" fill="#fed253"/>
    <path id="路径_155" data-name="路径 155" d="M417.388,447.6a3.224,3.224,0,0,1,.475-2.728.343.343,0,0,1,.28-.127.364.364,0,0,1,.216.19,11.812,11.812,0,0,1,.992,1.942,2.016,2.016,0,0,0-2.111.818" transform="translate(-194.762 -254.184)" opacity="0.1"/>
    <path id="路径_156" data-name="路径 156" d="M440.668,442.732l-.19-1.884a.86.86,0,0,1,.037-.464.6.6,0,0,1,.77-.211,1.584,1.584,0,0,1,.617.617,11.081,11.081,0,0,1,1.087,2.148,6.385,6.385,0,0,0-2.57.032" transform="translate(-205.71 -251.992)" opacity="0.1"/>
    <path id="路径_157" data-name="路径 157" d="M418.379,502.21v4.306l-3.636.243H395.62V502.21Z" transform="translate(-178.698 -235.012)" opacity="0.1"/>
    <path id="路径_158" data-name="路径 158" d="M364.263,435.289v4.549H341.5L281.04,364.1V360.52h12.675Z" transform="translate(-124.582 -168.091)" fill="#f1c0c0"/>
    <path id="路径_159" data-name="路径 159" d="M364.263,435.289v4.549H341.5L281.04,364.1V360.52h12.675Z" transform="translate(-124.582 -168.091)" opacity="0.1"/>
    <path id="路径_160" data-name="路径 160" d="M364.263,435.289v4.549H341.5L281.04,364.1V360.52l60.79,74.769Z" transform="translate(-124.582 -168.091)" opacity="0.1"/>
    <path id="路径_161" data-name="路径 161" d="M301.507,730.634a1.583,1.583,0,0,1-1.383,1.863,9.4,9.4,0,0,0-4.063,2.111c-1.04,1.124-1.245,3.208,0,4.121a4.007,4.007,0,0,0,2.111.575,14.3,14.3,0,0,0,7.05-.881c1.551-.718,3.013-1.942,4.718-1.831.881.053,1.821.464,2.607.063s1.008-1.52,1.013-2.454a18.167,18.167,0,0,0-.871-5.747c-.079-.253-3.435-.448-3.836-.528l-4.068-.528c-.77-.1-2.433-.681-3.04-.037S301.507,729.869,301.507,730.634Z" transform="translate(-137.123 -387.522)" fill="#45a5bf"/>
    <path id="路径_162" data-name="路径 162" d="M353.034,701.856a12.742,12.742,0,0,0,.834,2.765c.565,1.435,1.288,2.96,2.67,3.657a4.766,4.766,0,0,0,4.074-.2,3.355,3.355,0,0,0,1.356-1.029,4.084,4.084,0,0,0,.528-2.369,12.944,12.944,0,0,0-1.055-5.968c-.8-1.583-2.2-2.945-2.222-4.7l-4.807.929a1.373,1.373,0,0,0-.707.28,1.219,1.219,0,0,0-.306.575A15.708,15.708,0,0,0,353.034,701.856Z" transform="translate(-164.37 -371.916)" fill="#45a5bf"/>
    <path id="路径_163" data-name="路径 163" d="M244.289,606.07a7.855,7.855,0,0,0,.77,4.987,3.859,3.859,0,0,0,4.369,1.852.638.638,0,0,0,.4-.3.744.744,0,0,0-.069-.528,7.789,7.789,0,0,1,.164-5.868c.106-.243.332-.528.58-.433a.528.528,0,0,1,.237.243,2.76,2.76,0,0,1,.369,1.456,5.414,5.414,0,0,0-.042,1.4c.1.454.586.881,1.008.686a1.055,1.055,0,0,0,.48-.681c1.177-3.4.644-7.124.106-10.686a.559.559,0,0,0-.628-.586c-2.491-.248-3.852-.844-5.277,1.472A14.465,14.465,0,0,0,244.289,606.07Z" transform="translate(-113.034 -326.26)" fill="#45a5bf"/>
    <path id="路径_164" data-name="路径 164" d="M298.18,596.1a32.361,32.361,0,0,0-1.087,15.208l.554,4.57c.19,1.541.375,3.076.644,4.6a12.215,12.215,0,0,1,.28,2.39,12.8,12.8,0,0,1-.375,2.348,27.445,27.445,0,0,0-.554,4.908c-.058,2.638.269,5.277.475,7.916a88.151,88.151,0,0,1-.185,15.789,5.921,5.921,0,0,0,.865,4.069,5.234,5.234,0,0,1,.765,1.256c.4,1.208-.528,2.417-.765,3.657a3.694,3.694,0,0,0,3.071,4.222c4.222.5,8.559.274,12.364,2.206.4-1.171-.475-2.5-.074-3.694.253-.739.95-1.219,1.425-1.842a5.361,5.361,0,0,0,.908-3.219,11.762,11.762,0,0,0-.781-4.364,9.44,9.44,0,0,1-1.055-3.551,4.487,4.487,0,0,0-.032-1.821,2.844,2.844,0,0,0-.681-.85,10.728,10.728,0,0,1-2.76-6.253,28.8,28.8,0,0,1,.222-6.934c.259-2.185.607-4.491,1.995-6.2a39.75,39.75,0,0,1,1.113-15.435c.137-.464.354-1,.828-1.113a1.182,1.182,0,0,1,1.013.4,6.918,6.918,0,0,1,1.583,2.976,6.489,6.489,0,0,1,.5,3.6c-.127.528-.38.992-.528,1.5a4.443,4.443,0,0,0,.158,3.1,2.976,2.976,0,0,1,.38,1.166,3.228,3.228,0,0,1-.317,1.013,4.665,4.665,0,0,0,.438,3.773,13.658,13.658,0,0,0,2.464,3.024,11.082,11.082,0,0,0,.343,6.1.771.771,0,0,1,.069.586c-.095.2-.338.274-.528.417-.528.433-.2,1.251.153,1.815a41.613,41.613,0,0,0,3.2,4.443c1.055,1.261.96,3.694,2.533,4.148a4.75,4.75,0,0,0,2.005,0c1.551-.237,3.282-.686,4.042-2.058a5.539,5.539,0,0,1,.923-1.673c.486-.422,1.113-.5,1.383-1s-.032-1.171.058-1.757.6-1.055.765-1.673c.39-1.425-1.272-2.6-1.5-4.053-.327-2.111,2.332-3.694,2.222-5.8-.232-4.586-.38-9.192-.617-13.778a99.35,99.35,0,0,1-.127-12.343c.185-2.559.528-5.24-.412-7.62-1.351-3.356-5.076-5.24-8.681-5.6s-7.2.5-10.77,1.055A68.074,68.074,0,0,1,298.18,596.1Z" transform="translate(-137.807 -324.954)" fill="#3f3d56"/>
    <circle id="椭圆_62" data-name="椭圆 62" cx="8.454" cy="8.454" r="8.454" transform="translate(162.632 203.806)" fill="#fbbebe"/>
    <path id="路径_165" data-name="路径 165" d="M310.182,500.109a3.6,3.6,0,0,1-3.446,2.179A4.25,4.25,0,0,0,308,505.829a15.029,15.029,0,0,0,14.385,4.934,7.1,7.1,0,0,0,2.834-1.182,6.285,6.285,0,0,0,2.164-3.747,18.626,18.626,0,0,0,.206-4.406,1.14,1.14,0,0,0-.232-.813,1.161,1.161,0,0,0-.739-.243,12.813,12.813,0,0,1-5.214-1.1c-1.567-.876-2.681-2.855-1.926-4.48-.121.253-3.2.375-3.609.427-1.272.179-2.543.38-3.81.612a6.928,6.928,0,0,0-1.789.338c-.765.4-.48.2-.3.918C310.24,498.183,310.636,498.969,310.182,500.109Z" transform="translate(-142.537 -277.818)" fill="#fbbebe"/>
    <path id="路径_166" data-name="路径 166" d="M289.091,509.1a14,14,0,0,1-3.383-.375,4.749,4.749,0,0,1-2.776-1.852c-.391-.591-.644-1.335-1.266-1.668-1.018-.528-2.179.364-2.992,1.182a10.871,10.871,0,0,1-2.543,2.047c-1.129.6-2.449.807-3.514,1.509a8.834,8.834,0,0,0-2.111,2.28l-7.477,10.185c-3,4.095-5.615,8.491-8.29,12.812-2.317,3.741-3.53,8.047-5.277,12.084a1.351,1.351,0,0,0-.164.813c.063.274.4.5.628.338-.786.781-.1,2.111-.28,3.208a3.937,3.937,0,0,1-1.256,1.968,9.92,9.92,0,0,1,3.483.164,10.674,10.674,0,0,1,3.293,1.583c.638-.1.58-1.235,1.055-1.657.285-.248.707-.216,1.082-.29,1.409-.274,1.968-1.968,3.05-2.923.9-.8,2.179-1.055,3.135-1.8,1.551-1.219,1.884-3.388,2.7-5.187.691-1.525,1.778-2.855,2.385-4.417a19.019,19.019,0,0,1,1.15-3.045c.9-1.509,2.6-2.311,4.222-3.034a6.991,6.991,0,0,1,3.214-.86c-.058,2.454-.369,4.871.164,7.266.185.844.443,1.667.665,2.507a47.2,47.2,0,0,1,1.293,11.609,35.322,35.322,0,0,1,7.388-.887c1.958-.058,3.91.2,5.868.158,2.322-.042,4.617-.491,6.939-.649a12.962,12.962,0,0,1,6.8,1.055,64.617,64.617,0,0,1,.28-10.026l.559-5.245a32.232,32.232,0,0,1,.7-4.528c.306-1.2.749-2.364,1.087-3.562,1.187-4.222.971-8.728.744-13.124a16.543,16.543,0,0,0-2.011-6.491,17.56,17.56,0,0,0-1.266-2.153,12.469,12.469,0,0,0-10.9-5.119,2.207,2.207,0,0,0-.781.169,2.6,2.6,0,0,0-1,1.187A12.928,12.928,0,0,1,289.091,509.1Z" transform="translate(-115.013 -281.672)" fill="#3f3d56"/>
    <path id="路径_167" data-name="路径 167" d="M303.444,479.532c.237-.528.876-.723,1.266-1.145.749-.8.412-2.084.528-3.166a4.548,4.548,0,0,1,3.008-3.472,9.719,9.719,0,0,1,4.749-.3,4.6,4.6,0,0,1,2.142.712c.274.2.528.459.786.644a2.111,2.111,0,0,0,2.871-.67c-1.868-2.248-3.937-4.623-6.776-5.314a13.9,13.9,0,0,0-2.96-.28,9.614,9.614,0,0,0-3.884.454,6.474,6.474,0,0,0-3.409,3.937,19.136,19.136,0,0,0-.828,5.277,19.872,19.872,0,0,0,0,3.588,9.921,9.921,0,0,0,1.762,4.522,1.367,1.367,0,0,0,.528.491C305.634,485.864,303.249,479.97,303.444,479.532Z" transform="translate(-139.793 -264.47)" fill="#3f3d56"/>
    <path id="路径_168" data-name="路径 168" d="M316.946,465.978c-.29-2.485-2.063-4.538-3.947-6.19a14.553,14.553,0,0,0-5.3-3.193,7.086,7.086,0,0,0-5.984.728,9.194,9.194,0,0,0-2.913,4.005,12.607,12.607,0,0,0-1.272,5.8,6.258,6.258,0,0,0,2.834,5.024,5.33,5.33,0,0,1,2.744-1.768,134.349,134.349,0,0,1,13.841-4.412Z" transform="translate(-138.219 -259.618)" fill="#fed253"/>
    <path id="路径_169" data-name="路径 169" d="M303.486,472.72c.169,0,.28.174.364.317a13.379,13.379,0,0,1,1.1,2.111c-.617.132-1.678.28-1.984-.264C302.806,474.609,303,472.693,303.486,472.72Z" transform="translate(-140.764 -267.394)" opacity="0.1"/>
    <path id="路径_170" data-name="路径 170" d="M326.544,468.128c-.127.121-.274-.127-.274-.306v-2.047a.3.3,0,0,1,.037-.164.248.248,0,0,1,.174-.084c.427-.048.781.317,1.055.665a11.146,11.146,0,0,1,1.082,1.8l-2.232-.069" transform="translate(-151.796 -263.995)" opacity="0.1"/>
    <path id="路径_171" data-name="路径 171" d="M364.449,522.569A13.812,13.812,0,0,1,366,521.3a23.407,23.407,0,0,1,4.871-1.984,6.427,6.427,0,0,0,3.947-3.266,7.759,7.759,0,0,0,.306-3.166,3.167,3.167,0,0,0-.232-1.3,2.591,2.591,0,0,0-.834-.908c-2.227-1.646-5.214-1.778-7.979-1.609a50.008,50.008,0,0,0-17.63,4.4,1.53,1.53,0,0,0-.739.528,1.509,1.509,0,0,0-.142.734,12.137,12.137,0,0,0,.6,4.6c.728,1.878,2.227,3.393,2.855,5.309.285.86.38,1.773.628,2.638a3.694,3.694,0,0,0,1.483,2.206c2.084,1.245,4.053-.427,5.5-1.726Z" transform="translate(-161.844 -284.532)" fill="#3f3d56"/>
    <path id="路径_172" data-name="路径 172" d="M310.925,526.013l-2.675-5.836a20.426,20.426,0,0,1-1.013-2.5c-.306-1.018-.454-2.074-.739-3.1-.939-3.409-3.309-6.248-4.464-9.588a1.82,1.82,0,0,0-.433-.807,1.409,1.409,0,0,0-1.177-.211c-1.615.28-2.876,1.509-4.353,2.206-.686.317-1.425.528-2.111.892a2.639,2.639,0,0,0-1.414,1.683,4.115,4.115,0,0,0,.575,2.369,26.758,26.758,0,0,1,1.826,10.406c.047,2.385-.074,4.945-1.483,6.86-2.707,3.694-.976,9.119.037,13.588.121.528.264,1.1.348,1.657a15.237,15.237,0,0,1,.121,2.111,16.52,16.52,0,0,1-1.124,6.96,7.788,7.788,0,0,0,3.166.9q4.6.586,9.229.823a10.058,10.058,0,0,0,2.9-.148,5.277,5.277,0,0,0,3.9-5.171,6.524,6.524,0,0,0,1.541,4.063,6.138,6.138,0,0,0,4.047,1.245,75.244,75.244,0,0,0,12.19-.343,2.111,2.111,0,0,0,.749-.174c.781-.391.823-1.467.76-2.332-.116-1.62-.237-3.24-.433-4.85a19.84,19.84,0,0,1-.253-3.1,17.849,17.849,0,0,1,.528-3.166,35.908,35.908,0,0,0,1.029-10.026,16.923,16.923,0,0,1-.1-2.475c.137-1.863,1.119-3.636.934-5.488-.528-5.446-.955-11.034-2.475-16.29a4.222,4.222,0,0,0-1.441-2.485c-1.055-.707-2.538-.338-3.747-.786a9.37,9.37,0,0,1-1.609-.955,7.387,7.387,0,0,0-3.636-1.119,3.086,3.086,0,0,0-2.638.96,3.831,3.831,0,0,0-.528,1.441c-.765,3.219-1.662,6.4-2.559,9.583l-.86,3.05-2.306,8.19C311,524.921,311.157,525.19,310.925,526.013Z" transform="translate(-135.618 -280.668)" fill="#45a5bf"/>
    <path id="路径_173" data-name="路径 173" d="M333.314,400.25l51.044,53.64v4.549H361.6L323.24,408.376" transform="translate(-144.513 -186.856)" fill="#f1c0c0"/>
    <path id="路径_174" data-name="路径 174" d="M333.314,400.25l51.044,53.64v4.549H361.6L323.24,408.376" transform="translate(-144.513 -186.856)" opacity="0.1"/>
    <path id="路径_175" data-name="路径 175" d="M324.053,414.31l.164.058,37.709,46.163h22.432v4.549H361.6L323.24,415.017Z" transform="translate(-144.513 -193.497)" opacity="0.1"/>
    <path id="路径_176" data-name="路径 176" d="M342.921,502.236c-1.847.807-3.9,1.842-4.454,3.784a1.894,1.894,0,0,0,1.868,2.538,6.331,6.331,0,0,0,2.538-.464l10.9-3.6c.3-.095.633-.237.707-.528a.908.908,0,0,0-.105-.528c-.338-.823-.67-2.507-1.377-3.082-.581-.464-1.731-.3-2.433-.29C347.86,500.089,345.322,501.181,342.921,502.236Z" transform="translate(-157.508 -280.294)" fill="#45a5bf"/>
    <path id="路径_177" data-name="路径 177" d="M363.327,503.937a17.524,17.524,0,0,1,5.409.839,9.636,9.636,0,0,1,4.48,3.061,3.356,3.356,0,0,1,.707,1.383c.106.528,1.826.844,1.446,1.2,1.156-.185.881.359,2.053.348a3.879,3.879,0,0,0,3.14-1.245,4.079,4.079,0,0,0,.617-2.58,4.4,4.4,0,0,0-.348-1.826,5.391,5.391,0,0,0-2.86-2.216l-9.425-4.311a6.26,6.26,0,0,0-1.741-.617,6.509,6.509,0,0,0-1.536.037L361,498.5a6.4,6.4,0,0,1,2.918,5.631" transform="translate(-168.199 -279.309)" fill="#3f3d56"/>
  </g>
</svg>
