<svg id="组_50" data-name="组 50" xmlns="http://www.w3.org/2000/svg" xmlns:xlink="http://www.w3.org/1999/xlink" width="380.415" height="229.811" viewBox="0 0 380.415 229.811">
  <defs>
    <linearGradient id="linear-gradient" x1="0.5" y1="1" x2="0.5" gradientUnits="objectBoundingBox">
      <stop offset="0" stop-color="gray" stop-opacity="0.251"/>
      <stop offset="0.535" stop-color="gray" stop-opacity="0.122"/>
      <stop offset="1" stop-color="gray" stop-opacity="0.102"/>
    </linearGradient>
  </defs>
  <path id="路径_44" data-name="路径 44" d="M189.734,316v11.523a18.244,18.244,0,1,1,0,36.488v11.523h59.533V316Z" transform="translate(-130.841 -243.984)" fill="#f2f2f2"/>
  <circle id="椭圆_22" data-name="椭圆 22" cx="14.403" cy="14.403" r="14.403" transform="translate(44.49 87.379)" fill="#f2f2f2"/>
  <path id="路径_45" data-name="路径 45" d="M816.365,332.457,793,318.055V429.422h23.365Z" transform="translate(-539.184 -216.255)" fill="#f2f2f2"/>
  <path id="路径_46" data-name="路径 46" d="M681,382.483h23.365V263.422L681,249.02Z" transform="translate(-463.032 -169.316)" fill="#f2f2f2"/>
  <path id="路径_47" data-name="路径 47" d="M393.826,72.01,277,0V64.974h37.448v74.9H277v73.3H393.826Z" transform="translate(-188.34)" fill="#f2f2f2"/>
  <path id="路径_48" data-name="路径 48" d="M905,387.09v89.271h12.163l32.967-61.454Z" transform="translate(-615.336 -263.194)" fill="#f2f2f2"/>
  <path id="路径_49" data-name="路径 49" d="M999.744,597.086c-19.39,14.494-24.857,39.958-24.857,39.958s25.97,1.965,45.36-12.529,24.857-39.958,24.857-39.958S1019.134,582.592,999.744,597.086Z" transform="translate(-664.689 -426.523)" fill="#3f3d56"/>
  <path id="路径_50" data-name="路径 50" d="M902.574,572.472s-.285-.159-.8-.475c-.411-.253-.975-.6-1.656-1.055-6.093-4.015-21.877-15.824-28.351-34.044-8.1-22.813,1.465-47.037,1.465-47.037s20.864,11.729,29.727,32.8c.386.907.744,1.833,1.08,2.777,7.048,19.849.722,40.767-1.039,45.865C902.734,572.064,902.574,572.472,902.574,572.472Z" transform="translate(-592.361 -362.197)" fill="#45a5bf"/>
  <path id="路径_51" data-name="路径 51" d="M922.38,520.711c5.443,23.588-6.828,46.56-6.828,46.56S894.456,552,889.013,528.41s6.828-46.56,6.828-46.56S916.938,497.122,922.38,520.711Z" transform="translate(-605.354 -356.75)" fill="none" stroke="#3f3d56" stroke-miterlimit="10" stroke-width="2"/>
  <path id="路径_52" data-name="路径 52" d="M963.993,640.972c-.473.275-.886.507-1.225.7-.748.408-1.162.614-1.162.614s-.2-.59-.494-1.669c-1.642-5.9-6.341-26.479,1.524-45.378q.62-1.485,1.316-2.906c.386.907.744,1.833,1.08,2.777C972.081,614.956,965.755,635.874,963.993,640.972Z" transform="translate(-653.355 -431.869)" opacity="0.1"/>
  <path id="路径_53" data-name="路径 53" d="M1001.287,545.139c-9.3,22.351-32.646,33.893-32.646,33.893s-8.271-24.7,1.028-47.047,32.645-33.893,32.645-33.893S1010.586,522.788,1001.287,545.139Z" transform="translate(-658.138 -367.793)" fill="#45a5bf"/>
  <line id="直线_18" data-name="直线 18" y1="79.315" x2="33.251" transform="translate(310.739 131.28)" fill="none" stroke="#3f3d56" stroke-miterlimit="10" stroke-width="2"/>
  <path id="路径_54" data-name="路径 54" d="M382.618,745.988c0,3-17.242,5.739-45.748,7.844-5.183.381-10.739.742-16.629,1.081q-7.638.439-16.006.825-8.11.368-16.84.684c-18.384.668-38.7,1.149-60.292,1.389q-7.857.086-15.928.136-8.4.047-17,.047C90.1,757.994,5.734,752.62,5.734,745.988S90.1,733.983,194.176,733.983c44.8,0,85.953,1,118.293,2.658q1.785.094,3.535.183a.037.037,0,0,0,.023.005C356.765,739.033,382.618,742.317,382.618,745.988Z" transform="translate(-5.734 -528.183)" fill="#3f3d56"/>
  <path id="路径_55" data-name="路径 55" d="M382.618,745.988c0,3-17.242,5.739-45.748,7.844-5.183.381-10.739.742-16.629,1.081q-7.638.439-16.006.825-8.11.368-16.84.684c-18.384.668-38.7,1.149-60.292,1.389q-7.857.086-15.928.136-8.4.047-17,.047C90.1,757.994,5.734,752.62,5.734,745.988S90.1,733.983,194.176,733.983c44.8,0,85.953,1,118.293,2.658q1.785.094,3.535.183a.037.037,0,0,0,.023.005C356.765,739.033,382.618,742.317,382.618,745.988Z" transform="translate(-5.734 -528.183)" opacity="0.15"/>
  <path id="路径_56" data-name="路径 56" d="M391.592,743.567c0,2.506-16.074,4.8-42.649,6.558-4.83.317-10.012.618-15.5.9q-7.12.365-14.922.688-7.562.312-15.7.573c-17.14.56-36.085.96-56.211,1.162q-7.322.072-14.848.112-7.835.043-15.847.042c-97.026,0-175.681-4.494-175.681-10.037s78.654-10.037,175.681-10.037c21.454,0,42.009.221,61.015.624h.048c17.975.381,34.564.925,49.217,1.6l3.3.151a.031.031,0,0,0,.022.006c6.712.326,12.992.679,18.779,1.056.064,0,.128.01.192.013C375.336,738.744,391.592,741.045,391.592,743.567Z" transform="translate(-29.192 -527.875)" fill="#3f3d56"/>
  <path id="路径_57" data-name="路径 57" d="M851.209,738.293c-2.378,15.463-17.374,10.281-35.518,10.281-19.169,0-34.821,5.784-35.8-13.094,17.975.381,34.564.925,49.217,1.6l3.3.151a.03.03,0,0,0,.022.006C839.143,737.564,845.422,737.916,851.209,738.293Z" transform="translate(-532.108 -529.201)" opacity="0.1"/>
  <path id="路径_58" data-name="路径 58" d="M291.564,702.667c0,5.575-3.314,7.521-7.4,7.521-.095,0-.189,0-.283,0-.189,0-.377-.013-.563-.026-3.69-.261-6.556-2.307-6.556-7.492,0-5.364,6.855-12.134,7.371-12.636h0l.03-.029S291.564,697.094,291.564,702.667Z" transform="translate(-190.013 -498.279)" fill="#45a5bf"/>
  <path id="路径_59" data-name="路径 59" d="M292.723,709.336l2.707-3.782-2.714,4.2-.007.434c-.189,0-.377-.013-.563-.026l.292-5.577,0-.044,0-.008.028-.527-2.721-4.208,2.729,3.813.007.112.22-4.213-2.329-4.348,2.358,3.609.23-8.736v0l-.038,6.889,2.319-2.731-2.328,3.325-.061,3.773,2.166-3.621-2.175,4.176-.034,2.1,3.143-5.04L292.8,704.67Z" transform="translate(-198.843 -498.279)" fill="#3f3d56"/>
  <path id="路径_60" data-name="路径 60" d="M779.734,635.8c0-21.212,16.05-38.409,35.848-38.409s35.848,17.2,35.848,38.409-16.05,15.043-35.848,15.043S779.734,657.014,779.734,635.8Z" transform="translate(-531.999 -435.312)" fill="#3f3d56"/>
  <line id="直线_19" data-name="直线 19" y1="43.267" transform="translate(48.774 175.185)" fill="#3f3d56" stroke="#3f3d56" stroke-miterlimit="10" stroke-width="2"/>
  <circle id="椭圆_23" data-name="椭圆 23" cx="6.119" cy="6.119" r="6.119" transform="translate(42.655 169.066)" fill="#3f3d56"/>
  <path id="路径_61" data-name="路径 61" d="M118.2,685.976s-.874-18.8-18.793-16.615" transform="translate(-69.422 -484.125)" fill="#3f3d56"/>
  <path id="路径_62" data-name="路径 62" d="M616.289,629.091c.16.565.338,1.126.528,1.683-.855-.84-1.693-1.7-2.548-2.538.343.107.685.214,1.008.34A6.123,6.123,0,0,1,616.289,629.091Zm-4.139-2.805c-5.036-4.379-10.872-7.769-16.033-12.015,2.818,1.387,5.56,3,8.279,4.552q4.839,2.757,9.792,5.3A7.985,7.985,0,0,1,612.15,626.286Zm2.154-11.027.241-.247c0,.622.007,1.2.014,1.732q-.677-.224-1.35-.461A11.922,11.922,0,0,0,614.3,615.259Zm-44.364,11.856a41.42,41.42,0,0,0,5.374-7.666c2,3.493,5.248,6.012,8.012,8.937C578.874,627.8,574.415,627.312,569.941,627.114Z" transform="translate(-389.354 -446.787)" fill="url(#linear-gradient)"/>
  <path id="路径_63" data-name="路径 63" d="M91.564,728.667c0,5.575-3.314,7.521-7.4,7.521-.095,0-.189,0-.283,0-.189,0-.377-.013-.563-.026-3.69-.261-6.556-2.307-6.556-7.492,0-5.364,6.855-12.134,7.371-12.636h0l.03-.029S91.564,723.094,91.564,728.667Z" transform="translate(-54.027 -515.957)" fill="#45a5bf"/>
  <path id="路径_64" data-name="路径 64" d="M92.723,735.336l2.707-3.782-2.714,4.2-.007.434c-.189,0-.377-.013-.563-.026l.292-5.577,0-.044,0-.008.028-.527L89.748,725.8l2.729,3.813.007.112.22-4.214-2.329-4.348,2.358,3.609.23-8.736v0l-.038,6.889,2.319-2.731-2.328,3.324-.061,3.773,2.166-3.621-2.175,4.176-.034,2.1,3.143-5.04L92.8,730.67Z" transform="translate(-62.858 -515.957)" fill="#3f3d56"/>
  <circle id="椭圆_24" data-name="椭圆 24" cx="3.201" cy="3.201" r="3.201" transform="translate(38.088 161.956)" fill="#45a5bf"/>
  <path id="路径_65" data-name="路径 65" d="M743.235,466.422s11.611-2.571,12.892,7.672-6.166,12.176-6.166,12.176l-4.716,1.267L727,482.735l2.561-7.362Z" transform="translate(-496.144 -346.065)" fill="#2f2e41"/>
  <circle id="椭圆_25" data-name="椭圆 25" cx="15.691" cy="15.691" r="15.691" transform="translate(227.216 89.54)" fill="#2f2e41"/>
  <path id="路径_66" data-name="路径 66" d="M586.65,430.572l3.188.641,10.839,16.028-4.782.641Z" transform="translate(-398.88 -292.758)" fill="#2f2e41"/>
  <path id="路径_67" data-name="路径 67" d="M351.456,724.175a62.631,62.631,0,0,0,3.168,8.273,77.22,77.22,0,0,0,10.577-3.014,29.847,29.847,0,0,0-2.2-2.988,10.563,10.563,0,0,0-2.987-2.3c-1.1-.479-2.457-.113-3.636-.053Q353.921,724.221,351.456,724.175Z" transform="translate(-240.8 -521.331)" fill="#fbbebe"/>
  <path id="路径_68" data-name="路径 68" d="M302.238,718.923c-1.8-.562-2.889-2.37-3.62-4.114s-1.32-3.645-2.707-4.925a1.619,1.619,0,0,0-1.222.922c-.263.465-.419.989-.723,1.428-.578.835-1.595,1.239-2.321,1.948-.762.743-1.179,1.793-1.967,2.507a7.89,7.89,0,0,1-3.691,1.416,23.673,23.673,0,0,0-5.777,2.142,9.7,9.7,0,0,1-2.14.959,8.04,8.04,0,0,1-2.5.084l-5.748-.41a4.49,4.49,0,0,0-1.534.067,2.79,2.79,0,0,0-1.828,2.881,4.49,4.49,0,0,0,1.819,3.092,12.11,12.11,0,0,0,3.273,1.658,97.005,97.005,0,0,0,15.411,4.4l0,1.138a26.616,26.616,0,0,0,11.731,2.731,1.825,1.825,0,0,0,.878-.152,1.885,1.885,0,0,0,.739-1.126,45.6,45.6,0,0,0,2.4-12.495,9.485,9.485,0,0,0-.247-3.219c-.313-1.035.765-.6-.233-1.005" transform="translate(-183.002 -511.797)" fill="#2f2e41"/>
  <path id="路径_69" data-name="路径 69" d="M482.353,660.8c-17.041,1.02-33.883-3.968-50.945-4.5a25.287,25.287,0,0,0-6.337.4,31.471,31.471,0,0,0-6.271,2.431c-9.151,4.258-18.618,7.784-28.074,11.306l-10.862,4.046a16.719,16.719,0,0,1-6.73,1.488c-1.036-.063-2.307-.22-2.89.643-1.767,2.618-.932,6.464.235,9.4.379.954,1.02,1.983,2.036,2.091a5.93,5.93,0,0,0,2.075-.524c1.977-.53,3.948.8,5.983,1.017,2.514.267,4.848-1.164,7.221-2.041,3.935-1.454,8.238-1.409,12.374-2.1,6.935-1.155,13.364-4.375,19.372-8.044,2.288-1.4,4.6-2.894,7.232-3.4,3.022-.588,6.126.191,9.09,1.029a209.889,209.889,0,0,1,20.839,7.1,96.213,96.213,0,0,0,10.888,3.97,39.367,39.367,0,0,0,24.4-1.423c2.728-1.078,5.691-2.984,5.848-5.926.089-1.678-1.212-3.156-2.082-4.591-.558-.92-1.116-1.841-1.723-2.729C491.095,666.153,487.529,660.495,482.353,660.8Z" transform="translate(-252.883 -475.346)" fill="#2f2e41"/>
  <path id="路径_70" data-name="路径 70" d="M482.353,660.8c-17.041,1.02-33.883-3.968-50.945-4.5a25.287,25.287,0,0,0-6.337.4,31.471,31.471,0,0,0-6.271,2.431c-9.151,4.258-18.618,7.784-28.074,11.306l-10.862,4.046a16.719,16.719,0,0,1-6.73,1.488c-1.036-.063-2.307-.22-2.89.643-1.767,2.618-.932,6.464.235,9.4.379.954,1.02,1.983,2.036,2.091a5.93,5.93,0,0,0,2.075-.524c1.977-.53,3.948.8,5.983,1.017,2.514.267,4.848-1.164,7.221-2.041,3.935-1.454,8.238-1.409,12.374-2.1,6.935-1.155,13.364-4.375,19.372-8.044,2.288-1.4,4.6-2.894,7.232-3.4,3.022-.588,6.126.191,9.09,1.029a209.889,209.889,0,0,1,20.839,7.1,96.213,96.213,0,0,0,10.888,3.97,39.367,39.367,0,0,0,24.4-1.423c2.728-1.078,5.691-2.984,5.848-5.926.089-1.678-1.212-3.156-2.082-4.591-.558-.92-1.116-1.841-1.723-2.729C491.095,666.153,487.529,660.495,482.353,660.8Z" transform="translate(-252.883 -475.346)" opacity="0.1"/>
  <path id="路径_71" data-name="路径 71" d="M453.673,712.293q4,1.366,8.072,2.511c1.519-2.494,4.362-4.23,5.009-7.082a.623.623,0,0,0,0-.382.643.643,0,0,0-.305-.273,15.03,15.03,0,0,0-6.321-1.852c-1.752-.111-2.551,1.718-3.345,3C456.462,708.738,454.387,712.536,453.673,712.293Z" transform="translate(-310.301 -508.619)" fill="#fbbebe"/>
  <path id="路径_72" data-name="路径 72" d="M409.38,713a5.814,5.814,0,0,1-3.921-2.578c-.377-.657-.778-1.542-1.53-1.492-.7.046-1.019.879-1.176,1.565a44.5,44.5,0,0,1-2.2,7.578,14.189,14.189,0,0,1-4.716,6.194c-.988.688-2.09,1.2-3.057,1.92a20.45,20.45,0,0,1-2.584,1.955,14.579,14.579,0,0,1-1.982.739,13.427,13.427,0,0,0-2.838,1.381,5.709,5.709,0,0,0-1.932,1.846,2.708,2.708,0,0,0-.159,2.584,2.8,2.8,0,0,0,1.891,1.3,8.1,8.1,0,0,0,2.351.059c3.107-.229,6.21-.506,9.313-.782a26.7,26.7,0,0,0,3.9-.543c.68-.164,1.346-.381,2.023-.556a16.687,16.687,0,0,1,3.548-.517,2.975,2.975,0,0,1,1.035.094c.719.235,1.229.95,1.971,1.1a3.128,3.128,0,0,0,1.4-.188,32.69,32.69,0,0,1,6.9-.72c1.019-.055,2.213-.249,2.68-1.161.583-1.138-.384-2.41-.769-3.63a11.113,11.113,0,0,1-.32-2.381,14.577,14.577,0,0,0-1.711-5.66c-.791-1.452-1.871-3.058-1.315-4.617a4.171,4.171,0,0,0,.526-1.582C416.552,712.438,410.809,713.3,409.38,713Z" transform="translate(-262.269 -511.147)" fill="#2f2e41"/>
  <path id="路径_73" data-name="路径 73" d="M612.225,553.134a13.336,13.336,0,0,1-6.79-6.744c-.285-.647-.518-1.323-.792-1.976a15.01,15.01,0,0,0-4.058-5.635,1.96,1.96,0,0,0-1.506-.637,1.621,1.621,0,0,0-1.108,1.186,4.84,4.84,0,0,0-.112,1.821,32.617,32.617,0,0,0,.738,4.259l.826,3.763a7.213,7.213,0,0,0,.514,1.68,5.917,5.917,0,0,0,1.386,1.658q1.132,1.042,2.3,2.029a6.426,6.426,0,0,0,3.988,1.773c3.384.628,6.826,1.531,9.681,3.74-.032-.024-.012-2.524-.062-2.81a3.7,3.7,0,0,0-.725-2.019C615.4,554.071,613.573,553.733,612.225,553.134Z" transform="translate(-408.309 -395.013)" fill="#fbbebe"/>
  <path id="路径_74" data-name="路径 74" d="M612.225,553.134a13.336,13.336,0,0,1-6.79-6.744c-.285-.647-.518-1.323-.792-1.976a15.01,15.01,0,0,0-4.058-5.635,1.96,1.96,0,0,0-1.506-.637,1.621,1.621,0,0,0-1.108,1.186,4.84,4.84,0,0,0-.112,1.821,32.617,32.617,0,0,0,.738,4.259l.826,3.763a7.213,7.213,0,0,0,.514,1.68,5.917,5.917,0,0,0,1.386,1.658q1.132,1.042,2.3,2.029a6.426,6.426,0,0,0,3.988,1.773c3.384.628,6.826,1.531,9.681,3.74-.032-.024-.012-2.524-.062-2.81a3.7,3.7,0,0,0-.725-2.019C615.4,554.071,613.573,553.733,612.225,553.134Z" transform="translate(-408.309 -395.013)" opacity="0.1"/>
  <ellipse id="椭圆_26" data-name="椭圆 26" cx="4.145" cy="4.167" rx="4.145" ry="4.167" transform="translate(234.475 120.984)" fill="#2f2e41"/>
  <path id="路径_75" data-name="路径 75" d="M682.329,473.959a3.384,3.384,0,0,0-4.4,2,22.091,22.091,0,0,0-2.157,5.077c-.37,1.521-.431,3.112-.89,4.608-.85,2.776-3.027,5.119-3.276,8.013-.111,1.295.105,2.811-.839,3.7a5.552,5.552,0,0,1-.745.528,5.634,5.634,0,0,0-1.631,1.677,5.407,5.407,0,0,1-1.159,1.6c-.843.625-2.242.561-2.658,1.527-.427.993.656,2.1.406,3.15-.2.857-1.16,1.249-1.817,1.832a6.443,6.443,0,0,0-1.579,2.943,9.773,9.773,0,0,1-7.931-1.978c1.157,2.85,1.182,5.994,1.232,9.072a3.746,3.746,0,0,1-.728,2.814,49.378,49.378,0,0,1,9.738,1.692,6.706,6.706,0,0,0,4.247-.008,6.929,6.929,0,0,0,1.945-1.547c1.752-1.776,3.589-3.714,4.018-6.178a33.261,33.261,0,0,0,.071-4.2,23.792,23.792,0,0,1,1.063-5.087,60.019,60.019,0,0,0,1.861-10.475c.191-2.184,2.077-3.942,3.07-5.894,1.875-3.685,3.791-7.523,3.932-11.661C684.154,475.783,683.7,474.111,682.329,473.959Z" transform="translate(-446.275 -351.326)" fill="#2f2e41"/>
  <path id="路径_76" data-name="路径 76" d="M682.329,473.959a3.384,3.384,0,0,0-4.4,2,22.091,22.091,0,0,0-2.157,5.077c-.37,1.521-.431,3.112-.89,4.608-.85,2.776-3.027,5.119-3.276,8.013-.111,1.295.105,2.811-.839,3.7a5.552,5.552,0,0,1-.745.528,5.634,5.634,0,0,0-1.631,1.677,5.407,5.407,0,0,1-1.159,1.6c-.843.625-2.242.561-2.658,1.527-.427.993.656,2.1.406,3.15-.2.857-1.16,1.249-1.817,1.832a6.443,6.443,0,0,0-1.579,2.943,9.773,9.773,0,0,1-7.931-1.978c1.157,2.85,1.182,5.994,1.232,9.072a3.746,3.746,0,0,1-.728,2.814,49.378,49.378,0,0,1,9.738,1.692,6.706,6.706,0,0,0,4.247-.008,6.929,6.929,0,0,0,1.945-1.547c1.752-1.776,3.589-3.714,4.018-6.178a33.261,33.261,0,0,0,.071-4.2,23.792,23.792,0,0,1,1.063-5.087,60.019,60.019,0,0,0,1.861-10.475c.191-2.184,2.077-3.942,3.07-5.894,1.875-3.685,3.791-7.523,3.932-11.661C684.154,475.783,683.7,474.111,682.329,473.959Z" transform="translate(-446.275 -351.326)" opacity="0.1"/>
  <path id="路径_77" data-name="路径 77" d="M550.193,607.136c-3.549-1.688-6.146-4.837-9.015-7.532C535.7,594.46,529,590.818,523.24,586c-3.818-3.2-7.233-6.919-11.428-9.6a28.448,28.448,0,0,0-12.239-4.289,3.447,3.447,0,0,0-1.5.075,3.549,3.549,0,0,0-1.393,1.1,43.582,43.582,0,0,0-4.933,6.784c-7.3,12.394-17.671,22.814-26.263,34.341a1.541,1.541,0,0,0-.1,2.081l1.748,3.425c.978,1.916,2.545,4.149,4.653,3.768a5.087,5.087,0,0,0,2.441-1.561l7.846-7.5,8.226-7.863c4.82-4.607,9.722-9.321,12.864-15.215,2.456,4.259,6.812,7.046,9.8,10.945,1.137,1.483,2.066,3.114,3.081,4.684,1.627,2.517,3.477,4.878,5.324,7.236l9.436,12.044a18.377,18.377,0,0,0,4.369,4.432c2.235,1.415,4.953,1.788,7.583,2.023a100.413,100.413,0,0,0,10.662.385,18.483,18.483,0,0,0,7.945-1.429c2.434-1.2,4.434-3.678,4.307-6.4a9.443,9.443,0,0,0-1.36-3.991C560.937,615.289,556.532,610.152,550.193,607.136Z" transform="translate(-318.021 -418.088)" fill="#2f2e41"/>
  <ellipse id="椭圆_27" data-name="椭圆 27" cx="3.188" cy="3.206" rx="3.188" ry="3.206" transform="translate(237.982 124.831)" fill="#2f2e41"/>
  <path id="路径_78" data-name="路径 78" d="M747.743,462.2a6.078,6.078,0,0,1,.35,4.6,17.988,17.988,0,0,1-2.052,4.248,21.108,21.108,0,0,1-2.665,3.8c4.921.236,9.691-1.695,14.034-4.034,3.494-1.882,6.98-4.2,8.844-7.721a4.062,4.062,0,0,1-3.257-.6,12.121,12.121,0,0,1-2.5-2.325l-2.471-2.779a11.089,11.089,0,0,1-1.519-1.994,5.606,5.606,0,0,1-.652-3.224,18.434,18.434,0,0,1-3.269,2.713c-1.765,1.148-3.71,1.981-5.478,3.123-.627.4-2.021,1.056-1.663,1.876C745.8,460.681,747.246,461.32,747.743,462.2Z" transform="translate(-507.278 -336.57)" fill="#fbbebe"/>
  <path id="路径_79" data-name="路径 79" d="M747.743,462.2a6.078,6.078,0,0,1,.35,4.6,17.988,17.988,0,0,1-2.052,4.248,21.108,21.108,0,0,1-2.665,3.8c4.921.236,9.691-1.695,14.034-4.034,3.494-1.882,6.98-4.2,8.844-7.721a4.062,4.062,0,0,1-3.257-.6,12.121,12.121,0,0,1-2.5-2.325l-2.471-2.779a11.089,11.089,0,0,1-1.519-1.994,5.606,5.606,0,0,1-.652-3.224,18.434,18.434,0,0,1-3.269,2.713c-1.765,1.148-3.71,1.981-5.478,3.123-.627.4-2.021,1.056-1.663,1.876C745.8,460.681,747.246,461.32,747.743,462.2Z" transform="translate(-507.278 -336.57)" opacity="0.1"/>
  <path id="路径_80" data-name="路径 80" d="M715.979,483.794a4.146,4.146,0,0,0,0,4.808c.14.176.659,1.271.883,1.281a.836.836,0,0,0,.562-.284,38.91,38.91,0,0,0,3.121-3.72,6.9,6.9,0,0,1,3.97-2.607c1.926-.3,3.786.721,5.472,1.706a5.224,5.224,0,0,1,1.868,1.526,5,5,0,0,1,.613,2.085,98.349,98.349,0,0,1,.556,13.255,51.324,51.324,0,0,1-.627,9.562c-.313,1.623-.783,3.217-1,4.855a32.6,32.6,0,0,0-.2,4.356l0,6.091a15.677,15.677,0,0,0,.236,3.34,40.615,40.615,0,0,0,1.343,3.865,25.5,25.5,0,0,1,.89,4.568l.834,6.307c.263,1.986.456,4.159-.745,5.758-.543.723-1.257,1.3-1.807,2.019-2.062,2.685-1.4,6.516-2.26,9.8a12.278,12.278,0,0,1-4,6.13c-1.473,1.252-3.376,2.237-5.273,1.885-2.561-.476-4.1-3.146-4.8-5.668s-.953-5.269-2.465-7.4c-1.235-1.74-3.149-2.835-4.879-4.077s-3.421-2.844-3.8-4.948c-.165-.919-.062-1.866-.16-2.794a6.611,6.611,0,0,0-4.08-5.357c-1.311-.51-2.93-.692-3.668-1.895a8.885,8.885,0,0,0,3.838-5.151,26.551,26.551,0,0,0,.933-6.505l.438-7.329c.2-3.275.284-6.521,1.727-9.465.645-1.316,1.447-2.547,2.118-3.85a43.314,43.314,0,0,0,2.269-5.649c1.046-3,2.092-6.007,3.024-9.048a18.02,18.02,0,0,1,1.663-4.216C713.361,485.732,714.5,484.072,715.979,483.794Z" transform="translate(-475.446 -357.681)" fill="#45a5bf"/>
  <path id="路径_81" data-name="路径 81" d="M705.949,528.791l1.939.07.413-2.931a6.142,6.142,0,0,1,.411-1.709,10.552,10.552,0,0,1,1.115-1.634c1.909-2.7,1.77-6.277,2.243-9.553.631-4.369,2.456-8.459,4.261-12.483l3.764-8.391a9.094,9.094,0,0,0,1.041-4.632c.033-1.3.418-6.017.451-7.314.012-.48-1.058-.213-1.275-.641-.472-.932-1.118,1.595-2,2.149a4.923,4.923,0,0,0-1.743,2.534c-.811,2.114-1.307,4.337-2.063,6.471a13.332,13.332,0,0,1-3.514,5.717c-.773.675-1.663,1.211-2.393,1.933-2.342,2.316-2.57,5.974-2.653,9.276C705.9,509.617,705.516,528.791,705.949,528.791Z" transform="translate(-481.691 -355.064)" fill="#2f2e41"/>
  <path id="路径_82" data-name="路径 82" d="M756,473.606c-1.884.741-2.917,2.783-3.446,4.746s-.745,4.055-1.757,5.816c-2.365,4.116-8.4,5.316-10.064,9.764a17.733,17.733,0,0,0-.669,4.6c-.3,3.187-1.351,6.266-1.66,9.453a41.245,41.245,0,0,0,.174,7.428l2.107,25.137a33.277,33.277,0,0,1-.631,11.054,10.6,10.6,0,0,0,6.332-1.043c1.98-.9,3.786-2.142,5.692-3.193,3.276-1.808,6.89-3.088,9.759-5.5a5.671,5.671,0,0,0,1.315-1.453,12.21,12.21,0,0,0,.9-3.312,18.16,18.16,0,0,1,.945-2.6,77.557,77.557,0,0,0,2.741-7.75A42.827,42.827,0,0,0,769,521.43c.23-1.433.354-2.88.478-4.326a25.888,25.888,0,0,1,1.338-6.644,53.228,53.228,0,0,0,3.078-15.922,8.046,8.046,0,0,0-.158-2.344,12.77,12.77,0,0,0-1.275-2.659c-.876-1.65-1.4-3.465-2.228-5.141-1.868-3.786-5.166-6.656-8.622-9.061C759.913,474.151,757.926,472.85,756,473.606Z" transform="translate(-503.827 -350.993)" fill="#2f2e41"/>
  <path id="路径_83" data-name="路径 83" d="M607.248,584.327a15.075,15.075,0,0,1-4.014-3.05c-.526-.616-.96-1.308-1.495-1.916a9.853,9.853,0,0,0-5.049-2.878,24.766,24.766,0,0,0-5.851-.569,10.705,10.705,0,0,0-3.89.472,3.92,3.92,0,0,0-2.577,2.765c-.286,1.563.735,3.087,1.962,4.09a9.451,9.451,0,0,0,3.922,1.9,31.463,31.463,0,0,0,3.545.415c6.979.731,13.2,4.529,19.32,7.988q8.057,4.557,16.426,8.52a32.768,32.768,0,0,0,.275-5.042c-.029-1.259-.091-3.177-1.279-3.916-1.385-.861-3.666-1.059-5.228-1.571a83.906,83.906,0,0,1-10.512-4.252Q609.972,585.913,607.248,584.327Z" transform="translate(-399.134 -420.706)" fill="#fbbebe"/>
  <ellipse id="椭圆_28" data-name="椭圆 28" cx="12.434" cy="12.502" rx="12.434" ry="12.502" transform="translate(226.186 99.185)" fill="#fbbebe"/>
  <path id="路径_84" data-name="路径 84" d="M739.633,514.992a20.042,20.042,0,0,0-2.413,4.5c-1.535,3.162-3.943,5.875-5.149,9.178-1.272,3.484-1.23,7.629-3.723,10.366a3.593,3.593,0,0,0-1.082,1.568,7.739,7.739,0,0,1-.127,1.138c-.357.994-1.985,1.044-2.289,2.057-.089.3-.039.624-.149.913-.25.655-1.114.755-1.692,1.147-1.207.819-.963,2.722-1.825,3.9a3.276,3.276,0,0,1-3.107,1.088,11.182,11.182,0,0,1-3.225-1.2,2.935,2.935,0,0,0-1.16-.364,2.435,2.435,0,0,0-1.339.457c-2.3,1.46-3.375,4.353-3.359,7.085a23.223,23.223,0,0,0,1.916,7.921,3.41,3.41,0,0,0,.634,1.18,2.773,2.773,0,0,0,3.1.227,14.041,14.041,0,0,1,3.018-1.35c1.924-.349,3.8.974,5.756.865a8.041,8.041,0,0,0,3.884-1.715,21.367,21.367,0,0,0,5.222-4.422c.854-1.115,1.479-2.387,2.224-3.579a41.331,41.331,0,0,1,3.14-4.194l7.169-8.776a14.183,14.183,0,0,0,3.434-6.672,31.13,31.13,0,0,0,1.486-7.139,28.4,28.4,0,0,0-.521-5.984,20.832,20.832,0,0,0-1.544-5.7C746.353,514.255,742.561,511.578,739.633,514.992Z" transform="translate(-483.901 -378.204)" fill="#2f2e41"/>
  <circle id="椭圆_29" data-name="椭圆 29" cx="15.691" cy="15.691" r="15.691" transform="translate(244.214 68.88)" fill="#2f2e41"/>
  <path id="路径_85" data-name="路径 85" d="M808.569,364.649a15.692,15.692,0,0,1-24.231-8.239,15.692,15.692,0,1,0,30.609-6.435A15.686,15.686,0,0,1,808.569,364.649Z" transform="translate(-535.13 -267.085)" fill="#2f2e41"/>
  <circle id="椭圆_30" data-name="椭圆 30" cx="11.507" cy="11.507" r="11.507" transform="translate(235.584 96.339)" fill="#2f2e41"/>
  <ellipse id="椭圆_31" data-name="椭圆 31" cx="10.199" cy="7.976" rx="10.199" ry="7.976" transform="translate(227.216 95.555)" fill="#2f2e41"/>
  <ellipse id="椭圆_32" data-name="椭圆 32" cx="1.6" cy="2.401" rx="1.6" ry="2.401" transform="matrix(0.776, -0.631, 0.631, 0.776, 237.061, 115.173)" fill="#fbbebe"/>
  <path id="路径_86" data-name="路径 86" d="M688.564,744.667c0,5.575-3.314,7.521-7.4,7.521-.095,0-.189,0-.283,0-.189,0-.377-.013-.563-.026-3.69-.261-6.556-2.307-6.556-7.492,0-5.364,6.855-12.134,7.371-12.636h0l.03-.029S688.564,739.094,688.564,744.667Z" transform="translate(-459.945 -526.836)" fill="#45a5bf"/>
  <path id="路径_87" data-name="路径 87" d="M689.723,751.336l2.707-3.782-2.714,4.2-.007.434c-.189,0-.377-.013-.563-.026l.292-5.577,0-.044,0-.008.028-.527-2.721-4.208,2.729,3.813.007.112.22-4.214-2.329-4.348,2.358,3.609.23-8.736v0l-.038,6.889,2.319-2.731-2.328,3.324-.061,3.773,2.166-3.621-2.175,4.176-.034,2.1,3.143-5.04L689.8,746.67Z" transform="translate(-468.775 -526.836)" fill="#3f3d56"/>
</svg>
