<svg xmlns="http://www.w3.org/2000/svg" width="86.321" height="101.935" viewBox="0 0 86.321 101.935">
  <g id="组_48" data-name="组 48" transform="translate(4.5 -5.635)">
    <path id="路径_3" data-name="路径 3" d="M167.393,264.833v-6.768c0-7.861,6.684-14.256,14.905-14.256s14.91,6.395,14.91,14.256v6.768h8.354v-6.768c0-12.264-10.437-22.243-23.263-22.243s-23.259,9.979-23.259,22.243v6.768Z" transform="translate(-143.451 -230.186)" fill="#fff"/>
    <path id="路径_4" data-name="路径 4" d="M225.659,245.761H165.7a9.578,9.578,0,0,0-9.681,9.474v40.226a9.577,9.577,0,0,0,9.681,9.47h59.963a9.577,9.577,0,0,0,9.677-9.47V255.235A9.577,9.577,0,0,0,225.659,245.761Z" transform="translate(-157.015 -200.862)" fill="none" stroke="#fff" stroke-width="7"/>
    <g id="question-mark" transform="translate(25.891 53.552)">
      <path id="路径_43" data-name="路径 43" d="M17.81,0c6.822,0,13.538,3.142,13.538,10.657,0,6.93-7.941,9.6-9.647,12.1-1.28,1.863-.853,4.48-4.371,4.48a3.392,3.392,0,0,1-3.411-3.569c0-6.346,9.325-7.783,9.325-13.009,0-2.876-1.914-4.582-5.114-4.582-6.822,0-4.158,7.033-9.325,7.033A3.189,3.189,0,0,1,5.34,9.859C5.339,4.632,11.307,0,17.81,0Zm-.265,30.7a4.372,4.372,0,1,1-4.372,4.372A4.391,4.391,0,0,1,17.545,30.7Z" transform="translate(-5.34)" fill="#fff"/>
    </g>
  </g>
</svg>
