<svg id="组_52" data-name="组 52" xmlns="http://www.w3.org/2000/svg" width="373" height="276.717" viewBox="0 0 373 276.717">
  <path id="路径_88" data-name="路径 88" d="M319.779,103.043,219.093,157.581a25.613,25.613,0,1,1-45.023,24.387l-34.331,18.6,88.928,164.178,180.041-97.52Z" transform="translate(-129.375 -97.28)" fill="#f2f2f2"/>
  <rect id="矩形_75" data-name="矩形 75" width="19.134" height="19.134" transform="translate(69.763 144.631) rotate(14.957)" fill="#45a5bf" opacity="0.2"/>
  <path id="路径_89" data-name="路径 89" d="M392.484,623.884c-14.777,22.661-10.728,51.483-10.728,51.483s28.007-7.919,42.784-30.58S435.267,593.3,435.267,593.3,407.261,601.223,392.484,623.884Z" transform="translate(-278.462 -399.924)" fill="#3f3d56"/>
  <path id="路径_90" data-name="路径 90" d="M281.481,685.406s-.36-.057-1.022-.191c-.528-.107-1.255-.26-2.143-.471-7.937-1.871-29.038-8.2-42.834-24.829-17.267-20.826-16.54-49.922-16.54-49.922s26.4,4.29,43.8,22.992q1.131,1.205,2.2,2.5c15.024,18.12,16.425,42.5,16.536,48.529C281.492,684.916,281.481,685.406,281.481,685.406Z" transform="translate(-178.266 -410.226)" fill="#45a5bf"/>
  <path id="路径_91" data-name="路径 91" d="M284.709,623.884c14.777,22.661,10.728,51.483,10.728,51.483s-28.007-7.919-42.784-30.58S241.925,593.3,241.925,593.3,269.932,601.223,284.709,623.884Z" transform="translate(-192.143 -399.924)" fill="none" stroke="#3f3d56" stroke-miterlimit="10" stroke-width="2"/>
  <path id="路径_92" data-name="路径 92" d="M351.622,721.1c-.39.471-.735.872-1.018,1.2-.628.716-.984,1.091-.984,1.091s-.432-.543-1.16-1.561c-3.991-5.564-16.831-25.349-15.84-48.2q.08-1.8.264-3.555,1.131,1.206,2.2,2.5C350.11,690.692,351.511,715.073,351.622,721.1Z" transform="translate(-248.41 -447.314)" opacity="0.1"/>
  <path id="路径_93" data-name="路径 93" d="M377.851,603.407c-1.168,27.028-21.231,48.112-21.231,48.112s-18.17-22.737-17-49.765,21.231-48.112,21.231-48.112S379.019,576.379,377.851,603.407Z" transform="translate(-252.73 -375.44)" fill="#45a5bf"/>
  <circle id="椭圆_33" data-name="椭圆 33" cx="2.501" cy="2.501" r="2.501" transform="translate(10.303 231.807)" fill="#ff6584"/>
  <line id="直线_20" data-name="直线 20" x2="104.474" transform="translate(62.378 275.36)" fill="none" stroke="#3f3d56" stroke-miterlimit="10" stroke-width="2"/>
  <line id="直线_21" data-name="直线 21" x2="49.367" transform="translate(0 275.36)" fill="none" stroke="#3f3d56" stroke-miterlimit="10" stroke-width="2"/>
  <line id="直线_22" data-name="直线 22" y1="28.476" transform="translate(25.057 247.343)" fill="#3f3d56" stroke="#3f3d56" stroke-miterlimit="10" stroke-width="2"/>
  <circle id="椭圆_34" data-name="椭圆 34" cx="4.027" cy="4.027" r="4.027" transform="translate(21.03 243.316)" fill="#3f3d56"/>
  <path id="路径_94" data-name="路径 94" d="M158.184,762.348s-.575-12.373-12.369-10.935" transform="translate(-133.127 -497.454)" fill="#3f3d56"/>
  <circle id="椭圆_35" data-name="椭圆 35" cx="7.764" cy="7.764" r="7.764" transform="translate(98.145 156.381)" fill="#3f3d56"/>
  <circle id="椭圆_36" data-name="椭圆 36" cx="5.647" cy="5.647" r="5.647" transform="translate(75.911 158.499)" fill="none" stroke="#3f3d56" stroke-miterlimit="10" stroke-width="2"/>
  <circle id="椭圆_37" data-name="椭圆 37" cx="5.647" cy="5.647" r="5.647" transform="translate(124.614 158.499)" fill="none" stroke="#3f3d56" stroke-miterlimit="10" stroke-width="2"/>
  <line id="直线_23" data-name="直线 23" y1="96.009" x2="4.411" transform="translate(103.89 179.305)" fill="none" stroke="#3f3d56" stroke-miterlimit="10" stroke-width="2"/>
  <circle id="椭圆_38" data-name="椭圆 38" cx="7.764" cy="7.764" r="7.764" transform="translate(342.109 96.851)" fill="#3f3d56"/>
  <circle id="椭圆_39" data-name="椭圆 39" cx="5.647" cy="5.647" r="5.647" transform="translate(183.637 1)" fill="none" stroke="#3f3d56" stroke-miterlimit="10" stroke-width="2"/>
  <circle id="椭圆_40" data-name="椭圆 40" cx="5.647" cy="5.647" r="5.647" transform="translate(119.448 36.207)" fill="none" stroke="#3f3d56" stroke-miterlimit="10" stroke-width="2"/>
  <circle id="椭圆_41" data-name="椭圆 41" cx="18.278" cy="18.278" r="18.278" transform="translate(232.378 31.756)" fill="#ff6584"/>
  <path id="路径_95" data-name="路径 95" d="M764.924,539.482l9.77,39.393,9.769-1.576-9.769-45.065Z" transform="translate(-472.196 -327.937)" fill="#fbbebe"/>
  <path id="路径_96" data-name="路径 96" d="M893.508,736.146s-5.564,1.881-4.83,3.146.733,9.144-1.788,11.98-8.824,11.66-1.576,11.975,14.5-4.412,14.5-4.412v-8.194l1.261,7.563h1.261V749.7s3.151-5.357,1.261-8.509-3.123-5.9-5.5-5.628S893.508,736.146,893.508,736.146Z" transform="translate(-587.545 -487.729)" fill="#2f2e41"/>
  <path id="路径_97" data-name="路径 97" d="M661.916,638.465l-1.576,8.509h11.03v-8.509Z" transform="translate(-407.635 -393.514)" fill="#fbbebe"/>
  <path id="路径_98" data-name="路径 98" d="M749,745.347s-3.151-.315-4.1,4.1-9.454,13.776-12.606,14.722-3.151,4.1.945,4.727,14.5.945,17.018-2.521,5.988-9.049,5.988-9.049l-1.576,11.886h2.836s2.521-11.57,5.042-14.407-5.042-9.454-6.3-9.454Z" transform="translate(-493.778 -493.778)" fill="#2f2e41"/>
  <path id="路径_99" data-name="路径 99" d="M648.45,391.251s-2.206,5.988-5.988,6.933-31.829,7.563-31.829,7.563-24.581.63-17.018,5.988,19.854,0,19.854,0,35.926-4.412,38.763-9.139a63.706,63.706,0,0,0,4.727-10.085Z" transform="translate(-408.667 -275.194)" fill="#fbbebe"/>
  <path id="路径_100" data-name="路径 100" d="M744.808,322.077s-17.963,29.308-15.757,29.939,22.69,7.248,23.636,4.727.945-14.181.945-14.181Z" transform="translate(-493.049 -232.492)" fill="#2f2e41"/>
  <path id="路径_101" data-name="路径 101" d="M744.808,322.077s-17.963,29.308-15.757,29.939,22.69,7.248,23.636,4.727.945-14.181.945-14.181Z" transform="translate(-493.049 -232.492)" opacity="0.1"/>
  <path id="路径_102" data-name="路径 102" d="M879.7,303.96l40.653,20.8s23.006,5.988,17.963,10.715-21.43-4.1-21.43-4.1l-45.066-20.484Z" transform="translate(-581.297 -221.308)" fill="#fbbebe"/>
  <path id="路径_103" data-name="路径 103" d="M756.529,251.294s7.879,11.975,7.248,14.812a3.869,3.869,0,0,1-.315,3.151c-.945,1.261-.63,8.824-.63,8.824l3.151,4.412,4.1-13.551,1.891-14.5s-4.254-5.83-3.624-8.666S756.529,251.294,756.529,251.294Z" transform="translate(-510.127 -185.03)" fill="#fbbebe"/>
  <path id="路径_104" data-name="路径 104" d="M787.52,439.014s-17.648,47.271-17.648,68.071-6.618,44.435-1.576,46.641,30.569,2.521,31.2,0-3.151-104.943-5.042-109.039S787.52,439.014,787.52,439.014Z" transform="translate(-516.221 -304.679)" fill="#2f2e41"/>
  <path id="路径_105" data-name="路径 105" d="M787.52,439.014s-17.648,47.271-17.648,68.071-6.618,44.435-1.576,46.641,30.569,2.521,31.2,0-3.151-104.943-5.042-109.039S787.52,439.014,787.52,439.014Z" transform="translate(-516.221 -304.679)" opacity="0.1"/>
  <circle id="椭圆_42" data-name="椭圆 42" cx="11.66" cy="11.66" r="11.66" transform="translate(238.838 44.835)" fill="#fbbebe"/>
  <path id="路径_106" data-name="路径 106" d="M770.437,285.649l-.844-7.112s-2.623,3.645-2.623,6.482-1.576,12.921,5.042,19.224,7.879,7.563,8.194,8.824,1.891,1.261,1.891,1.261l9.139,36.872s2.836,98.01,7.248,99.27,17.963,0,18.909-1.576-1.576-43.49-1.576-43.49,6.933,37.187,9.454,37.187,4.1-5.357,3.467-5.673-4.412-24.581-5.988-32.145-.945-71.537-.945-71.537,5.042-8.194-12.291-24.266c0,0-11.03-32.145-11.66-32.145s-12.921-17.333-12.921-17.333-6.933,0-8.194,4.1S770.437,285.649,770.437,285.649Z" transform="translate(-516.471 -193.857)" fill="#2f2e41"/>
  <path id="路径_107" data-name="路径 107" d="M804.292,262.013l3.782-2.521s15.757,9.454,26.787,10.085,10.715,6.933,6.3,11.345-21.745,19.539-22.375,15.757S804.292,262.013,804.292,262.013Z" transform="translate(-539.612 -193.857)" fill="#2f2e41"/>
  <ellipse id="椭圆_43" data-name="椭圆 43" cx="12.606" cy="7.563" rx="12.606" ry="7.563" transform="translate(238.051 37.429)" fill="#ff6584"/>
  <circle id="椭圆_44" data-name="椭圆 44" cx="7.563" cy="7.563" r="7.563" transform="translate(244.354 24.193)" fill="#ff6584"/>
  <path id="路径_108" data-name="路径 108" d="M742.047,148.06a7.564,7.564,0,0,1,6.775-7.523,7.645,7.645,0,0,0-.787-.041,7.563,7.563,0,0,0,0,15.127,7.642,7.642,0,0,0,.786-.041A7.564,7.564,0,0,1,742.047,148.06Z" transform="translate(-500.214 -120.4)" fill="#ff6584"/>
  <circle id="椭圆_45" data-name="椭圆 45" cx="20.786" cy="20.786" r="20.786" transform="translate(45.253 52.377)" fill="#45a5bf"/>
  <line id="直线_24" data-name="直线 24" x2="150.014" transform="translate(189.622 275.529)" fill="none" stroke="#3f3d56" stroke-miterlimit="10" stroke-width="2"/>
  <path id="路径_109" data-name="路径 109" d="M1026.092,262.125l-18.169,18.169-7.637-7.637a2.611,2.611,0,0,0-3.692,0l-.274-.41c-1.019,1.019-.745,3.083.274,4.1l9.909,9.908a1.992,1.992,0,0,0,2.816,0l20.463-20.442c1.02-1.019,1.39-2.888.371-3.907h0A3.088,3.088,0,0,0,1026.092,262.125Z" transform="translate(-657.757 -194.939)" fill="#45a5bf"/>
  <path id="路径_110" data-name="路径 110" d="M1026.092,262.125l-18.169,18.169-7.637-7.637a2.611,2.611,0,0,0-3.692,0l-.274-.41c-1.019,1.019-.745,3.083.274,4.1l9.909,9.908a1.992,1.992,0,0,0,2.816,0l20.463-20.442c1.02-1.019,1.39-2.888.371-3.907h0A3.088,3.088,0,0,0,1026.092,262.125Z" transform="translate(-657.757 -194.939)" opacity="0.1"/>
  <path id="路径_111" data-name="路径 111" d="M1026.336,260.207l-18.169,18.169-7.637-7.637a2.611,2.611,0,0,0-3.692,0h0a2.611,2.611,0,0,0,0,3.692l9.909,9.908a1.992,1.992,0,0,0,2.816,0l20.463-20.442a2.61,2.61,0,0,0,0-3.692h0A2.61,2.61,0,0,0,1026.336,260.207Z" transform="translate(-658 -193.827)" fill="#45a5bf"/>
</svg>
