<svg xmlns="http://www.w3.org/2000/svg" width="102.758" height="111.694" viewBox="0 0 102.758 111.694">
  <g id="组_365" data-name="组 365" transform="translate(-1046.12 -138.526)">
    <path id="联合_160" data-name="联合 160" d="M-7913.925,4417.657a52.243,52.243,0,0,1-6.7.431,51.064,51.064,0,0,1-20-4.037,51.226,51.226,0,0,1-16.33-11.012,51.237,51.237,0,0,1-11.012-16.332,51.062,51.062,0,0,1-4.037-20,51.83,51.83,0,0,1,.944-9.872l4.5,4.5a47.366,47.366,0,0,0-.306,5.37,45.953,45.953,0,0,0,3.635,18,46.048,46.048,0,0,0,9.91,14.7,46.076,46.076,0,0,0,14.7,9.912,45.937,45.937,0,0,0,18,3.633c1.3,0,2.6-.054,3.887-.161l-1.67-2.892,19.521-2.9-12.274,15.454Zm43.736-41.08-4.5-4.5a46.907,46.907,0,0,0,.306-5.368,45.967,45.967,0,0,0-3.633-18,46.081,46.081,0,0,0-9.908-14.7,46.084,46.084,0,0,0-14.7-9.909,45.907,45.907,0,0,0-18-3.633c-1.1,0-2.21.039-3.309.115l1.57,2.72-19.519,2.9,12.272-15.454,2.85,4.938a52.219,52.219,0,0,1,6.135-.362,51.014,51.014,0,0,1,20,4.04,51.187,51.187,0,0,1,16.332,11.01,51.165,51.165,0,0,1,11.01,16.332,51.007,51.007,0,0,1,4.04,20,51.82,51.82,0,0,1-.944,9.867v0Z" transform="translate(9018.121 -4172.229)" fill="#fff"/>
    <g id="组_48" data-name="组 48" transform="translate(1075.345 160)">
      <path id="路径_3" data-name="路径 3" d="M163.839,252.492V248.6a8.575,8.575,0,0,1,17.133,0v3.889h4.8V248.6c0-7.047-6-12.782-13.368-12.782s-13.365,5.734-13.365,12.782v3.889Z" transform="translate(-149.66 -235.821)" fill="#fff"/>
      <path id="路径_4" data-name="路径 4" d="M196.035,245.761H161.578a5.5,5.5,0,0,0-5.563,5.444v23.115a5.5,5.5,0,0,0,5.563,5.442h34.457a5.5,5.5,0,0,0,5.561-5.442V251.205A5.5,5.5,0,0,0,196.035,245.761Z" transform="translate(-156.015 -223.198)" fill="none" stroke="#fff" stroke-width="5"/>
      <path id="联合_159" data-name="联合 159" d="M3.448,15.09V10.8a5.321,5.321,0,1,1,5.746,0v4.29a2.873,2.873,0,0,1-5.746,0Z" transform="translate(16.377 30.131)" fill="none" stroke="#fff" stroke-width="4"/>
    </g>
  </g>
</svg>
