<svg xmlns="http://www.w3.org/2000/svg" width="82.137" height="84.456" viewBox="0 0 82.137 84.456">
  <path id="路径_278" data-name="路径 278" d="M69.447,44.779V6.8H12.765V77.654H38.839a3.4,3.4,0,1,1,0,6.8H9.364a3.411,3.411,0,0,1-3.4-3.4V3.4A3.411,3.411,0,0,1,9.364,0H72.848a3.411,3.411,0,0,1,3.4,3.4V44.779a3.4,3.4,0,1,1-6.8,0Zm17.515,8.276a3.409,3.409,0,0,0-4.818.283L63.5,74.083l-9.353-9.012A3.408,3.408,0,1,0,49.438,70l11.9,11.45a3.341,3.341,0,0,0,2.381.964h.113a3.4,3.4,0,0,0,2.381-1.134L87.188,57.929A3.421,3.421,0,0,0,86.962,53.054ZM56.977,19.839H26.369a3.4,3.4,0,0,0,0,6.8H56.977a3.4,3.4,0,0,0,0-6.8Zm3.4,22.106a3.411,3.411,0,0,0-3.4-3.4H26.369a3.4,3.4,0,0,0,0,6.8H56.977A3.411,3.411,0,0,0,60.378,41.945ZM26.369,56.682a3.4,3.4,0,0,0,0,6.8h9.069a3.4,3.4,0,0,0,0-6.8Z" transform="translate(-5.963 0)" fill="#fff"/>
</svg>
