<svg id="draw" xmlns="http://www.w3.org/2000/svg" width="417.317" height="324" viewBox="0 0 417.317 324">
  <path id="路径_20" data-name="路径 20" d="M424.106,258.578,341.23,155.014a27.825,27.825,0,0,1-13.4,6.768c-15.6,3.073-30.839-7.582-34.033-23.8a30.058,30.058,0,0,1,10.376-29.28L275.913,73.392l-160.99,137.59L263.116,396.168Z" transform="translate(-114.923 -73.392)" fill="#f2f2f2"/>
  <path id="路径_21" data-name="路径 21" d="M321.116,308.428l-69.051,14.11a13.353,13.353,0,0,0-9.556,18.442l78.719,179.613a17.541,17.541,0,0,0,21.207,9.729L422,505.829a14.986,14.986,0,0,0,8.822-21.36L342.063,317.581A19.852,19.852,0,0,0,321.116,308.428Z" transform="translate(-186.987 -207.097)" fill="#3f3d56"/>
  <path id="路径_22" data-name="路径 22" d="M257.288,326.363l11.354-2.239h0a8.057,8.057,0,0,0,8.683,4.435l41.028-7.364a2.878,2.878,0,0,0,2.222-3.743l-1.116-3.348,11.3-2.228a11.2,11.2,0,0,1,12,5.639l91.917,169.157a11.157,11.157,0,0,1-6.556,16L349.784,526.5a14.031,14.031,0,0,1-16.879-7.667L251.423,337.719a8.162,8.162,0,0,1,5.864-11.356Z" transform="translate(-192.298 -209.17)" fill="#45a5bf"/>
  <line id="直线_13" data-name="直线 13" x1="16.776" y2="3.441" transform="translate(97.066 109.717)" fill="none" stroke="#2f2e41" stroke-miterlimit="10" stroke-width="2"/>
  <ellipse id="椭圆_8" data-name="椭圆 8" cx="1.721" cy="1.506" rx="1.721" ry="1.506" transform="translate(91.044 112.298)" fill="#2f2e41"/>
  <path id="路径_23" data-name="路径 23" d="M241.654,273l73.987,158.727,102.807-27.96v-3.441L338.439,251.064l-95.064,20.648-.452.34Z" transform="translate(-137.705 -143.067)" fill="#fff"/>
  <path id="路径_24" data-name="路径 24" d="M241.654,300.8l73.987,158.727,102.807-27.96v-3.441l-102.377,28.82-73.148-157.1Z" transform="translate(-137.705 -170.87)" opacity="0.2"/>
  <line id="直线_14" data-name="直线 14" x1="75.707" y2="19.357" transform="translate(160.299 197.039)" fill="#3f3d56" stroke="#3f3d56" stroke-miterlimit="10" stroke-width="2"/>
  <line id="直线_15" data-name="直线 15" x1="76.138" y2="19.787" transform="translate(164.171 205.212)" fill="#3f3d56" stroke="#3f3d56" stroke-miterlimit="10" stroke-width="2"/>
  <line id="直线_16" data-name="直线 16" x1="47.747" y2="12.905" transform="translate(182.667 216.396)" fill="#3f3d56" stroke="#3f3d56" stroke-miterlimit="10" stroke-width="2"/>
  <path id="路径_25" data-name="路径 25" d="M434.654,566.98l6.973,15.18.34.736,1.187-.3L500.9,567.84v-2.151l-7.743-14.625L435.944,566.55l-.512.172Z" transform="translate(-247.685 -314.021)" fill="#45a5bf"/>
  <path id="路径_26" data-name="路径 26" d="M434.654,586.354l6.973,15.18.34.736,1.187-.3L500.9,587.215v-2.151L442.827,600.55,435.433,586.1Z" transform="translate(-247.685 -333.395)" opacity="0.2"/>
  <path id="路径_41" data-name="路径 41" d="M323.031,0" transform="translate(94.286 323.72)" fill="none" stroke="#3f3d56" stroke-width="2"/>
  <path id="路径_27" data-name="路径 27" d="M507.163,429.014c-4.926-12.873-18.528-20.251-29.447-16.775-10.009,3.186-14.121,14.493-9.914,25.487s15.654,18.857,26.348,17.461C505.816,453.663,512.089,441.887,507.163,429.014Z" transform="translate(-315.076 -265.993)" fill="#3f3d56" stroke="#3f3d56" stroke-miterlimit="10" stroke-width="2"/>
  <path id="路径_28" data-name="路径 28" d="M507.163,429.014c-4.926-12.873-18.528-20.251-29.447-16.775-10.009,3.186-14.121,14.493-9.914,25.487s15.654,18.857,26.348,17.461C505.816,453.663,512.089,441.887,507.163,429.014Z" transform="translate(-315.076 -265.993)" opacity="0.2"/>
  <path id="路径_29" data-name="路径 29" d="M512.163,424.014c-4.926-12.873-18.528-20.251-29.447-16.775-10.009,3.186-14.121,14.493-9.914,25.487s15.654,18.857,26.348,17.461C510.816,448.663,517.089,436.887,512.163,424.014Z" transform="translate(-317.925 -263.144)" fill="#3f3d56" stroke="#3f3d56" stroke-miterlimit="10" stroke-width="2"/>
  <circle id="椭圆_9" data-name="椭圆 9" cx="6.347" cy="6.347" r="6.347" transform="translate(260.104 18.136)" fill="none" stroke="#3f3d56" stroke-miterlimit="10" stroke-width="2"/>
  <circle id="椭圆_10" data-name="椭圆 10" cx="6.347" cy="6.347" r="6.347" transform="translate(343.984 202.672)" fill="none" stroke="#3f3d56" stroke-miterlimit="10" stroke-width="2"/>
  <circle id="椭圆_11" data-name="椭圆 11" cx="6.347" cy="6.347" r="6.347" transform="translate(67.079 34.051)" fill="none" stroke="#3f3d56" stroke-miterlimit="10" stroke-width="2"/>
  <circle id="椭圆_12" data-name="椭圆 12" cx="23.364" cy="23.364" r="23.364" transform="translate(182.843 36.741)" fill="#f2f2f2"/>
  <circle id="椭圆_13" data-name="椭圆 13" cx="15.83" cy="15.83" r="15.83" transform="translate(282.248 85.221)" fill="#2f2e41"/>
  <path id="路径_30" data-name="路径 30" d="M722.967,693.785l3.011,12.9h-7.313l-3.011-14.625Z" transform="translate(-407.811 -394.369)" fill="#9f616a"/>
  <path id="路径_31" data-name="路径 31" d="M640.967,696.064v12.044l-7.313.86v-12.9Z" transform="translate(-361.084 -396.648)" fill="#9f616a"/>
  <path id="路径_32" data-name="路径 32" d="M833.772,450.888s-.86,18.5-1.721,19.787-8.6,19.787-8.6,19.787l-3.871-12.044s6.022-9.894,5.162-15.486a64.27,64.27,0,0,1-.318-12.473Z" transform="translate(-516.466 -288.262)" fill="#9f616a"/>
  <circle id="椭圆_14" data-name="椭圆 14" cx="12.044" cy="12.044" r="12.044" transform="translate(280.743 93.801)" fill="#9f616a"/>
  <path id="路径_33" data-name="路径 33" d="M799.2,322.456s-.43,17.206,2.581,19.787-17.206.43-17.206.43,4.3-12.044.86-14.625S799.2,322.456,799.2,322.456Z" transform="translate(-496.522 -215.32)" fill="#9f616a"/>
  <path id="路径_34" data-name="路径 34" d="M747.464,361.721s2.581-4.732,6.022-4.3,14.625,1.29,15.055,2.151,1.721,3.871,2.581,4.732,7.313,2.151,7.743,7.313-15.486,36.563-15.486,36.563,2.151,7.313,1.721,9.033,2.151,6.882,1.721,9.033,6.452,15.055,3.011,31.831v27.1s11.614,46.887,8.173,50.328-15.055,1.29-17.206,0-11.184-66.244-11.184-66.244l-4.3-21.938-.43,48.177s.86,40.435-2.151,41.725-14.625,1.721-15.486-.86c-.671-2.013-3.959-55.571-5.373-79.048a87.716,87.716,0,0,1,1.894-24.164c1.79-8.12,4.39-17.661,7.351-21.533,5.592-7.313,9.033-30.541,9.033-30.541l-7.313-13.335s4.3-4.3,6.883-4.3S747.464,361.721,747.464,361.721Z" transform="translate(-460.7 -235.228)" fill="#2f2e41"/>
  <path id="路径_35" data-name="路径 35" d="M837.458,383.456,839.726,385s1.6,27.707.312,29.427-10.262.881-10.938-.635S837.458,383.456,837.458,383.456Z" transform="translate(-521.872 -250.08)" fill="#2f2e41"/>
  <path id="路径_36" data-name="路径 36" d="M707.944,438.833c1.259,8.735,2.363,16.511-4.076,23.546a120.814,120.814,0,0,1-21.737,18.829c-.79,2.092-12.382,17.452-12.972,11.325s3.415-10.931,9.107-16.112S691.921,460,696.413,453.829s2.643-10.015,2.487-15.168S706.178,438.9,707.944,438.833Z" transform="translate(-430.719 -280.266)" fill="#9f616a"/>
  <path id="路径_37" data-name="路径 37" d="M740.55,781.255s-.43,4.818-1.721,6.109-4.732,3.011-4.3,7.743,3.226,4.947,3.226,4.947l-.215-1.076,1.29.43.215.645h12.044a38.778,38.778,0,0,0-.215-6.667c-.43-2.151-.43-12.474-1.721-12.044s-4.732.86-5.592,2.581S740.12,785.04,740.55,781.255Z" transform="translate(-467.98 -476.764)" fill="#2f2e41"/>
  <path id="路径_38" data-name="路径 38" d="M836.544,781.255s.43,4.818,1.721,6.109,4.732,3.011,4.3,7.743-3.226,4.947-3.226,4.947l.215-1.076-1.29.43-.215.645H826.006a38.785,38.785,0,0,1,.215-6.667c.43-2.151.43-12.474,1.721-12.044s4.732.86,5.592,2.581S836.975,785.04,836.544,781.255Z" transform="translate(-520.099 -476.764)" fill="#2f2e41"/>
  <path id="路径_39" data-name="路径 39" d="M746.347,378.456l-6.022,1.29s0,9.463-1.721,13.335-4.732,12.9-3.441,13.335,13.335,6.452,14.2,3.011S752.369,378.456,746.347,378.456Z" transform="translate(-468.185 -247.231)" fill="#2f2e41"/>
  <circle id="椭圆_15" data-name="椭圆 15" cx="15.83" cy="15.83" r="15.83" transform="translate(299.397 64.379)" fill="#2f2e41"/>
  <path id="路径_40" data-name="路径 40" d="M847.1,270.718a15.831,15.831,0,0,1-24.445-8.312,15.831,15.831,0,1,0,30.879-6.492,15.825,15.825,0,0,1-6.434,14.8Z" transform="translate(-518.221 -177.401)" fill="#2f2e41"/>
  <circle id="椭圆_16" data-name="椭圆 16" cx="11.608" cy="11.608" r="11.608" transform="translate(290.691 92.081)" fill="#2f2e41"/>
  <ellipse id="椭圆_17" data-name="椭圆 17" cx="10.289" cy="8.047" rx="10.289" ry="8.047" transform="translate(282.248 91.289)" fill="#2f2e41"/>
  <ellipse id="椭圆_18" data-name="椭圆 18" cx="1.953" cy="3.455" rx="1.953" ry="3.455" transform="translate(287.84 104.126)" fill="#a0616a"/>
</svg>
