<svg xmlns="http://www.w3.org/2000/svg" width="217" height="48" viewBox="0 0 217 48">
  <g id="组_247" data-name="组 247" transform="translate(-940 -1153)">
    <text id="黑色區域為你選擇的票區_點擊可切換票區" data-name="黑色區域為你選擇的票區
點擊可切換票區" transform="translate(981 1172)" font-size="16" font-family="NotoSansCJKtc-Medium, Noto Sans CJK TC" font-weight="500"><tspan x="0" y="0">黑色區域為你選擇的票區</tspan><tspan x="0" y="24">點擊可切換票區</tspan></text>
    <g id="组_9" data-name="组 9" transform="translate(868.153 1019.382)">
      <path id="路径_50" data-name="路径 50" d="M93.077,139.482v-1.864H89.35v1.864h3.727Z" transform="translate(-8.185)"/>
      <path id="路径_51" data-name="路径 51" d="M96.351,144.846v13.045h1.863v-7.454h3.727v-1.864H98.214v-7.454H96.351v3.727Z" transform="translate(-11.459 -1.637)"/>
      <path id="路径_52" data-name="路径 52" d="M106.852,162.349v3.727h1.864v-5.591h3.727v-1.864h-5.591v3.727Z" transform="translate(-16.37 -9.822)"/>
      <path id="路径_53" data-name="路径 53" d="M117.354,165.85v3.727h1.864v-5.591h1.863v-1.863h-3.727v3.727Z" transform="translate(-21.281 -11.459)"/>
      <rect id="矩形_38" data-name="矩形 38" width="1.864" height="1.864" transform="translate(99.801 152.527)"/>
      <path id="路径_54" data-name="路径 54" d="M127.856,169.124v13.046h1.863V169.124Z" transform="translate(-26.192 -14.733)"/>
      <path id="路径_55" data-name="路径 55" d="M124.355,195.491v3.727h1.864v-5.591h-1.864Z" transform="translate(-24.555 -26.192)"/>
      <path id="路径_56" data-name="路径 56" d="M106.122,205.993v1.864H91.213v-3.727H89.35v5.591h18.636v-5.591h-1.863Z" transform="translate(-8.185 -31.102)"/>
      <path id="路径_57" data-name="路径 57" d="M84.212,159.755v3.727h1.864V141.119H84.212v16.773H82.348v1.864Z" transform="translate(-4.911 -1.637)"/>
      <path id="路径_58" data-name="路径 58" d="M73.71,170.987h3.727v-1.864H71.846v5.591H73.71v-3.727Z" transform="translate(0 -14.733)"/>
      <rect id="矩形_39" data-name="矩形 39" width="1.864" height="1.864" transform="translate(73.71 159.982)"/>
      <path id="路径_59" data-name="路径 59" d="M80.711,183.126H78.848v3.727h1.864v-3.727Z" transform="translate(-3.274 -21.281)"/>
      <path id="路径_60" data-name="路径 60" d="M84.212,190.127H82.348v3.727h1.864v-3.727Z" transform="translate(-4.911 -24.555)"/>
      <path id="路径_61" data-name="路径 61" d="M87.712,197.128H85.849v3.727h1.864v-3.727Z" transform="translate(-6.548 -27.828)"/>
    </g>
  </g>
</svg>
