<svg xmlns="http://www.w3.org/2000/svg" width="40.392" height="40.279" viewBox="0 0 40.392 40.279">
  <g id="组_116" data-name="组 116" transform="translate(40.392 0.146) rotate(90)">
    <ellipse id="椭圆_64" data-name="椭圆 64" cx="20.139" cy="20.139" rx="20.139" ry="20.139" transform="translate(-0.146)" fill="#e5b822"/>
    <path id="减去_7" data-name="减去 7" d="M20.142,40.28A20.144,20.144,0,0,1,12.3,1.585,20.021,20.021,0,0,1,20.142,0a20.248,20.248,0,0,1,4.026.4V8.036a12.754,12.754,0,1,0,0,24.212v7.631A20.274,20.274,0,0,1,20.142,40.28Z" transform="translate(0 0.112)" fill="rgba(0,0,0,0.1)"/>
    <path id="减去_9" data-name="减去 9" d="M20.142,40.28A20.144,20.144,0,0,1,12.3,1.585,20.021,20.021,0,0,1,20.142,0a20.248,20.248,0,0,1,4.026.4V8.036a12.754,12.754,0,1,0,0,24.212v7.631A20.274,20.274,0,0,1,20.142,40.28Z" transform="translate(0.001 0.112)" fill="rgba(0,0,0,0.1)"/>
    <g id="rectangular-closed-padlock-lock-interface-symbol" transform="translate(665.801 -740.347)">
      <g id="组_126" data-name="组 126" transform="translate(-653.332 767.8) rotate(-90)">
        <path id="路径_179" data-name="路径 179" d="M9.752,8.018V4.876A4.876,4.876,0,1,0,0,4.876V8.018H2.438V4.876a2.438,2.438,0,1,1,4.876,0V8.018Z" transform="translate(2.438)"/>
        <path id="路径_180" data-name="路径 180" d="M0,2.438v6.1a2.438,2.438,0,0,0,2.438,2.438h9.752a2.438,2.438,0,0,0,2.438-2.438v-6.1A2.438,2.438,0,0,0,12.19,0H2.438A2.438,2.438,0,0,0,0,2.438ZM7.314,3.657A1.219,1.219,0,0,1,8.533,4.876a1.2,1.2,0,0,1-.61,1.032V7.924a.61.61,0,0,1-1.219,0V5.908A1.2,1.2,0,0,1,6.1,4.876,1.219,1.219,0,0,1,7.314,3.657Z" transform="translate(0 8.533)"/>
      </g>
    </g>
  </g>
</svg>
