<svg xmlns="http://www.w3.org/2000/svg" width="40.281" height="40.28" viewBox="0 0 40.281 40.28">
  <g id="组_122" data-name="组 122" transform="translate(40.282) rotate(90)">
    <ellipse id="椭圆_64" data-name="椭圆 64" cx="20.139" cy="20.139" rx="20.139" ry="20.139" transform="translate(0.001 0.002)" fill="#999"/>
    <path id="减去_7" data-name="减去 7" d="M20.142,40.28A20.144,20.144,0,0,1,12.3,1.585,20.021,20.021,0,0,1,20.142,0a20.248,20.248,0,0,1,4.026.4V8.036a12.754,12.754,0,1,0,0,24.212v7.631A20.274,20.274,0,0,1,20.142,40.28Z" fill="rgba(0,0,0,0.1)"/>
    <path id="减去_9" data-name="减去 9" d="M20.142,40.28A20.144,20.144,0,0,1,12.3,1.585,20.021,20.021,0,0,1,20.142,0a20.248,20.248,0,0,1,4.026.4V8.036a12.754,12.754,0,1,0,0,24.212v7.631A20.274,20.274,0,0,1,20.142,40.28Z" transform="translate(0.001)" fill="rgba(0,0,0,0.1)"/>
  </g>
</svg>
