<svg id="群組" xmlns="http://www.w3.org/2000/svg" xmlns:xlink="http://www.w3.org/1999/xlink" width="138.454" height="46" viewBox="0 0 138.454 46">
  <defs>
    <clipPath id="clip-path">
      <path id="遮罩" d="M0,14.375q0-.393.026-.782A5.056,5.056,0,0,1,0,13.085V5A5,5,0,0,1,5,0H30a5,5,0,0,1,5,5v8.085a5.056,5.056,0,0,1-.026.508q.025.388.026.782c0,7.939-7.835,14.375-17.5,14.375S0,22.314,0,14.375Z" fill="#55ac41"/>
    </clipPath>
  </defs>
  <g id="群組_3" data-name="群組 3">
    <path id="合併形狀" d="M14.908,29.389a14.92,14.92,0,0,1-10.541-4.3,14.546,14.546,0,0,1,0-20.781,15.061,15.061,0,0,1,21.083,0,14.546,14.546,0,0,1,0,20.781A14.92,14.92,0,0,1,14.908,29.389ZM15.144,4.2a10.893,10.893,0,0,0-7.7,3.142,10.622,10.622,0,0,0,0,15.174,10.918,10.918,0,0,0,18.581-7.587,10.582,10.582,0,0,0-3.188-7.587A10.893,10.893,0,0,0,15.144,4.2Z" transform="translate(2.593)" fill="#999"/>
    <g id="矩形" transform="translate(0 17.25)">
      <path id="遮罩-2" data-name="遮罩" d="M0,14.375q0-.393.026-.782A5.056,5.056,0,0,1,0,13.085V5A5,5,0,0,1,5,0H30a5,5,0,0,1,5,5v8.085a5.056,5.056,0,0,1-.026.508q.025.388.026.782c0,7.939-7.835,14.375-17.5,14.375S0,22.314,0,14.375Z" fill="#55ac41"/>
      <g id="矩形-2" data-name="矩形" clip-path="url(#clip-path)">
        <rect id="矩形-3" data-name="矩形" width="20.811" height="57.964" transform="translate(17.973 -25.504)" fill="#4da438"/>
      </g>
    </g>
    <path id="_" data-name="" d="M18.717,1.837a.616.616,0,0,1,.079.24.616.616,0,0,1-.079.24L8.842,15.094q-.238.24-.357.24a.57.57,0,0,1-.4-.2L.2,8.573l-.119-.12A.616.616,0,0,1,0,8.213a.7.7,0,0,1,.079-.2l.079-.08Q1.269,6.736,1.9,6.1q.238-.24.317-.24a.649.649,0,0,1,.4.24l5.471,4.245L16.02.08A.322.322,0,0,1,16.258,0a.636.636,0,0,1,.278.08Z" transform="translate(8.75 23)" fill="#fff"/>
  </g>
  <g id="群組_2" data-name="群組 2" transform="translate(42 7)">
    <path id="SECURE" d="M56.264,19.108a8.175,8.175,0,0,1-2.89-.5,6.91,6.91,0,0,1-2.314-1.426,6.434,6.434,0,0,1-1.535-2.247,7.708,7.708,0,0,1-.55-2.966V.463H52.2v11.4a5.209,5.209,0,0,0,.2,1.4,3.966,3.966,0,0,0,.678,1.348,3.64,3.64,0,0,0,1.254,1.015,4.885,4.885,0,0,0,3.862,0,3.657,3.657,0,0,0,1.253-1.015,3.965,3.965,0,0,0,.678-1.348,5.169,5.169,0,0,0,.2-1.4V.463h3.223V11.968a7.539,7.539,0,0,1-.562,2.966,6.687,6.687,0,0,1-1.535,2.247,6.761,6.761,0,0,1-2.3,1.426A8.175,8.175,0,0,1,56.264,19.108Zm-16.137,0a10.571,10.571,0,0,1-3.849-.68,8.642,8.642,0,0,1-5-4.919,10.167,10.167,0,0,1-.716-3.878,10.617,10.617,0,0,1,.716-3.968A8.935,8.935,0,0,1,33.26,2.62,8.726,8.726,0,0,1,36.277.68,10.571,10.571,0,0,1,40.127,0,8.833,8.833,0,0,1,43.54.655a8.01,8.01,0,0,1,2.929,2.221l-2.506,1.85a5.415,5.415,0,0,0-1.931-1.438,5.241,5.241,0,0,0-1.88-.36,6.257,6.257,0,0,0-2.544.5,5.835,5.835,0,0,0-1.957,1.387,6.346,6.346,0,0,0-1.266,2.067,7.136,7.136,0,0,0-.447,2.543,7.869,7.869,0,0,0,.447,2.7,6.36,6.36,0,0,0,1.266,2.132,5.883,5.883,0,0,0,1.957,1.412,6.134,6.134,0,0,0,2.544.514,4.679,4.679,0,0,0,2.136-.526,5.865,5.865,0,0,0,1.93-1.682l2.66,1.9a7.293,7.293,0,0,1-2.993,2.465A9.329,9.329,0,0,1,40.127,19.108Zm-34.193,0a9.519,9.519,0,0,1-3.248-.564A6.27,6.27,0,0,1,0,16.643l2.43-2.363a4.056,4.056,0,0,0,1.547,1.4,4.312,4.312,0,0,0,3.158.347,3.579,3.579,0,0,0,1.023-.463,2.415,2.415,0,0,0,.742-.783,2.113,2.113,0,0,0,.281-1.092,1.911,1.911,0,0,0-.639-1.541,5.665,5.665,0,0,0-1.586-.912c-.631-.248-1.328-.486-2.072-.707a8.893,8.893,0,0,1-2.071-.912A5.063,5.063,0,0,1,1.228,8.078,4.629,4.629,0,0,1,.589,5.5a4.938,4.938,0,0,1,.575-2.44A5.289,5.289,0,0,1,2.672,1.348,6.615,6.615,0,0,1,4.808.334,9.237,9.237,0,0,1,7.263,0a8.922,8.922,0,0,1,2.775.437,6.449,6.449,0,0,1,2.417,1.438L10.1,4.366A3,3,0,0,0,8.734,3.274a4.836,4.836,0,0,0-1.8-.346,4.576,4.576,0,0,0-1.087.129,2.934,2.934,0,0,0-.946.41A2.149,2.149,0,0,0,4.22,4.2a2.123,2.123,0,0,0-.257,1.066A1.676,1.676,0,0,0,4.6,6.678a6.3,6.3,0,0,0,1.586.847c.632.239,1.329.473,2.071.694a8.451,8.451,0,0,1,2.072.924,5.179,5.179,0,0,1,1.586,1.567,4.7,4.7,0,0,1,.639,2.594,5.784,5.784,0,0,1-.536,2.555,5.216,5.216,0,0,1-1.445,1.811,6.277,6.277,0,0,1-2.11,1.079A8.8,8.8,0,0,1,5.934,19.108Zm64.805-.461H67.516V.463h6.292a12.782,12.782,0,0,1,2.519.244,6.473,6.473,0,0,1,2.161.834A4.39,4.39,0,0,1,80,3.133a5.167,5.167,0,0,1,.563,2.543,5.1,5.1,0,0,1-1.086,3.313,4.681,4.681,0,0,1-3.108,1.618l4.807,8.037-3.886,0-4.194-7.7H70.739v7.7Zm0-15.411V8.168h2.506c.46,0,.925-.022,1.382-.065a4.229,4.229,0,0,0,1.265-.308,2.179,2.179,0,0,0,.934-.745,2.39,2.39,0,0,0,.357-1.4,2.253,2.253,0,0,0-.332-1.284,2.081,2.081,0,0,0-.869-.732,4.013,4.013,0,0,0-1.189-.321,10.959,10.959,0,0,0-1.266-.077Zm25.344,15.41H83.628V.463H95.622V3.39H86.851V7.859h8.312v2.928H86.851v4.931h9.232v2.928Zm-67.721,0H15.908V.463H27.9V3.39H19.13V7.859h8.311v2.928H19.13v4.931h9.232v2.928Z" transform="translate(0.371 0.616)" fill="#fff"/>
    <path id="SSLENCRYPTION" d="M82,8.6a4.776,4.776,0,0,1-1.732-.307,3.89,3.89,0,0,1-2.25-2.213,4.577,4.577,0,0,1-.322-1.745,4.776,4.776,0,0,1,.322-1.786,4.034,4.034,0,0,1,.892-1.37A3.93,3.93,0,0,1,80.266.307,4.776,4.776,0,0,1,82,0h.068a4.833,4.833,0,0,1,1.681.284,3.825,3.825,0,0,1,1.37.861,3.975,3.975,0,0,1,.9,1.364,4.74,4.74,0,0,1,.323,1.78,4.583,4.583,0,0,1-.323,1.745,4.011,4.011,0,0,1-.9,1.352,4.118,4.118,0,0,1-1.37.885A4.86,4.86,0,0,1,82,8.6Zm.012-7.282a2.824,2.824,0,0,0-1.146.226,2.638,2.638,0,0,0-.88.624,2.855,2.855,0,0,0-.57.931,3.215,3.215,0,0,0-.2,1.144,3.547,3.547,0,0,0,.2,1.214,2.861,2.861,0,0,0,.57.959,2.676,2.676,0,0,0,.88.635,2.767,2.767,0,0,0,1.146.231,2.8,2.8,0,0,0,1.15-.231,2.642,2.642,0,0,0,.886-.635,2.861,2.861,0,0,0,.57-.959,3.546,3.546,0,0,0,.2-1.214,3.215,3.215,0,0,0-.2-1.144,2.854,2.854,0,0,0-.57-.931,2.62,2.62,0,0,0-.886-.624A2.855,2.855,0,0,0,82.01,1.318ZM43.2,8.6a4.83,4.83,0,0,1-1.732-.307,3.89,3.89,0,0,1-2.25-2.213A4.506,4.506,0,0,1,38.9,4.334a4.7,4.7,0,0,1,.322-1.786,4.022,4.022,0,0,1,.892-1.37A3.929,3.929,0,0,1,41.471.307,4.83,4.83,0,0,1,43.2,0a3.914,3.914,0,0,1,1.536.3,3.587,3.587,0,0,1,1.318,1l-1.128.832a2.455,2.455,0,0,0-.868-.647,2.424,2.424,0,0,0-.846-.162,2.762,2.762,0,0,0-1.145.226,2.633,2.633,0,0,0-.881.624,2.885,2.885,0,0,0-.57.931,3.22,3.22,0,0,0-.2,1.144,3.553,3.553,0,0,0,.2,1.214,2.9,2.9,0,0,0,.57.959,2.6,2.6,0,0,0,.881.635,2.707,2.707,0,0,0,1.145.231,2.106,2.106,0,0,0,.961-.238,2.632,2.632,0,0,0,.868-.757l1.2.856a3.279,3.279,0,0,1-1.346,1.109A4.2,4.2,0,0,1,43.2,8.6ZM9.275,8.6a4.179,4.179,0,0,1-1.461-.255A2.821,2.821,0,0,1,6.606,7.49L7.7,6.426a1.838,1.838,0,0,0,.7.63,1.888,1.888,0,0,0,.915.226,1.924,1.924,0,0,0,.506-.069A1.343,1.343,0,0,0,10.277,7a1.065,1.065,0,0,0,.334-.352.95.95,0,0,0,.126-.491.858.858,0,0,0-.287-.693,2.79,2.79,0,0,0-.714-.41c-.264-.1-.578-.21-.932-.318a4.094,4.094,0,0,1-.932-.41,2.279,2.279,0,0,1-.713-.694,2.092,2.092,0,0,1-.288-1.161,2.217,2.217,0,0,1,.259-1.1A2.352,2.352,0,0,1,7.808.608,3,3,0,0,1,8.77.15,4,4,0,0,1,9.874,0a4.146,4.146,0,0,1,1.249.2A2.9,2.9,0,0,1,12.21.844L11.152,1.966a1.372,1.372,0,0,0-.616-.491,2.251,2.251,0,0,0-.812-.157,2.2,2.2,0,0,0-.489.059,1.33,1.33,0,0,0-.426.184.974.974,0,0,0-.305.329.952.952,0,0,0-.115.48.752.752,0,0,0,.288.635,2.826,2.826,0,0,0,.713.382c.356.132.661.234.932.312a3.875,3.875,0,0,1,.932.416,2.32,2.32,0,0,1,.714.7,2.114,2.114,0,0,1,.287,1.167,2.59,2.59,0,0,1-.241,1.15,2.383,2.383,0,0,1-.651.815,2.946,2.946,0,0,1-.949.486A4.115,4.115,0,0,1,9.275,8.6ZM2.67,8.6a4.182,4.182,0,0,1-1.462-.255A2.827,2.827,0,0,1,0,7.49L1.094,6.426a1.838,1.838,0,0,0,.7.63,1.887,1.887,0,0,0,.915.226,1.938,1.938,0,0,0,.507-.069A1.563,1.563,0,0,0,3.671,7a1.067,1.067,0,0,0,.334-.352.89.89,0,0,0,.127-.491.858.858,0,0,0-.288-.693,2.777,2.777,0,0,0-.714-.41c-.27-.1-.584-.212-.932-.318a3.859,3.859,0,0,1-.932-.41,2.266,2.266,0,0,1-.714-.694A2.092,2.092,0,0,1,.265,2.474a2.217,2.217,0,0,1,.259-1.1A2.348,2.348,0,0,1,1.2.608,3,3,0,0,1,2.164.15,4.008,4.008,0,0,1,3.269,0,4.143,4.143,0,0,1,4.517.2,2.894,2.894,0,0,1,5.6.844L4.546,1.966a1.372,1.372,0,0,0-.616-.491,2.251,2.251,0,0,0-.812-.157,2.215,2.215,0,0,0-.489.059,1.33,1.33,0,0,0-.426.184A.974.974,0,0,0,1.9,1.89a.961.961,0,0,0-.115.48.752.752,0,0,0,.288.635,2.735,2.735,0,0,0,.714.382c.284.109.589.211.932.312a3.858,3.858,0,0,1,.932.416,2.32,2.32,0,0,1,.714.7,2.172,2.172,0,0,1,.288,1.167,2.6,2.6,0,0,1-.242,1.15,2.327,2.327,0,0,1-.65.815,2.926,2.926,0,0,1-.95.486A4.154,4.154,0,0,1,2.67,8.6Zm86.5-.208h-1.45V.209h1.921l3.947,6.079h.023V.209h1.45V8.39H93.218L89.191,2.115h-.023V8.391Zm-40.5,0h-1.45V.209h2.831a5.725,5.725,0,0,1,1.133.11,2.922,2.922,0,0,1,.973.375,1.98,1.98,0,0,1,.679.716,2.364,2.364,0,0,1,.253,1.144A2.3,2.3,0,0,1,52.6,4.046a2.108,2.108,0,0,1-1.4.728l2.163,3.615-1.748,0L49.728,4.924H48.669V8.391Zm0-6.934V3.676H49.8c.182,0,.391-.01.622-.029a2.03,2.03,0,0,0,.57-.139.942.942,0,0,0,.419-.336,1.063,1.063,0,0,0,.161-.629,1.011,1.011,0,0,0-.149-.578.923.923,0,0,0-.391-.329,1.712,1.712,0,0,0-.535-.145,5.205,5.205,0,0,0-.57-.034ZM76.347,8.391H74.9V.209h1.45V8.39Zm-4.9,0h-1.45V1.526H67.5V.209h6.445V1.526h-2.5V8.39Zm-8.7,0h-1.45V.209h2.739a5.452,5.452,0,0,1,1.133.115,2.811,2.811,0,0,1,.961.387,1.98,1.98,0,0,1,.662.728,2.4,2.4,0,0,1,.247,1.138,2.564,2.564,0,0,1-.265,1.248,1.9,1.9,0,0,1-.714.733,2.981,2.981,0,0,1-1.041.353A8.213,8.213,0,0,1,63.78,5H62.744V8.39Zm0-6.934v2.3h.875c.21,0,.421-.008.644-.023a2.022,2.022,0,0,0,.616-.139,1.068,1.068,0,0,0,.46-.346,1.047,1.047,0,0,0,.178-.647,1.023,1.023,0,0,0-.161-.607,1.069,1.069,0,0,0-.414-.347,1.725,1.725,0,0,0-.563-.156,5.624,5.624,0,0,0-.6-.034Zm-5.26,6.934h-1.45v-3.5L52.973.209h1.819l2,3.259L58.819.209h1.726l-3.061,4.68v3.5Zm-21.809,0L31.649,2.115h-.023V8.391h-1.45V.209H32.1l3.947,6.079h.023V.209h1.45V8.39Zm-6.928,0h-5.6V.209h5.4V1.526H24.593V3.537h3.74V4.855h-3.74V7.074h4.154V8.39Zm-10.069,0H13.764V.209h1.451V7.074h3.464V8.39Z" transform="translate(1.105 26.281)" fill="#fff" opacity="0.504"/>
  </g>
</svg>
