<svg xmlns="http://www.w3.org/2000/svg" width="245.153" height="38" viewBox="0 0 245.153 38">
  <g id="组_100" data-name="组 100" transform="translate(-453.846 -466)">
    <text id="滑鼠移至場地圖_可了解相關資訊_請直接在場地圖上點選您要的座位" data-name="滑鼠移至場地圖，可了解相關資訊
請直接在場地圖上點選您要的座位" transform="translate(699 482)" fill="#999" font-size="14" font-family="NotoSansCJKtc-Regular, Noto Sans CJK TC"><tspan x="-210" y="0">滑鼠移至場地圖，可了解相關資訊</tspan><tspan x="-210" y="18">請直接在場地圖上點選您要的座位</tspan></text>
    <g id="组_9" data-name="组 9" transform="translate(382 331)">
      <path id="路径_50" data-name="路径 50" d="M92.384,139.135v-1.517H89.35v1.517h3.035Z" transform="translate(-9.916)"/>
      <path id="路径_51" data-name="路径 51" d="M96.351,144.153v10.621h1.517v-6.069H100.9v-1.517H97.868v-6.069H96.351v3.035Z" transform="translate(-13.883 -1.983)"/>
      <path id="路径_52" data-name="路径 52" d="M106.852,161.656v3.035h1.517v-4.552H111.4v-1.518h-4.552v3.035Z" transform="translate(-19.832 -11.899)"/>
      <path id="路径_53" data-name="路径 53" d="M117.354,165.157v3.035h1.518V163.64h1.517v-1.517h-3.035v3.035Z" transform="translate(-25.782 -13.883)"/>
      <rect id="矩形_38" data-name="矩形 38" width="1.517" height="1.517" transform="translate(94.607 149.757)"/>
      <path id="路径_54" data-name="路径 54" d="M127.856,169.124v10.622h1.517V169.124Z" transform="translate(-31.732 -17.849)"/>
      <path id="路径_55" data-name="路径 55" d="M124.355,195.145v3.035h1.517v-4.552h-1.517Z" transform="translate(-29.749 -31.732)"/>
      <path id="路径_56" data-name="路径 56" d="M103.006,205.647v1.518H90.867v-3.035H89.35v4.552h15.173v-4.552h-1.517Z" transform="translate(-9.916 -37.682)"/>
      <path id="路径_57" data-name="路径 57" d="M83.865,156.292v3.035h1.518V141.119H83.865v13.656H82.348v1.517Z" transform="translate(-5.95 -1.983)"/>
      <path id="路径_58" data-name="路径 58" d="M73.364,170.641H76.4v-1.517H71.846v4.552h1.517v-3.035Z" transform="translate(0 -17.849)"/>
      <rect id="矩形_39" data-name="矩形 39" width="1.518" height="1.518" transform="translate(73.364 155.826)"/>
      <path id="路径_59" data-name="路径 59" d="M80.365,183.126H78.848v3.035h1.517v-3.035Z" transform="translate(-3.967 -25.782)"/>
      <path id="路径_60" data-name="路径 60" d="M83.865,190.127H82.348v3.035h1.517v-3.035Z" transform="translate(-5.95 -29.749)"/>
      <path id="路径_61" data-name="路径 61" d="M87.366,197.128H85.849v3.035h1.518v-3.035Z" transform="translate(-7.933 -33.715)"/>
    </g>
  </g>
</svg>
